<svg width="9" height="9" viewBox="0 0 7 8" fill="none" xmlns="http://www.w3.org/2000/svg">
<path id="Vector" d="M4.30259 1.70895L4.55181 2.21671C4.67642 2.46613 4.98795 2.69774 5.26387 2.75118L5.6021 2.80463C6.61678 2.97388 6.85709 3.72215 6.12724 4.46151L5.81571 4.77328C5.611 4.98707 5.49529 5.39684 5.55759 5.68189L5.6021 5.86896C5.87802 7.09825 5.22827 7.57037 4.16018 6.929L3.92876 6.79538C3.65284 6.63504 3.20781 6.63504 2.93189 6.79538L2.70047 6.929C1.62348 7.57928 0.97373 7.09825 1.25855 5.86896L1.30306 5.68189C1.36536 5.39684 1.24965 4.98707 1.04494 4.77328L0.733412 4.4526C0.00355402 3.71324 0.243872 2.96497 1.25855 2.79572L1.59678 2.74227C1.8638 2.69774 2.18423 2.45722 2.30884 2.2078L2.55806 1.70005C3.03869 0.73799 3.82195 0.73799 4.30259 1.70895Z" fill="#EDF2F4"/>
</svg>
