<svg width="195" height="64" viewBox="0 0 195 64" fill="none" xmlns="http://www.w3.org/2000/svg">
<path d="M126.242 56.0208C126.242 56.503 126.342 56.9823 126.545 57.456C126.744 57.9296 127.018 58.3519 127.361 58.7285C127.706 59.1052 128.108 59.4104 128.57 59.6473C129.033 59.8841 129.532 60.0068 130.066 60.0182C130.622 60.0182 131.113 59.9497 131.538 59.8099C131.963 59.6701 132.394 59.4219 132.825 59.0624C133.03 58.8883 133.258 58.7257 133.512 58.5773C133.763 58.4289 134.04 58.3547 134.337 58.3547C134.511 58.3547 134.696 58.3947 134.893 58.4717C135.087 58.5488 135.29 58.6743 135.495 58.8484C135.669 59.0024 135.801 59.185 135.889 59.3962C135.978 59.6073 136.017 59.827 136.012 60.061C136.006 60.2921 135.955 60.5204 135.858 60.7486C135.761 60.9769 135.612 61.1909 135.418 61.3963C134.779 62.044 134.023 62.5376 133.144 62.8772C132.265 63.2167 131.341 63.385 130.377 63.385C129.349 63.385 128.382 63.1967 127.478 62.8229C126.573 62.4463 125.78 61.9299 125.101 61.2736C124.422 60.6174 123.888 59.8413 123.497 58.9511C123.106 58.0609 122.912 57.1022 122.912 56.075C122.924 56.0636 122.927 56.055 122.927 56.0436H122.912C122.912 55.0164 123.106 54.052 123.497 53.1533C123.888 52.2545 124.422 51.4727 125.101 50.8079C125.78 50.1431 126.57 49.6238 127.478 49.2414C128.382 48.862 129.349 48.6708 130.377 48.6708C131.344 48.6708 132.265 48.8334 133.144 49.1558C134.023 49.4811 134.782 49.9662 135.418 50.6139C135.612 50.8079 135.764 51.0219 135.866 51.253C135.969 51.4841 136.023 51.7152 136.029 51.9463C136.035 52.1774 135.992 52.4 135.898 52.6111C135.806 52.8223 135.667 53.0106 135.481 53.1732C135.276 53.3473 135.082 53.4728 134.896 53.5442C134.711 53.6155 134.531 53.6526 134.357 53.6526C134.057 53.6526 133.783 53.5784 133.532 53.43C133.281 53.2817 133.047 53.119 132.83 52.945C132.4 52.6168 131.972 52.38 131.549 52.2345C131.127 52.089 130.685 52.0177 130.223 52.0177C129.698 52.0177 129.195 52.1261 128.71 52.3429C128.228 52.5598 127.806 52.8508 127.446 53.2217C127.087 53.5927 126.799 54.0178 126.582 54.5028C126.365 54.985 126.256 55.4901 126.256 56.0151L126.242 56.0293V56.0208Z" fill="#845DC2"/>
<path d="M137.533 56.0208C137.533 55.0022 137.727 54.0492 138.117 53.159C138.508 52.2688 139.036 51.4898 139.707 50.8221C140.377 50.1545 141.153 49.6266 142.044 49.2414C142.934 48.8563 143.881 48.6622 144.888 48.6622C145.895 48.6622 146.863 48.8563 147.756 49.2414C148.652 49.6266 149.431 50.1545 150.093 50.8221C150.755 51.4898 151.277 52.2688 151.659 53.159C152.038 54.0492 152.23 55.0022 152.23 56.0208C152.23 57.0394 152.038 57.981 151.659 58.874C151.28 59.7671 150.757 60.5518 150.093 61.2194C149.428 61.8871 148.652 62.4149 147.756 62.8001C146.86 63.1853 145.904 63.3793 144.888 63.3793C143.872 63.3793 142.931 63.1853 142.044 62.8001C141.153 62.4149 140.374 61.8871 139.707 61.2194C139.039 60.5518 138.508 59.77 138.117 58.874C137.727 57.9781 137.533 57.028 137.533 56.0208ZM140.879 56.0208C140.879 56.5658 140.985 57.0822 141.196 57.5701C141.407 58.058 141.695 58.486 142.061 58.8512C142.426 59.2164 142.848 59.5046 143.333 59.7157C143.815 59.9269 144.335 60.0325 144.891 60.0325C145.447 60.0325 145.967 59.9269 146.458 59.7157C146.948 59.5046 147.371 59.2164 147.73 58.8512C148.09 58.486 148.372 58.058 148.577 57.5701C148.783 57.0822 148.886 56.5658 148.886 56.0208C148.886 55.4758 148.783 54.9451 148.577 54.4543C148.372 53.9664 148.09 53.5413 147.73 53.1818C147.371 52.8223 146.945 52.537 146.458 52.3258C145.97 52.1147 145.447 52.0091 144.891 52.0091C144.335 52.0091 143.83 52.1147 143.342 52.3258C142.854 52.537 142.426 52.8223 142.061 53.1818C141.695 53.5413 141.407 53.9664 141.196 54.4543C140.985 54.9423 140.879 55.4644 140.879 56.0208Z" fill="#845DC2"/>
<path d="M157.568 61.559C157.568 62.0212 157.411 62.4092 157.097 62.7231C156.783 63.0369 156.395 63.1939 155.933 63.1939C155.708 63.1939 155.491 63.1511 155.286 63.0626C155.08 62.977 154.897 62.86 154.738 62.7145C154.578 62.5719 154.452 62.3978 154.361 62.1981C154.267 61.9984 154.221 61.7844 154.221 61.559V54.2946C154.221 53.5242 154.372 52.7966 154.675 52.1118C154.977 51.427 155.391 50.8307 155.916 50.3228C156.441 49.8149 157.049 49.4098 157.742 49.113C158.436 48.8163 159.169 48.6651 159.939 48.6651C160.71 48.6651 161.494 48.8192 162.199 49.1273C162.904 49.4355 163.523 49.8577 164.059 50.3913C164.593 49.8577 165.218 49.4355 165.934 49.1273C166.65 48.8192 167.406 48.6651 168.208 48.6651C169.01 48.6651 169.72 48.8106 170.399 49.0959C171.078 49.3841 171.675 49.7807 172.188 50.2829C172.702 50.7879 173.113 51.3728 173.421 52.0405C173.729 52.7082 173.9 53.4243 173.929 54.1833C173.929 54.2033 173.929 54.2289 173.937 54.2518C173.943 54.2774 173.946 54.3003 173.946 54.3202V61.5561C173.946 61.7815 173.903 61.9955 173.815 62.1952C173.726 62.395 173.609 62.569 173.461 62.7117C173.312 62.8572 173.138 62.9713 172.944 63.0598C172.75 63.1482 172.539 63.191 172.311 63.191C172.083 63.191 171.866 63.1482 171.655 63.0598C171.444 62.9742 171.261 62.8572 171.107 62.7117C170.953 62.569 170.83 62.395 170.736 62.1952C170.642 61.9955 170.596 61.7815 170.596 61.5561V54.2746C170.585 53.9465 170.513 53.6412 170.379 53.3644C170.245 53.0876 170.068 52.848 169.849 52.6482C169.626 52.4485 169.375 52.2916 169.092 52.1774C168.81 52.0662 168.502 52.0091 168.174 52.0091C167.846 52.0091 167.532 52.0719 167.232 52.1946C166.933 52.3173 166.676 52.4856 166.453 52.6967C166.231 52.9079 166.057 53.1533 165.928 53.4386C165.8 53.7239 165.734 54.0264 165.734 54.3573V61.5618C165.734 62.024 165.577 62.4121 165.263 62.7259C164.95 63.0398 164.561 63.1967 164.099 63.1967C163.874 63.1967 163.657 63.1539 163.452 63.0655C163.246 62.9799 163.063 62.8629 162.904 62.7174C162.744 62.5747 162.618 62.4007 162.527 62.2009C162.433 62.0012 162.387 61.7872 162.387 61.5618V54.2974C162.376 53.9693 162.307 53.6611 162.179 53.3787C162.051 53.0962 161.879 52.8537 161.663 52.6539C161.446 52.4542 161.195 52.2973 160.906 52.1832C160.618 52.0719 160.31 52.0148 159.982 52.0148C159.654 52.0148 159.343 52.0747 159.049 52.1917C158.755 52.3087 158.498 52.4742 158.279 52.6853C158.056 52.8965 157.882 53.139 157.754 53.4186C157.625 53.6954 157.56 53.995 157.56 54.3145V61.5647L157.568 61.559Z" fill="#845DC2"/>
<path d="M116.233 63.3793C118.094 63.3793 119.603 61.8707 119.603 60.0096C119.603 58.1486 118.094 56.6399 116.233 56.6399C114.372 56.6399 112.863 58.1486 112.863 60.0096C112.863 61.8707 114.372 63.3793 116.233 63.3793Z" fill="#845DC2"/>
<path d="M0.969971 7.16447C0.969971 6.668 1.05842 6.20577 1.23532 5.78064C1.41223 5.3555 1.64905 4.98172 1.95149 4.66216C2.25108 4.33974 2.61059 4.09151 3.02432 3.91461C3.43804 3.7377 3.88315 3.64925 4.36249 3.64925C4.84184 3.64925 5.30977 3.7377 5.71494 3.91461C6.1201 4.09151 6.47105 4.33974 6.77064 4.66216C7.07023 4.98458 7.3042 5.3555 7.46969 5.78064C7.63518 6.20577 7.71792 6.668 7.71792 7.16447V16.8655C8.89917 16.098 10.1689 15.5017 11.527 15.0794C12.8852 14.6543 14.3089 14.4431 15.8012 14.4431C17.8527 14.4431 19.7758 14.8312 21.5676 15.6101C23.3595 16.3862 24.9259 17.4447 26.2612 18.7801C27.5966 20.1154 28.6551 21.6875 29.4312 23.4908C30.2073 25.2941 30.5982 27.2229 30.5982 29.2744C30.5982 31.3258 30.2101 33.2233 29.4312 35.0265C28.6551 36.8298 27.5966 38.4048 26.2612 39.7515C24.9231 41.0982 23.3595 42.1597 21.5676 42.9386C19.7758 43.7147 17.8527 44.1056 15.8012 44.1056C13.7497 44.1056 11.8523 43.7175 10.049 42.9386C8.24578 42.1597 6.67078 41.0982 5.32404 39.7515C3.9773 38.4048 2.91589 36.8298 2.13695 35.0265C1.36087 33.2233 0.969971 31.3059 0.969971 29.2744L0.969971 7.16447ZM7.71792 29.2686C7.71792 30.3672 7.92906 31.4086 8.3542 32.393C8.77933 33.3773 9.35855 34.239 10.0947 34.9723C10.8308 35.7084 11.684 36.2877 12.6598 36.7128C13.6327 37.1379 14.6799 37.3491 15.7983 37.3491C16.9168 37.3491 17.964 37.1379 18.9369 36.7128C19.9099 36.2877 20.7659 35.7084 21.502 34.9723C22.2381 34.2362 22.8117 33.3773 23.2282 32.393C23.6419 31.4086 23.8502 30.3672 23.8502 29.2686C23.8502 28.1701 23.6419 27.0973 23.2282 26.1129C22.8145 25.1286 22.2381 24.2726 21.502 23.5479C20.7659 22.8231 19.9099 22.2468 18.9369 21.8216C17.964 21.3965 16.9168 21.1854 15.7983 21.1854C14.6799 21.1854 13.6327 21.3994 12.6598 21.8216C11.684 22.2468 10.8308 22.8203 10.0947 23.5479C9.35855 24.2726 8.77933 25.1286 8.3542 26.1129C7.92906 27.0973 7.71792 28.1502 7.71792 29.2686Z" fill="#845DC2"/>
<path d="M33.3345 29.2715C33.3345 27.22 33.7282 25.2969 34.5157 23.5051C35.3032 21.7132 36.3703 20.1439 37.7171 18.7943C39.0638 17.4476 40.6331 16.3862 42.4278 15.6073C44.2196 14.8312 46.1313 14.4403 48.1628 14.4403C50.1944 14.4403 52.1431 14.8283 53.9464 15.6073C55.7497 16.3833 57.3189 17.4476 58.6571 18.7943C59.9924 20.1411 61.0453 21.7132 61.8128 23.5051C62.5804 25.2969 62.9627 27.22 62.9627 29.2715V40.2765C62.9627 40.753 62.8742 41.1981 62.6973 41.6147C62.5204 42.0284 62.2779 42.3908 61.9669 42.7018C61.6559 43.0128 61.2878 43.261 60.8627 43.4493C60.4376 43.6348 59.9867 43.729 59.5103 43.729C58.7028 43.729 58.018 43.4921 57.4588 43.0128C56.8995 42.5363 56.5257 41.9371 56.3403 41.2095C55.159 42.0997 53.8779 42.8045 52.4998 43.3238C51.1217 43.8402 49.6751 44.0999 48.1628 44.0999C46.1313 44.0999 44.2196 43.7118 42.4278 42.9329C40.636 42.154 39.0638 41.0925 37.7171 39.7458C36.3703 38.3991 35.3032 36.8241 34.5157 35.0208C33.7282 33.2176 33.3345 31.3002 33.3345 29.2687V29.2715ZM40.0796 29.2715C40.0796 30.37 40.2907 31.4114 40.7158 32.3958C41.141 33.3802 41.7202 34.2419 42.4563 34.9752C43.1925 35.7113 44.0456 36.2905 45.0214 36.7157C45.9944 37.1408 47.0415 37.3519 48.1628 37.3519C49.2842 37.3519 50.3342 37.1408 51.3186 36.7157C52.3029 36.2905 53.1589 35.7113 53.8836 34.9752C54.6084 34.239 55.179 33.3802 55.5927 32.3958C56.0065 31.4114 56.2147 30.37 56.2147 29.2715C56.2147 28.173 56.0065 27.1002 55.5927 26.1158C55.179 25.1314 54.6084 24.2755 53.8836 23.5507C53.1589 22.826 52.3029 22.2496 51.3186 21.8245C50.3342 21.3994 49.2813 21.1882 48.1628 21.1882C47.0444 21.1882 46.0229 21.4022 45.0385 21.8245C44.0542 22.2496 43.1925 22.8231 42.4592 23.5507C41.723 24.2755 41.1438 25.1314 40.7187 26.1158C40.2936 27.1002 40.0824 28.153 40.0824 29.2715H40.0796Z" fill="#D55FAD"/>
<path d="M74.1189 33.1006C74.5298 33.9851 75.1175 34.7754 75.8851 35.4688C76.6526 36.165 77.5114 36.7099 78.4587 37.1037C79.406 37.4974 80.4046 37.7143 81.4518 37.7542C82.4989 37.7942 83.5147 37.5973 84.5019 37.1636C85.5177 36.6928 86.3565 36.1507 87.0185 35.5344C87.6804 34.9181 88.2539 34.0992 88.739 33.0749C88.9673 32.5813 89.2469 32.0905 89.5807 31.6055C89.9145 31.1204 90.3539 30.7495 90.8989 30.4984C91.2185 30.35 91.5894 30.2644 92.0117 30.2388C92.434 30.2131 92.9076 30.273 93.4326 30.4185C93.8834 30.5526 94.2772 30.7752 94.6167 31.0862C94.9562 31.3972 95.2187 31.7681 95.4042 32.1932C95.5897 32.6212 95.6924 33.0835 95.7038 33.5799C95.7181 34.0764 95.6325 34.5957 95.4499 35.1378C94.8336 36.864 93.8663 38.4076 92.5452 39.7743C91.2242 41.1411 89.6806 42.2339 87.9144 43.0527C86.0341 43.9258 84.1082 44.4023 82.1337 44.4822C80.1621 44.565 78.2761 44.2911 76.4757 43.6633C74.6753 43.0356 73.0432 42.0741 71.5738 40.7787C70.1044 39.4833 68.9345 37.8969 68.0614 36.0166C68.07 35.9909 68.0729 35.9652 68.0614 35.9481L68.0329 35.9624C67.1598 34.0821 66.7004 32.1533 66.6519 30.1788C66.6034 28.2015 66.9173 26.3184 67.5964 24.5322C68.2754 22.7433 69.2798 21.1197 70.6123 19.656C71.9447 18.1923 73.5511 17.0253 75.4314 16.1522C77.1976 15.3333 79.0237 14.8454 80.9068 14.6914C82.79 14.5373 84.5875 14.7827 86.3023 15.4275C86.8245 15.6187 87.2781 15.884 87.6633 16.2179C88.0485 16.5545 88.3424 16.9312 88.5478 17.3506C88.7533 17.77 88.8617 18.2123 88.8702 18.6745C88.8788 19.1396 88.7847 19.599 88.5849 20.0583C88.3567 20.552 88.1056 20.9428 87.8288 21.231C87.552 21.5192 87.2525 21.7389 86.9329 21.8873C86.3879 22.1412 85.8201 22.2382 85.2352 22.1783C84.6474 22.1212 84.0825 22.0214 83.5404 21.8844C82.4732 21.6505 81.4917 21.5791 80.5986 21.6733C79.7056 21.7674 78.8353 22.01 77.9908 22.4037C77.0321 22.8488 76.2018 23.4737 75.5027 24.2783C74.8008 25.0829 74.2787 25.976 73.9363 26.9575C73.5911 27.939 73.4284 28.9634 73.4427 30.0305C73.457 31.0976 73.6881 32.1105 74.1332 33.0692L74.1189 33.1091V33.1006Z" fill="#FF6D91"/>
<path d="M126.787 40.4306C126.787 40.8871 126.699 41.318 126.522 41.7203C126.345 42.1226 126.102 42.4764 125.791 42.776C125.48 43.0784 125.124 43.3095 124.719 43.475C124.313 43.6405 123.874 43.7232 123.397 43.7232C122.921 43.7232 122.51 43.6405 122.108 43.475C121.703 43.3095 121.346 43.0756 121.035 42.776C120.724 42.4764 120.481 42.1226 120.305 41.7203C120.128 41.318 120.039 40.8871 120.039 40.4306V28.7551C120.039 28.6837 120.051 28.6152 120.071 28.5525C120.051 27.5167 119.862 26.5523 119.511 25.6621C119.158 24.7719 118.675 23.993 118.065 23.331C117.454 22.6691 116.724 22.1441 115.873 21.7617C115.023 21.3794 114.079 21.1854 113.043 21.1854C112.007 21.1854 111 21.368 110.09 21.7303C109.177 22.0927 108.389 22.6006 107.727 23.254C107.065 23.9074 106.54 24.6835 106.158 25.5851C105.776 26.4867 105.582 27.4768 105.582 28.5525V40.3678C105.582 40.8243 105.493 41.258 105.316 41.6746C105.139 42.0912 104.903 42.4478 104.6 42.7474C104.301 43.0499 103.947 43.2867 103.545 43.4636C103.142 43.6405 102.7 43.729 102.223 43.729C101.747 43.729 101.302 43.6405 100.888 43.4636C100.472 43.2867 100.115 43.0499 99.8153 42.7474C99.5157 42.4478 99.2761 42.0912 99.0992 41.6746C98.9223 41.258 98.8338 40.8243 98.8338 40.3678V7.07316C98.8338 6.59667 98.9223 6.15156 99.0992 5.73784C99.2761 5.32412 99.5186 4.96175 99.8296 4.65075C100.141 4.33974 100.503 4.09722 100.917 3.92031C101.33 3.74341 101.767 3.65496 102.223 3.65496C102.68 3.65496 103.142 3.74341 103.545 3.92031C103.95 4.09722 104.301 4.33974 104.6 4.65075C104.9 4.96175 105.139 5.32412 105.316 5.73784C105.493 6.15156 105.582 6.59952 105.582 7.07316V17.2079C106.66 16.3377 107.824 15.6586 109.08 15.1707C110.332 14.6828 111.656 14.4403 113.043 14.4403C115.012 14.4403 116.835 14.8198 118.516 15.5759C120.193 16.332 121.646 17.3592 122.867 18.6545C124.091 19.9499 125.047 21.4678 125.743 23.2083C126.436 24.9488 126.784 26.8034 126.784 28.7722V40.4306H126.787Z" fill="#FC966C"/>
<path d="M130.922 29.2715C130.922 27.22 131.315 25.2969 132.103 23.5051C132.89 21.7132 133.957 20.1439 135.304 18.7943C136.651 17.4476 138.22 16.3862 140.015 15.6073C141.807 14.8312 143.718 14.4403 145.75 14.4403C147.781 14.4403 149.73 14.8283 151.533 15.6073C153.337 16.3833 154.906 17.4476 156.244 18.7943C157.582 20.1411 158.632 21.7132 159.4 23.5051C160.167 25.2969 160.55 27.22 160.55 29.2715V40.2765C160.55 40.753 160.461 41.1981 160.284 41.6147C160.108 42.0284 159.865 42.3908 159.554 42.7018C159.243 43.0128 158.875 43.261 158.45 43.4493C158.025 43.6348 157.574 43.729 157.097 43.729C156.29 43.729 155.605 43.4921 155.046 43.0128C154.487 42.5363 154.113 41.9371 153.927 41.2095C152.746 42.0997 151.465 42.8045 150.087 43.3238C148.709 43.8402 147.262 44.0999 145.75 44.0999C143.718 44.0999 141.807 43.7118 140.015 42.9329C138.223 42.154 136.651 41.0925 135.304 39.7458C133.957 38.3991 132.89 36.8241 132.103 35.0208C131.315 33.2176 130.922 31.3002 130.922 29.2687V29.2715ZM137.667 29.2715C137.667 30.37 137.878 31.4114 138.303 32.3958C138.728 33.3802 139.307 34.2419 140.043 34.9752C140.78 35.7113 141.633 36.2905 142.609 36.7157C143.581 37.1408 144.629 37.3519 145.747 37.3519C146.866 37.3519 147.918 37.1408 148.903 36.7157C149.887 36.2905 150.743 35.7113 151.468 34.9752C152.193 34.239 152.763 33.3802 153.177 32.3958C153.591 31.4114 153.799 30.37 153.799 29.2715C153.799 28.173 153.591 27.1002 153.177 26.1158C152.763 25.1314 152.193 24.2755 151.468 23.5507C150.743 22.826 149.887 22.2496 148.903 21.8245C147.918 21.3994 146.866 21.1882 145.747 21.1882C144.629 21.1882 143.607 21.4022 142.623 21.8245C141.638 22.2496 140.777 22.8231 140.043 23.5507C139.307 24.2755 138.728 25.1314 138.303 26.1158C137.878 27.1002 137.667 28.153 137.667 29.2715Z" fill="#FFC55D"/>
<path d="M173.078 29.7994C173.078 30.8579 173.275 31.848 173.669 32.7696C174.063 33.6912 174.602 34.4901 175.287 35.1635C175.972 35.8369 176.779 36.3647 177.712 36.7499C178.645 37.1322 179.641 37.3263 180.697 37.3263C181.752 37.3263 182.742 37.1237 183.667 36.7214C184.591 36.3191 185.387 35.7684 186.061 35.075C186.734 34.3817 187.268 33.5657 187.661 32.6355C188.055 31.7025 188.252 30.6981 188.252 29.6196V18.178C188.252 17.7215 188.346 17.2907 188.532 16.8884C188.717 16.4832 188.968 16.1266 189.279 15.8155C189.59 15.5045 189.958 15.262 190.383 15.0851C190.809 14.9082 191.248 14.8198 191.704 14.8198C192.161 14.8198 192.615 14.9082 193.011 15.0851C193.405 15.262 193.753 15.5045 194.053 15.8155C194.352 16.1266 194.586 16.4832 194.752 16.8884C194.917 17.2935 195 17.7215 195 18.178V29.7423C195 31.4428 194.72 33.0521 194.161 34.5757C193.602 36.0994 192.834 37.4718 191.861 38.6958C190.886 39.9199 189.727 40.9642 188.38 41.8344C187.034 42.7046 185.573 43.3267 183.998 43.7004V50.8507C183.998 51.3272 183.909 51.7723 183.732 52.1889C183.556 52.6026 183.313 52.9592 183.002 53.2617C182.691 53.5613 182.334 53.801 181.929 53.9779C181.524 54.1548 181.096 54.2432 180.64 54.2432C179.664 54.2432 178.856 53.9208 178.214 53.2788C177.572 52.6368 177.25 51.8265 177.25 50.8535V43.6719C175.675 43.2781 174.223 42.6447 172.899 41.7745C171.572 40.9042 170.422 39.8571 169.446 38.6359C168.47 37.4118 167.709 36.0451 167.161 34.5329C166.61 33.0207 166.336 31.4229 166.336 29.7451V18.1809C166.336 17.7244 166.425 17.2935 166.602 16.8912C166.778 16.4861 167.015 16.1294 167.318 15.8184C167.62 15.5074 167.974 15.2649 168.391 15.088C168.804 14.9111 169.241 14.8226 169.697 14.8226C170.154 14.8226 170.588 14.9111 171.004 15.088C171.418 15.2649 171.78 15.5074 172.091 15.8184C172.402 16.1294 172.645 16.4861 172.822 16.8912C172.999 17.2964 173.087 17.7244 173.087 18.1809V29.8079L173.078 29.7994Z" fill="#F8931B"/>
<path d="M70.2642 13.9695C73.9327 13.9695 76.9066 10.9956 76.9066 7.32711C76.9066 3.65862 73.9327 0.684723 70.2642 0.684723C66.5957 0.684723 63.6218 3.65862 63.6218 7.32711C63.6218 10.9956 66.5957 13.9695 70.2642 13.9695Z" fill="#FFC65F"/>
<path d="M81.6058 33.6027C83.9979 33.6027 85.9371 31.6636 85.9371 29.2715C85.9371 26.8794 83.9979 24.9403 81.6058 24.9403C79.2138 24.9403 77.2746 26.8794 77.2746 29.2715C77.2746 31.6636 79.2138 33.6027 81.6058 33.6027Z" fill="#FFC65F"/>
</svg>
