<svg width="85" height="31" viewBox="0 0 85 31" fill="none" xmlns="http://www.w3.org/2000/svg">
<path d="M0.5625 3.49637C0.5625 3.28151 0.600779 3.08148 0.677336 2.89749C0.753894 2.71351 0.856382 2.55175 0.987271 2.41345C1.11692 2.27392 1.27251 2.16649 1.45155 2.08993C1.6306 2.01338 1.82323 1.9751 2.03067 1.9751C2.23812 1.9751 2.44063 2.01338 2.61597 2.08993C2.79131 2.16649 2.94319 2.27392 3.07284 2.41345C3.2025 2.55298 3.30375 2.71351 3.37537 2.89749C3.44699 3.08148 3.4828 3.28151 3.4828 3.49637V7.69468C3.994 7.36252 4.54349 7.10445 5.13125 6.9217C5.71902 6.73771 6.33518 6.64634 6.98098 6.64634C7.8688 6.64634 8.70105 6.81427 9.47651 7.15137C10.252 7.48724 10.9299 7.94535 11.5077 8.52323C12.0856 9.10112 12.5437 9.78149 12.8796 10.5619C13.2155 11.3423 13.3846 12.177 13.3846 13.0648C13.3846 13.9526 13.2167 14.7738 12.8796 15.5542C12.5437 16.3346 12.0856 17.0162 11.5077 17.599C10.9286 18.1818 10.252 18.6412 9.47651 18.9783C8.70105 19.3141 7.8688 19.4833 6.98098 19.4833C6.09316 19.4833 5.27202 19.3154 4.49163 18.9783C3.71123 18.6412 3.02963 18.1818 2.4468 17.599C1.86398 17.0162 1.40463 16.3346 1.06753 15.5542C0.731667 14.7738 0.5625 13.944 0.5625 13.0648L0.5625 3.49637ZM3.4828 13.0623C3.4828 13.5377 3.57417 13.9884 3.75816 14.4145C3.94214 14.8405 4.19281 15.2134 4.51138 15.5307C4.82996 15.8493 5.19917 16.1 5.62147 16.2839C6.04253 16.4679 6.4957 16.5593 6.97975 16.5593C7.46379 16.5593 7.91696 16.4679 8.33802 16.2839C8.75909 16.1 9.12953 15.8493 9.44811 15.5307C9.76668 15.2121 10.0149 14.8405 10.1952 14.4145C10.3742 13.9884 10.4643 13.5377 10.4643 13.0623C10.4643 12.587 10.3742 12.1227 10.1952 11.6967C10.0161 11.2707 9.76668 10.9002 9.44811 10.5866C9.12953 10.2729 8.75909 10.0235 8.33802 9.83953C7.91696 9.65554 7.46379 9.56417 6.97975 9.56417C6.4957 9.56417 6.04253 9.65678 5.62147 9.83953C5.19917 10.0235 4.82996 10.2717 4.51138 10.5866C4.19281 10.9002 3.94214 11.2707 3.75816 11.6967C3.57417 12.1227 3.4828 12.5783 3.4828 13.0623Z" fill="#845DC2"/>
<path d="M14.5688 13.0635C14.5688 12.1757 14.7392 11.3434 15.0801 10.568C15.4209 9.79252 15.8827 9.11338 16.4655 8.52932C17.0483 7.9465 17.7275 7.48715 18.5041 7.15005C19.2796 6.81419 20.1069 6.64502 20.9861 6.64502C21.8653 6.64502 22.7086 6.81295 23.489 7.15005C24.2694 7.48592 24.9486 7.9465 25.5277 8.52932C26.1056 9.11215 26.5612 9.79252 26.8934 10.568C27.2255 11.3434 27.391 12.1757 27.391 13.0635V17.8261C27.391 18.0323 27.3527 18.225 27.2762 18.4052C27.1996 18.5843 27.0946 18.7411 26.96 18.8757C26.8255 19.0103 26.6662 19.1177 26.4822 19.1992C26.2982 19.2795 26.1031 19.3202 25.8969 19.3202C25.5474 19.3202 25.2511 19.2177 25.0091 19.0103C24.767 18.8041 24.6053 18.5448 24.525 18.2299C24.0138 18.6152 23.4594 18.9201 22.863 19.1449C22.2666 19.3684 21.6405 19.4807 20.9861 19.4807C20.1069 19.4807 19.2796 19.3128 18.5041 18.9757C17.7287 18.6386 17.0483 18.1793 16.4655 17.5964C15.8827 17.0136 15.4209 16.332 15.0801 15.5516C14.7392 14.7712 14.5688 13.9414 14.5688 13.0623V13.0635ZM17.4879 13.0635C17.4879 13.5389 17.5793 13.9896 17.7633 14.4156C17.9473 14.8416 18.1979 15.2145 18.5165 15.5319C18.8351 15.8504 19.2043 16.1011 19.6266 16.2851C20.0476 16.4691 20.5008 16.5604 20.9861 16.5604C21.4714 16.5604 21.9258 16.4691 22.3518 16.2851C22.7778 16.1011 23.1482 15.8504 23.4619 15.5319C23.7755 15.2133 24.0225 14.8416 24.2015 14.4156C24.3806 13.9896 24.4707 13.5389 24.4707 13.0635C24.4707 12.5881 24.3806 12.1238 24.2015 11.6978C24.0225 11.2718 23.7755 10.9014 23.4619 10.5877C23.1482 10.2741 22.7778 10.0247 22.3518 9.84068C21.9258 9.65669 21.4701 9.56532 20.9861 9.56532C20.5021 9.56532 20.06 9.65793 19.634 9.84068C19.208 10.0247 18.8351 10.2729 18.5177 10.5877C18.1992 10.9014 17.9485 11.2718 17.7645 11.6978C17.5805 12.1238 17.4891 12.5795 17.4891 13.0635H17.4879Z" fill="#D55FAD"/>
<path d="M32.2189 14.7206C32.3967 15.1034 32.6511 15.4454 32.9833 15.7455C33.3154 16.0468 33.6871 16.2826 34.0971 16.453C34.507 16.6234 34.9392 16.7172 35.3924 16.7345C35.8455 16.7518 36.2851 16.6666 36.7124 16.4789C37.1519 16.2752 37.515 16.0406 37.8014 15.7739C38.0879 15.5071 38.3361 15.1528 38.546 14.7095C38.6448 14.4958 38.7658 14.2835 38.9103 14.0735C39.0548 13.8636 39.2449 13.7031 39.4808 13.5944C39.6191 13.5302 39.7796 13.4932 39.9623 13.4821C40.1451 13.471 40.3501 13.4969 40.5773 13.5599C40.7724 13.6179 40.9428 13.7142 41.0897 13.8488C41.2367 13.9834 41.3503 14.1439 41.4305 14.3279C41.5108 14.5131 41.5552 14.7132 41.5602 14.928C41.5663 15.1429 41.5293 15.3676 41.4503 15.6022C41.1836 16.3493 40.765 17.0173 40.1933 17.6088C39.6215 18.2002 38.9535 18.6732 38.1892 19.0276C37.3754 19.4054 36.542 19.6116 35.6875 19.6462C34.8342 19.682 34.018 19.5635 33.2389 19.2918C32.4597 19.0201 31.7534 18.604 31.1175 18.0434C30.4816 17.4828 29.9753 16.7963 29.5974 15.9825C29.6012 15.9714 29.6024 15.9603 29.5974 15.9529L29.5851 15.9591C29.2073 15.1454 29.0085 14.3106 28.9875 13.4561C28.9665 12.6004 29.1023 11.7855 29.3962 11.0125C29.6901 10.2383 30.1247 9.53566 30.7014 8.90221C31.278 8.26876 31.9732 7.76373 32.7869 7.38588C33.5513 7.03149 34.3415 6.82034 35.1565 6.75366C35.9715 6.68699 36.7494 6.79318 37.4915 7.07224C37.7175 7.15497 37.9138 7.26981 38.0805 7.41428C38.2472 7.55999 38.3744 7.72298 38.4633 7.9045C38.5522 8.08601 38.5991 8.27741 38.6028 8.47744C38.6065 8.67871 38.5658 8.87752 38.4794 9.07632C38.3806 9.28994 38.2719 9.45911 38.1521 9.58382C38.0324 9.70854 37.9027 9.80362 37.7644 9.86782C37.5286 9.97772 37.2828 10.0197 37.0297 9.99377C36.7753 9.96908 36.5308 9.92586 36.2962 9.86659C35.8344 9.76534 35.4096 9.73447 35.0231 9.77521C34.6367 9.81596 34.26 9.92092 33.8945 10.0913C33.4797 10.284 33.1203 10.5544 32.8178 10.9026C32.514 11.2508 32.2881 11.6373 32.1399 12.0621C31.9905 12.4868 31.9201 12.9301 31.9263 13.3919C31.9325 13.8538 32.0325 14.2921 32.2251 14.707L32.2189 14.7243V14.7206Z" fill="#FF6D91"/>
<path d="M55.0121 17.8928C55.0121 18.0904 54.9738 18.2769 54.8973 18.451C54.8207 18.6251 54.7158 18.7782 54.5812 18.9079C54.4466 19.0387 54.2922 19.1388 54.1169 19.2104C53.9415 19.282 53.7514 19.3178 53.5452 19.3178C53.339 19.3178 53.1611 19.282 52.987 19.2104C52.8117 19.1388 52.6574 19.0375 52.5228 18.9079C52.3882 18.7782 52.2832 18.6251 52.2066 18.451C52.1301 18.2769 52.0918 18.0904 52.0918 17.8928V12.8401C52.0918 12.8092 52.0968 12.7796 52.1054 12.7524C52.0968 12.3042 52.0153 11.8868 51.8634 11.5015C51.7103 11.1163 51.5016 10.7792 51.2373 10.4927C50.9731 10.2062 50.657 9.97903 50.289 9.81357C49.921 9.6481 49.5123 9.56414 49.0641 9.56414C48.6159 9.56414 48.18 9.64317 47.7861 9.79998C47.3909 9.9568 47.0501 10.1766 46.7637 10.4594C46.4772 10.7421 46.25 11.078 46.0845 11.4682C45.9191 11.8584 45.8351 12.2869 45.8351 12.7524V17.8657C45.8351 18.0633 45.7968 18.2509 45.7203 18.4312C45.6437 18.6115 45.5412 18.7659 45.4103 18.8955C45.2807 19.0264 45.1276 19.1289 44.9534 19.2054C44.7793 19.282 44.5879 19.3203 44.3817 19.3203C44.1755 19.3203 43.9829 19.282 43.8039 19.2054C43.6236 19.1289 43.4692 19.0264 43.3396 18.8955C43.2099 18.7659 43.1062 18.6115 43.0296 18.4312C42.9531 18.2509 42.9148 18.0633 42.9148 17.8657V3.45683C42.9148 3.25062 42.9531 3.05799 43.0296 2.87894C43.1062 2.6999 43.2111 2.54308 43.3457 2.40848C43.4803 2.27389 43.6372 2.16893 43.8162 2.09238C43.9952 2.01582 44.1842 1.97754 44.3817 1.97754C44.5793 1.97754 44.7793 2.01582 44.9534 2.09238C45.1288 2.16893 45.2807 2.27389 45.4103 2.40848C45.54 2.54308 45.6437 2.6999 45.7203 2.87894C45.7968 3.05799 45.8351 3.25185 45.8351 3.45683V7.84283C46.3018 7.46622 46.8056 7.17233 47.349 6.96118C47.891 6.75003 48.464 6.64508 49.0641 6.64508C49.9161 6.64508 50.7051 6.8093 51.4324 7.13652C52.1585 7.46375 52.787 7.90827 53.3155 8.46887C53.8452 9.02947 54.2589 9.68638 54.5602 10.4396C54.8602 11.1928 55.0109 11.9955 55.0109 12.8475V17.8928H55.0121Z" fill="#FC966C"/>
<path d="M56.8015 13.0635C56.8015 12.1757 56.9719 11.3434 57.3127 10.568C57.6535 9.79252 58.1153 9.11338 58.6982 8.52932C59.281 7.9465 59.9601 7.48715 60.7368 7.15005C61.5123 6.81419 62.3396 6.64502 63.2188 6.64502C64.0979 6.64502 64.9413 6.81295 65.7217 7.15005C66.5021 7.48592 67.1812 7.9465 67.7603 8.52932C68.3395 9.11215 68.7939 9.79252 69.126 10.568C69.4582 11.3434 69.6237 12.1757 69.6237 13.0635V17.8261C69.6237 18.0323 69.5854 18.225 69.5088 18.4052C69.4323 18.5843 69.3273 18.7411 69.1927 18.8757C69.0581 19.0103 68.8988 19.1177 68.7148 19.1992C68.5309 19.2795 68.3358 19.3202 68.1295 19.3202C67.7801 19.3202 67.4837 19.2177 67.2417 19.0103C66.9997 18.8041 66.838 18.5448 66.7577 18.2299C66.2465 18.6152 65.6921 18.9201 65.0956 19.1449C64.4992 19.3684 63.8732 19.4807 63.2188 19.4807C62.3396 19.4807 61.5123 19.3128 60.7368 18.9757C59.9614 18.6386 59.281 18.1793 58.6982 17.5964C58.1153 17.0136 57.6535 16.332 57.3127 15.5516C56.9719 14.7712 56.8015 13.9414 56.8015 13.0623V13.0635ZM59.7206 13.0635C59.7206 13.5389 59.812 13.9896 59.9959 14.4156C60.1799 14.8416 60.4306 15.2145 60.7492 15.5319C61.0677 15.8504 61.4369 16.1011 61.8592 16.2851C62.2803 16.4691 62.7335 16.5604 63.2175 16.5604C63.7016 16.5604 64.1572 16.4691 64.5832 16.2851C65.0092 16.1011 65.3797 15.8504 65.6933 15.5319C66.0069 15.2133 66.2539 14.8416 66.4329 14.4156C66.612 13.9896 66.7021 13.5389 66.7021 13.0635C66.7021 12.5881 66.612 12.1238 66.4329 11.6978C66.2539 11.2718 66.0069 10.9014 65.6933 10.5877C65.3797 10.2741 65.0092 10.0247 64.5832 9.84068C64.1572 9.65669 63.7016 9.56532 63.2175 9.56532C62.7335 9.56532 62.2914 9.65793 61.8654 9.84068C61.4394 10.0247 61.0665 10.2729 60.7492 10.5877C60.4306 10.9014 60.1799 11.2718 59.9959 11.6978C59.812 12.1238 59.7206 12.5795 59.7206 13.0635Z" fill="#FFC55D"/>
<path d="M75.0455 13.2918C75.0455 13.7499 75.1307 14.1784 75.3011 14.5772C75.4715 14.976 75.7049 15.3218 76.0012 15.6132C76.2976 15.9046 76.647 16.133 77.0508 16.2997C77.4546 16.4652 77.8856 16.5492 78.3424 16.5492C78.7993 16.5492 79.2278 16.4615 79.6278 16.2874C80.0279 16.1133 80.3724 15.875 80.6638 15.5749C80.9553 15.2749 81.1862 14.9217 81.3566 14.5192C81.527 14.1154 81.6122 13.6807 81.6122 13.214V8.26244C81.6122 8.06487 81.6529 7.87842 81.7332 7.70431C81.8134 7.52897 81.9221 7.37462 82.0567 7.24003C82.1913 7.10543 82.3506 7.00048 82.5346 6.92392C82.7185 6.84736 82.9087 6.80908 83.1063 6.80908C83.3038 6.80908 83.5002 6.84736 83.6718 6.92392C83.8422 7.00048 83.9929 7.10543 84.1225 7.24003C84.2522 7.37462 84.3534 7.52897 84.425 7.70431C84.4967 7.87965 84.5325 8.06487 84.5325 8.26244V13.2671C84.5325 14.003 84.4115 14.6994 84.1694 15.3588C83.9274 16.0182 83.5953 16.6121 83.1742 17.1419C82.7519 17.6716 82.2506 18.1235 81.6677 18.5001C81.0849 18.8768 80.4527 19.1459 79.7711 19.3077V22.4021C79.7711 22.6083 79.7328 22.801 79.6562 22.9812C79.5797 23.1603 79.4747 23.3146 79.3401 23.4455C79.2055 23.5752 79.0512 23.6789 78.8759 23.7554C78.7005 23.832 78.5153 23.8703 78.3177 23.8703C77.8954 23.8703 77.546 23.7308 77.2682 23.4529C76.9903 23.1751 76.8508 22.8244 76.8508 22.4033V19.2954C76.1692 19.125 75.5407 18.8508 74.9677 18.4742C74.3935 18.0976 73.8959 17.6444 73.4736 17.1159C73.0513 16.5862 72.7216 15.9947 72.4845 15.3403C72.2462 14.6859 72.1277 13.9944 72.1277 13.2683V8.26367C72.1277 8.06611 72.166 7.87965 72.2425 7.70555C72.3191 7.5302 72.4216 7.37585 72.5525 7.24126C72.6833 7.10667 72.8365 7.00171 73.0167 6.92515C73.1958 6.8486 73.3847 6.81032 73.5823 6.81032C73.7798 6.81032 73.9675 6.8486 74.1478 6.92515C74.3269 7.00171 74.4837 7.10667 74.6183 7.24126C74.7529 7.37585 74.8578 7.5302 74.9344 7.70555C75.0109 7.88089 75.0492 8.06611 75.0492 8.26367V13.2955L75.0455 13.2918Z" fill="#F8931B"/>
<path d="M30.5509 6.44111C32.1385 6.44111 33.4255 5.15411 33.4255 3.5665C33.4255 1.9789 32.1385 0.691895 30.5509 0.691895C28.9633 0.691895 27.6763 1.9789 27.6763 3.5665C27.6763 5.15411 28.9633 6.44111 30.5509 6.44111Z" fill="#FFC65F"/>
<path d="M35.4591 14.9378C36.4944 14.9378 37.3336 14.0986 37.3336 13.0634C37.3336 12.0282 36.4944 11.189 35.4591 11.189C34.4239 11.189 33.5847 12.0282 33.5847 13.0634C33.5847 14.0986 34.4239 14.9378 35.4591 14.9378Z" fill="#FFC65F"/>
<path d="M22.3255 20.8301C22.6922 20.8301 23.035 20.8998 23.354 21.0391C23.673 21.1748 23.9517 21.3618 24.19 21.6001C24.4283 21.8348 24.6153 22.1135 24.751 22.4361C24.8903 22.7551 24.96 23.0961 24.96 23.4591C24.96 23.8221 24.8903 24.1613 24.751 24.4766C24.6153 24.792 24.4283 25.0688 24.19 25.3071C23.9517 25.5418 23.6712 25.727 23.3485 25.8626C23.0295 25.9983 22.6867 26.0661 22.32 26.0661H20.9065V27.2816C20.9065 27.366 20.89 27.4448 20.857 27.5181C20.8277 27.5878 20.7855 27.6483 20.7305 27.6996C20.6755 27.751 20.6113 27.7931 20.538 27.8261C20.4647 27.8555 20.3877 27.8701 20.307 27.8701C20.2227 27.8701 20.1438 27.8555 20.0705 27.8261C20.0008 27.7931 19.9385 27.751 19.8835 27.6996C19.8322 27.6483 19.79 27.5878 19.757 27.5181C19.7277 27.4448 19.713 27.366 19.713 27.2816V21.4296C19.713 21.3453 19.7277 21.2665 19.757 21.1931C19.79 21.1198 19.8322 21.0575 19.8835 21.0061C19.9385 20.9511 20.0008 20.909 20.0705 20.8796C20.1438 20.8466 20.2227 20.8301 20.307 20.8301H22.3255ZM20.9065 22.0236V24.8726H22.342C22.54 24.8726 22.7252 24.8341 22.8975 24.7571C23.0735 24.6801 23.2257 24.5775 23.354 24.4491C23.4823 24.3171 23.5832 24.1668 23.6565 23.9981C23.7298 23.8258 23.7665 23.6461 23.7665 23.4591C23.7665 23.2721 23.728 23.0925 23.651 22.9201C23.5777 22.7478 23.4768 22.5956 23.3485 22.4636C23.2202 22.328 23.0698 22.2216 22.8975 22.1446C22.7252 22.064 22.54 22.0236 22.342 22.0236H20.9065ZM25.3588 25.3126C25.3588 24.9496 25.4285 24.6105 25.5678 24.2951C25.7072 23.9761 25.896 23.6975 26.1343 23.4591C26.3727 23.2208 26.6495 23.0338 26.9648 22.8981C27.2838 22.7588 27.623 22.6891 27.9823 22.6891C28.3453 22.6891 28.6845 22.7588 28.9998 22.8981C29.3188 23.0338 29.5957 23.2208 29.8303 23.4591C30.0687 23.6975 30.2557 23.9761 30.3913 24.2951C30.5307 24.6105 30.6003 24.9496 30.6003 25.3126V27.2596C30.6003 27.344 30.5838 27.4228 30.5508 27.4961C30.5215 27.5695 30.4793 27.6336 30.4243 27.6886C30.3693 27.7436 30.3033 27.7876 30.2263 27.8206C30.153 27.8536 30.0742 27.8701 29.9898 27.8701C29.8468 27.8701 29.7258 27.828 29.6268 27.7436C29.5278 27.6593 29.4618 27.553 29.4288 27.4246C29.2198 27.5823 28.9925 27.707 28.7468 27.7986C28.5048 27.8903 28.25 27.9361 27.9823 27.9361C27.623 27.9361 27.2838 27.8683 26.9648 27.7326C26.6495 27.5933 26.3727 27.4045 26.1343 27.1661C25.896 26.9278 25.7072 26.6491 25.5678 26.3301C25.4285 26.0111 25.3588 25.672 25.3588 25.3126ZM26.5523 25.3126C26.5523 25.507 26.589 25.6921 26.6623 25.8681C26.7393 26.0405 26.842 26.1926 26.9703 26.3246C27.1023 26.453 27.2545 26.5556 27.4268 26.6326C27.5992 26.706 27.7843 26.7426 27.9823 26.7426C28.1803 26.7426 28.3655 26.706 28.5378 26.6326C28.7138 26.5556 28.866 26.453 28.9943 26.3246C29.1227 26.1926 29.2235 26.0405 29.2968 25.8681C29.3702 25.6921 29.4068 25.507 29.4068 25.3126C29.4068 25.1146 29.3702 24.9295 29.2968 24.7571C29.2235 24.5811 29.1227 24.429 28.9943 24.3006C28.866 24.1723 28.7138 24.0715 28.5378 23.9981C28.3655 23.9211 28.1803 23.8826 27.9823 23.8826C27.788 23.8826 27.6028 23.9211 27.4268 23.9981C27.2545 24.0715 27.1023 24.1723 26.9703 24.3006C26.842 24.429 26.7393 24.5811 26.6623 24.7571C26.589 24.9295 26.5523 25.1146 26.5523 25.3126ZM32.8044 27.2816C32.8044 27.366 32.7879 27.4448 32.7549 27.5181C32.7256 27.5878 32.6853 27.6483 32.6339 27.6996C32.5826 27.751 32.5221 27.7931 32.4524 27.8261C32.3828 27.8555 32.3076 27.8701 32.2269 27.8701C32.1426 27.8701 32.0619 27.8555 31.9849 27.8261C31.9116 27.7931 31.8474 27.751 31.7924 27.6996C31.7374 27.6483 31.6934 27.5878 31.6604 27.5181C31.6274 27.4448 31.6109 27.366 31.6109 27.2816V25.5051C31.6109 25.1275 31.6824 24.7718 31.8254 24.4381C31.9721 24.1045 32.1701 23.813 32.4194 23.5636C32.6688 23.3143 32.9603 23.1181 33.2939 22.9751C33.6276 22.8285 33.9814 22.7551 34.3554 22.7551H34.3664C34.5644 22.7551 34.7166 22.812 34.8229 22.9256C34.9329 23.0356 34.9879 23.1768 34.9879 23.3491C34.9879 23.4335 34.9714 23.5123 34.9384 23.5856C34.9054 23.659 34.8596 23.7231 34.8009 23.7781C34.7459 23.8295 34.6799 23.8716 34.6029 23.9046C34.5296 23.934 34.4508 23.9486 34.3664 23.9486H34.3554C34.1464 23.9486 33.9466 23.989 33.7559 24.0696C33.5689 24.1503 33.4058 24.2603 33.2664 24.3996C33.1271 24.539 33.0153 24.7021 32.9309 24.8891C32.8466 25.0761 32.8044 25.276 32.8044 25.4886V27.2816ZM36.5082 25.8461C36.5558 25.9855 36.6218 26.1101 36.7062 26.2201C36.7942 26.3301 36.895 26.4255 37.0087 26.5061C37.1223 26.5831 37.247 26.6436 37.3827 26.6876C37.5183 26.728 37.6613 26.7481 37.8117 26.7481C38.1893 26.7481 38.4863 26.6491 38.7027 26.4511C38.8127 26.3741 38.9172 26.3283 39.0162 26.3136C39.1152 26.299 39.2087 26.3063 39.2967 26.3356C39.359 26.3576 39.414 26.3925 39.4617 26.4401C39.513 26.4841 39.5552 26.5336 39.5882 26.5886C39.6248 26.6473 39.6505 26.7115 39.6652 26.7811C39.6835 26.8471 39.6872 26.915 39.6762 26.9846C39.6688 27.0543 39.6468 27.124 39.6102 27.1936C39.5772 27.2596 39.5258 27.3201 39.4562 27.3751C39.3755 27.4485 39.2838 27.52 39.1812 27.5896C39.0785 27.6556 38.9593 27.7143 38.8237 27.7656C38.6917 27.817 38.5413 27.8573 38.3727 27.8866C38.2077 27.9196 38.0207 27.9361 37.8117 27.9361C37.4487 27.9361 37.1077 27.8683 36.7887 27.7326C36.4697 27.5933 36.191 27.4045 35.9527 27.1661C35.7143 26.9278 35.5255 26.651 35.3862 26.3356C35.2468 26.0166 35.1772 25.6756 35.1772 25.3126C35.1772 24.9496 35.2468 24.6086 35.3862 24.2896C35.5255 23.9706 35.7143 23.6938 35.9527 23.4591C36.191 23.2208 36.4697 23.0338 36.7887 22.8981C37.1077 22.7588 37.4487 22.6891 37.8117 22.6891C38.171 22.6891 38.5083 22.757 38.8237 22.8926C39.1427 23.0283 39.4213 23.2135 39.6597 23.4481C39.9017 23.6791 40.0923 23.9523 40.2317 24.2676C40.371 24.583 40.4443 24.9203 40.4517 25.2796C40.4517 25.4483 40.3967 25.5858 40.2867 25.6921C40.1803 25.7948 40.0392 25.8461 39.8632 25.8461H36.5082ZM39.2252 24.8561C39.1848 24.7058 39.1207 24.5701 39.0327 24.4491C38.9447 24.3281 38.8402 24.2255 38.7192 24.1411C38.5982 24.0568 38.4625 23.9926 38.3122 23.9486C38.1655 23.9046 38.0078 23.8826 37.8392 23.8826C37.6705 23.8826 37.511 23.9065 37.3607 23.9541C37.214 24.0018 37.0802 24.0678 36.9592 24.1521C36.8418 24.2365 36.741 24.3391 36.6567 24.4601C36.5723 24.5775 36.51 24.7095 36.4697 24.8561H39.2252ZM46.0835 27.2926C46.0835 27.377 46.067 27.4558 46.034 27.5291C46.0047 27.5988 45.9643 27.6611 45.913 27.7161C45.8617 27.7675 45.7993 27.8078 45.726 27.8371C45.6563 27.8665 45.5812 27.8811 45.5005 27.8811C45.4162 27.8811 45.3373 27.8665 45.264 27.8371C45.1907 27.8078 45.1265 27.7675 45.0715 27.7161C45.0165 27.6611 44.9725 27.5988 44.9395 27.5291C44.9065 27.4558 44.89 27.377 44.89 27.2926V25.2466C44.89 25.2173 44.8918 25.1953 44.8955 25.1806C44.8882 25.001 44.8497 24.8323 44.78 24.6746C44.714 24.517 44.6242 24.3795 44.5105 24.2621C44.4005 24.1448 44.2685 24.0531 44.1145 23.9871C43.9605 23.9175 43.7937 23.8826 43.614 23.8826C43.427 23.8826 43.2547 23.9175 43.097 23.9871C42.9393 24.0531 42.8037 24.1466 42.69 24.2676C42.58 24.3886 42.492 24.5316 42.426 24.6966C42.3637 24.858 42.3325 25.0321 42.3325 25.2191V27.2926C42.3325 27.377 42.3178 27.4558 42.2885 27.5291C42.2592 27.5988 42.217 27.6611 42.162 27.7161C42.1107 27.7675 42.0483 27.8078 41.975 27.8371C41.9053 27.8665 41.8302 27.8811 41.7495 27.8811C41.6688 27.8811 41.5918 27.8665 41.5185 27.8371C41.4452 27.8078 41.3792 27.7675 41.3205 27.7161C41.2655 27.6611 41.2215 27.5988 41.1885 27.5291C41.1555 27.4558 41.139 27.377 41.139 27.2926V25.2466V25.2246V25.2191C41.139 24.8671 41.2013 24.539 41.326 24.2346C41.4543 23.9266 41.6285 23.659 41.8485 23.4316C42.0722 23.2006 42.3343 23.0191 42.635 22.8871C42.9393 22.7551 43.2657 22.6891 43.614 22.6891C43.966 22.6891 44.2923 22.7551 44.593 22.8871C44.8937 23.0191 45.154 23.2006 45.374 23.4316C45.594 23.659 45.7663 23.9266 45.891 24.2346C46.0193 24.539 46.0835 24.8671 46.0835 25.2191V25.2246V25.2466V27.2926ZM48.269 22.7551H50.183C50.2637 22.7551 50.3407 22.7716 50.414 22.8046C50.4873 22.8376 50.5515 22.8816 50.6065 22.9366C50.6615 22.9916 50.7055 23.0558 50.7385 23.1291C50.7715 23.2025 50.788 23.2795 50.788 23.3601C50.788 23.4408 50.7715 23.5178 50.7385 23.5911C50.7092 23.6608 50.667 23.7231 50.612 23.7781C50.557 23.8295 50.4928 23.8716 50.4195 23.9046C50.3462 23.934 50.2673 23.9486 50.183 23.9486H48.269V25.3401C48.269 25.5345 48.3057 25.7178 48.379 25.8901C48.456 26.0588 48.5587 26.2073 48.687 26.3356C48.8153 26.4603 48.9657 26.5593 49.138 26.6326C49.314 26.706 49.501 26.7426 49.699 26.7426C49.875 26.7426 50.0382 26.7188 50.1885 26.6711C50.3388 26.6198 50.4782 26.5373 50.6065 26.4236C50.6468 26.387 50.6853 26.3558 50.722 26.3301C50.7623 26.3008 50.8082 26.277 50.8595 26.2586C50.9512 26.2256 51.0465 26.2165 51.1455 26.2311C51.2445 26.2421 51.338 26.288 51.426 26.3686C51.492 26.431 51.5378 26.5025 51.5635 26.5831C51.5928 26.6601 51.6038 26.7426 51.5965 26.8306C51.5928 26.915 51.5727 26.9975 51.536 27.0781C51.4993 27.1588 51.448 27.2303 51.382 27.2926C51.162 27.5053 50.909 27.6666 50.623 27.7766C50.337 27.883 50.029 27.9361 49.699 27.9361C49.336 27.9361 48.995 27.8683 48.676 27.7326C48.3607 27.597 48.0838 27.4118 47.8455 27.1771C47.6072 26.9425 47.4183 26.6675 47.279 26.3521C47.1433 26.0331 47.0755 25.6921 47.0755 25.3291V21.7981C47.0755 21.7138 47.0902 21.635 47.1195 21.5616C47.1525 21.4883 47.1965 21.4241 47.2515 21.3691C47.3065 21.3141 47.3707 21.272 47.444 21.2426C47.5173 21.2096 47.5962 21.1931 47.6805 21.1931C47.7612 21.1931 47.8363 21.2096 47.906 21.2426C47.9793 21.272 48.0417 21.3141 48.093 21.3691C48.148 21.4241 48.1902 21.4883 48.2195 21.5616C48.2525 21.635 48.269 21.7138 48.269 21.7981V22.7551ZM52.319 21.5396C52.319 21.448 52.3355 21.3618 52.3685 21.2811C52.4051 21.2005 52.4528 21.1308 52.5115 21.0721C52.5701 21.0135 52.6398 20.9676 52.7205 20.9346C52.8011 20.898 52.8855 20.8796 52.9735 20.8796C53.0615 20.8796 53.1458 20.898 53.2265 20.9346C53.3071 20.9676 53.3768 21.0135 53.4355 21.0721C53.4978 21.1308 53.5455 21.2005 53.5785 21.2811C53.6151 21.3618 53.6335 21.448 53.6335 21.5396C53.6335 21.6276 53.6151 21.712 53.5785 21.7926C53.5455 21.8696 53.4978 21.9374 53.4355 21.9961C53.3768 22.0548 53.3071 22.1025 53.2265 22.1391C53.1458 22.1721 53.0615 22.1886 52.9735 22.1886C52.8855 22.1886 52.8011 22.1721 52.7205 22.1391C52.6398 22.1025 52.5701 22.0548 52.5115 21.9961C52.4528 21.9374 52.4051 21.8696 52.3685 21.7926C52.3355 21.712 52.319 21.6276 52.319 21.5396ZM53.573 27.2761C53.573 27.3605 53.5565 27.4393 53.5235 27.5126C53.4941 27.5823 53.452 27.6446 53.397 27.6996C53.3456 27.751 53.2833 27.7931 53.21 27.8261C53.1366 27.8555 53.0596 27.8701 52.979 27.8701C52.8983 27.8701 52.8213 27.8555 52.748 27.8261C52.6746 27.7931 52.6105 27.751 52.5555 27.6996C52.5005 27.6446 52.4565 27.5823 52.4235 27.5126C52.3941 27.4393 52.3795 27.3605 52.3795 27.2761V23.3491C52.3795 23.2685 52.396 23.1933 52.429 23.1236C52.462 23.0503 52.506 22.9861 52.561 22.9311C52.616 22.8761 52.6801 22.834 52.7535 22.8046C52.8268 22.7716 52.9056 22.7551 52.99 22.7551C53.0706 22.7551 53.1458 22.7716 53.2155 22.8046C53.2888 22.834 53.3511 22.8761 53.4025 22.9311C53.4575 22.9861 53.4996 23.0503 53.529 23.1236C53.5583 23.1933 53.573 23.2685 53.573 23.3491V27.2761ZM59.6294 27.2926C59.6294 27.377 59.6129 27.4558 59.5799 27.5291C59.5506 27.5988 59.5102 27.6611 59.4589 27.7161C59.4076 27.7675 59.3452 27.8078 59.2719 27.8371C59.2022 27.8665 59.1271 27.8811 59.0464 27.8811C58.9621 27.8811 58.8832 27.8665 58.8099 27.8371C58.7366 27.8078 58.6724 27.7675 58.6174 27.7161C58.5624 27.6611 58.5184 27.5988 58.4854 27.5291C58.4524 27.4558 58.4359 27.377 58.4359 27.2926V25.2466C58.4359 25.2173 58.4377 25.1953 58.4414 25.1806C58.4341 25.001 58.3956 24.8323 58.3259 24.6746C58.2599 24.517 58.1701 24.3795 58.0564 24.2621C57.9464 24.1448 57.8144 24.0531 57.6604 23.9871C57.5064 23.9175 57.3396 23.8826 57.1599 23.8826C56.9729 23.8826 56.8006 23.9175 56.6429 23.9871C56.4852 24.0531 56.3496 24.1466 56.2359 24.2676C56.1259 24.3886 56.0379 24.5316 55.9719 24.6966C55.9096 24.858 55.8784 25.0321 55.8784 25.2191V27.2926C55.8784 27.377 55.8637 27.4558 55.8344 27.5291C55.8051 27.5988 55.7629 27.6611 55.7079 27.7161C55.6566 27.7675 55.5942 27.8078 55.5209 27.8371C55.4512 27.8665 55.3761 27.8811 55.2954 27.8811C55.2147 27.8811 55.1377 27.8665 55.0644 27.8371C54.9911 27.8078 54.9251 27.7675 54.8664 27.7161C54.8114 27.6611 54.7674 27.5988 54.7344 27.5291C54.7014 27.4558 54.6849 27.377 54.6849 27.2926V25.2466V25.2246V25.2191C54.6849 24.8671 54.7472 24.539 54.8719 24.2346C55.0002 23.9266 55.1744 23.659 55.3944 23.4316C55.6181 23.2006 55.8802 23.0191 56.1809 22.8871C56.4852 22.7551 56.8116 22.6891 57.1599 22.6891C57.5119 22.6891 57.8382 22.7551 58.1389 22.8871C58.4396 23.0191 58.6999 23.2006 58.9199 23.4316C59.1399 23.659 59.3122 23.9266 59.4369 24.2346C59.5652 24.539 59.6294 24.8671 59.6294 25.2191V25.2246V25.2466V27.2926ZM60.3354 25.3126C60.3354 24.9496 60.4051 24.6105 60.5444 24.2951C60.6837 23.9761 60.8726 23.6975 61.1109 23.4591C61.3492 23.2208 61.6261 23.0338 61.9414 22.8981C62.2604 22.7588 62.5996 22.6891 62.9589 22.6891C63.3219 22.6891 63.6611 22.7588 63.9764 22.8981C64.2954 23.0338 64.5722 23.2208 64.8069 23.4591C65.0452 23.6975 65.2322 23.9761 65.3679 24.2951C65.5072 24.6105 65.5769 24.9496 65.5769 25.3126C65.5769 25.5803 65.5384 25.8351 65.4614 26.0771C65.3881 26.3155 65.2836 26.5391 65.1479 26.7481C65.2726 26.8838 65.3752 27.0543 65.4559 27.2596C65.5366 27.465 65.5769 27.718 65.5769 28.0186C65.5769 28.3486 65.5219 28.6346 65.4119 28.8766C65.3056 29.1186 65.1626 29.3185 64.9829 29.4761C64.8069 29.6375 64.6016 29.7566 64.3669 29.8336C64.1359 29.9106 63.8957 29.9491 63.6464 29.9491C63.4924 29.9491 63.3402 29.94 63.1899 29.9216C63.0432 29.907 62.8966 29.9106 62.7499 29.9326C62.6729 29.9473 62.5922 29.973 62.5079 30.0096C62.4272 30.05 62.3466 30.1013 62.2659 30.1636C62.1816 30.237 62.0881 30.2791 61.9854 30.2901C61.8864 30.3011 61.7911 30.2901 61.6994 30.2571C61.6077 30.2241 61.5252 30.171 61.4519 30.0976C61.3786 30.028 61.3272 29.9473 61.2979 29.8556C61.2686 29.764 61.2649 29.6668 61.2869 29.5641C61.3089 29.4615 61.3712 29.3588 61.4739 29.2561C61.5509 29.1828 61.6517 29.1113 61.7764 29.0416C61.9011 28.972 62.0294 28.917 62.1614 28.8766C62.3521 28.8216 62.5262 28.7868 62.6839 28.7721C62.8452 28.7611 63.0267 28.7556 63.2284 28.7556C63.4411 28.7556 63.6207 28.741 63.7674 28.7116C63.9141 28.686 64.0332 28.6438 64.1249 28.5851C64.2166 28.5265 64.2826 28.4513 64.3229 28.3596C64.3632 28.268 64.3834 28.158 64.3834 28.0296C64.3834 27.9086 64.3687 27.8151 64.3394 27.7491C64.3137 27.6831 64.2862 27.63 64.2569 27.5896C64.0662 27.6996 63.8609 27.784 63.6409 27.8426C63.4246 27.9013 63.1972 27.9306 62.9589 27.9306C62.5996 27.9306 62.2604 27.8628 61.9414 27.7271C61.6261 27.5878 61.3492 27.4008 61.1109 27.1661C60.8726 26.9278 60.6837 26.6491 60.5444 26.3301C60.4051 26.0111 60.3354 25.672 60.3354 25.3126ZM61.5289 25.3126C61.5289 25.507 61.5656 25.6903 61.6389 25.8626C61.7159 26.035 61.8186 26.1853 61.9469 26.3136C62.0789 26.442 62.2311 26.5446 62.4034 26.6216C62.5757 26.695 62.7609 26.7316 62.9589 26.7316C63.1569 26.7316 63.3421 26.695 63.5144 26.6216C63.6904 26.5446 63.8426 26.442 63.9709 26.3136C64.0992 26.1853 64.2001 26.035 64.2734 25.8626C64.3467 25.6903 64.3834 25.507 64.3834 25.3126C64.3834 25.1146 64.3467 24.9295 64.2734 24.7571C64.2001 24.5811 64.0992 24.429 63.9709 24.3006C63.8426 24.1723 63.6904 24.0715 63.5144 23.9981C63.3421 23.9211 63.1569 23.8826 62.9589 23.8826C62.7646 23.8826 62.5794 23.9211 62.4034 23.9981C62.2311 24.0715 62.0789 24.1723 61.9469 24.3006C61.8186 24.429 61.7159 24.5811 61.6389 24.7571C61.5656 24.9295 61.5289 25.1146 61.5289 25.3126Z" fill="#D55FAD"/>
</svg>
