<svg width="300" height="150" viewBox="0 0 219 103" fill="none" xmlns="http://www.w3.org/2000/svg">
<path d="M218.461 66.8011L218.461 74.9281L218.273 74.928L218.273 83.055L218.461 83.0551L218.461 91.1821L218.274 91.182L218.274 95.2455C218.274 96.237 218.076 97.1819 217.719 98.0435L217.892 98.1154C217.132 99.9478 215.667 101.413 213.834 102.173L213.763 102C212.901 102.357 211.956 102.554 210.965 102.554H207.332L207.332 102.742H200.068L200.067 102.554H192.803L192.803 102.742H185.538L185.538 102.554H178.273L178.273 102.742H171.008L171.008 102.554H163.743L163.744 102.742H156.479L156.479 102.554H149.214L149.214 102.742H141.949L141.949 102.554H134.684L134.684 102.742H127.42L127.419 102.554H120.155L120.155 102.742H112.89L112.89 102.554H105.625L105.625 102.742H98.3603L98.3602 102.554H91.0954L91.0955 102.742H83.8307L83.8306 102.554H76.5658L76.5659 102.742H69.3011L69.301 102.554H62.0362L62.0363 102.742H54.7715L54.7714 102.554H47.5066L47.5067 102.742H40.2419L40.2418 102.554H32.977L32.9771 102.742H25.7123L25.7122 102.554H18.4475L18.4475 102.742H11.1827L11.1827 102.554H7.55025C6.55839 102.554 5.61301 102.357 4.75089 102L4.67915 102.173C2.84548 101.413 1.37831 99.9462 0.617174 98.1128L0.790338 98.041C0.432482 97.1791 0.234648 96.2338 0.234162 95.2419L0.232371 91.586H0.0448711L0.0412888 84.2742H0.228789L0.225206 76.9624H0.0377065L0.0341242 69.6505H0.221624L0.218042 62.3387H0.0305418L0.0269595 55.0269H0.21446L0.210877 47.7151H0.0233772L0.0197949 40.4032H0.207295L0.203713 33.0914H0.0162126L0.0126303 25.7796H0.20013L0.196548 18.4677H0.00904797L0.00546566 11.1559H0.192966L0.191175 7.5C0.190689 6.50814 0.387596 5.56285 0.744606 4.70091L0.571372 4.62909C1.33071 2.79579 2.79644 1.32934 4.62937 0.569104L4.70128 0.742302C5.56304 0.38487 6.50823 0.1875 7.50009 0.1875H11.1325L11.1324 0H18.3971L18.3972 0.1875H25.6619L25.6618 0H32.9265L32.9265 0.1875H40.1912L40.1912 0H47.4558L47.4559 0.1875H54.7206L54.7205 0H61.9852L61.9853 0.1875H69.25L69.2499 0H76.5146L76.5147 0.1875H83.7794L83.7793 0H91.044L91.0441 0.1875H98.3088L98.3087 0H105.573L105.574 0.1875H112.838L112.838 0H120.103L120.103 0.1875H127.368L127.368 0H134.632L134.632 0.1875H141.897L141.897 0H149.162L149.162 0.1875H156.426L156.426 0H163.691L163.691 0.1875H170.956L170.956 0H178.22L178.221 0.1875H185.485L185.485 0H192.75L192.75 0.1875H200.015L200.015 0H207.279L207.279 0.1875H210.912C211.903 0.1875 212.849 0.38484 213.711 0.742223L213.783 0.569021C215.616 1.32915 217.083 2.79539 217.844 4.6285L217.671 4.70033C218.029 5.56218 218.227 6.50738 218.228 7.49916L218.23 11.7396L218.418 11.7396L218.423 20.2205L218.235 20.2205L218.241 28.7014L218.428 28.7013L218.433 37.1822L218.246 37.1822L218.248 41.4195C217.141 41.8802 216.163 42.471 215.315 43.1622L215.433 43.3076C213.61 44.7933 212.4 46.7475 211.799 48.8597L211.618 48.8082C210.993 51.0059 211.016 53.3711 211.683 55.566L211.863 55.5115C212.5 57.6102 213.736 59.5505 215.566 61.027L215.448 61.1729C216.272 61.838 217.214 62.4099 218.273 62.8621L218.273 66.801L218.461 66.8011ZM218.428 41.4756C218.417 41.5102 218.397 41.5409 218.369 41.5638L218.253 41.4227L218.428 41.4756Z" fill="url(#paint0_linear_5650_4123)" stroke="#845DC2" stroke-width="0.375" stroke-dasharray="7.5 7.5"/>
<defs>
<linearGradient id="paint0_linear_5650_4123" x1="218.25" y1="51.3995" x2="-169.125" y2="51.2126" gradientUnits="userSpaceOnUse">
<stop stop-color="#D55FAD" stop-opacity="0.5"/>
<stop offset="1" stop-color="white" stop-opacity="0.5"/>
</linearGradient>
</defs>
</svg>
