<svg width="22" height="24" viewBox="0 0 22 24" fill="none" xmlns="http://www.w3.org/2000/svg">
<path d="M17.6667 19.7339H16.8222C15.9333 19.7339 15.0889 20.0786 14.4667 20.7012L12.5667 22.5802C11.7 23.4362 10.2889 23.4362 9.42221 22.5802L7.52222 20.7012C6.89999 20.0786 6.04444 19.7339 5.16667 19.7339H4.33333C2.48889 19.7339 1 18.2553 1 16.4319V4.30204C1 2.47867 2.48889 1 4.33333 1H17.6667C19.5111 1 21 2.47867 21 4.30204V16.4319C21 18.2441 19.5111 19.7339 17.6667 19.7339Z" fill="#F8931B" stroke="#F8931B" stroke-width="1.5" stroke-miterlimit="10" stroke-linecap="round" stroke-linejoin="round"/>
<path d="M11.3111 15.3984C11.1444 15.4539 10.8667 15.4539 10.6889 15.3984C9.24445 14.898 6 12.8412 6 9.33899C6 7.79358 7.24444 6.54834 8.77778 6.54834C9.68889 6.54834 10.4889 6.98194 11 7.66015C11.5111 6.98194 12.3111 6.54834 13.2222 6.54834C14.7556 6.54834 16 7.79358 16 9.33899C15.9889 12.8412 12.7556 14.898 11.3111 15.3984Z" fill="white"/>
</svg>
