<svg width="22" height="22" viewBox="0 0 22 22" fill="none" xmlns="http://www.w3.org/2000/svg">
<path d="M21.9785 7.30896L21.6719 4.42494C21.2279 1.28063 19.7795 0 16.6819 0H14.1869H12.6223H9.40837H7.84372H5.30644C2.19827 0 0.760483 1.28063 0.305887 4.45617L0.0204435 7.31937C-0.0852764 8.43341 0.221311 9.51622 0.887347 10.3596C1.69082 11.3903 2.92774 11.9734 4.3021 11.9734C5.63417 11.9734 6.91338 11.3174 7.71685 10.2659C8.43575 11.3174 9.6621 11.9734 11.0259 11.9734C12.3897 11.9734 13.5843 11.3487 14.3138 10.3075C15.1278 11.3383 16.3859 11.9734 17.6968 11.9734C19.1029 11.9734 20.3715 11.3591 21.1644 10.2763C21.7987 9.44334 22.0842 8.39176 21.9785 7.30896Z" fill="#845DC2"/>
<path d="M10.338 16.0445C8.99538 16.1799 7.98047 17.3043 7.98047 18.637V21.4898C7.98047 21.7709 8.21305 22 8.4985 22H13.5413C13.8268 22 14.0594 21.7709 14.0594 21.4898V19.0014C14.0699 16.8254 12.7696 15.7946 10.338 16.0445Z" fill="#845DC2"/>
<path d="M20.931 13.6913V16.794C20.931 19.6676 18.5629 21.9998 15.6451 21.9998C15.3596 21.9998 15.127 21.7707 15.127 21.4896V19.0012C15.127 17.6685 14.7147 16.6274 13.9112 15.9194C13.2029 15.2843 12.2409 14.9719 11.0462 14.9719C10.7819 14.9719 10.5176 14.9823 10.2322 15.0136C8.35038 15.201 6.92316 16.7627 6.92316 18.6368V21.4896C6.92316 21.7707 6.69058 21.9998 6.40514 21.9998C3.48727 21.9998 1.11914 19.6676 1.11914 16.794V13.7121C1.11914 12.9833 1.84861 12.494 2.53579 12.7334C2.82123 12.8271 3.10667 12.9 3.40269 12.9417C3.52955 12.9625 3.66699 12.9833 3.79385 12.9833C3.96301 13.0041 4.13216 13.0145 4.30131 13.0145C5.52766 13.0145 6.73287 12.5668 7.68435 11.7964C8.59354 12.5668 9.7776 13.0145 11.0251 13.0145C12.2832 13.0145 13.4461 12.5877 14.3553 11.8172C15.3067 12.5773 16.4908 13.0145 17.696 13.0145C17.8863 13.0145 18.0766 13.0041 18.2563 12.9833C18.3832 12.9729 18.4995 12.9625 18.6158 12.9417C18.9435 12.9 19.2395 12.8063 19.5355 12.7126C20.2227 12.4836 20.931 12.9833 20.931 13.6913Z" fill="#845DC2"/>
</svg>
