<svg width="12" height="12" viewBox="0 0 9 9" fill="none" xmlns="http://www.w3.org/2000/svg">
<g id="Group 44">
<path id="Vector" d="M5.67286 1.03642L6.02702 1.75796C6.20409 2.1124 6.64678 2.44152 7.03888 2.51747L7.51951 2.59343C8.96142 2.83394 9.30292 3.89725 8.26576 4.94791L7.82307 5.39096C7.53216 5.69477 7.36773 6.27706 7.45627 6.68214L7.51951 6.94796C7.91161 8.69484 6.98829 9.36575 5.47049 8.45433L5.14164 8.26445C4.74954 8.0366 4.11713 8.0366 3.72503 8.26445L3.39618 8.45433C1.86574 9.37841 0.942411 8.69484 1.34716 6.94796L1.4104 6.68214C1.49894 6.27706 1.33451 5.69477 1.0436 5.39096L0.600909 4.93526C-0.43625 3.8846 -0.0947475 2.82128 1.34716 2.58077L1.82779 2.50482C2.20724 2.44152 2.66258 2.09974 2.83965 1.7453L3.1938 1.02377C3.87681 -0.343358 4.98986 -0.343358 5.67286 1.03642Z" fill="#F8931B"/>
</g>
</svg>
