<svg width="13" height="16" viewBox="0 0 13 16" fill="none" xmlns="http://www.w3.org/2000/svg">
<g id="Group 990">
<g id="Layer 30">
<path id="Vector" d="M12.265 13.8668H0.531719C0.440805 13.8665 0.35147 13.843 0.272199 13.7985C0.192928 13.7539 0.126352 13.6899 0.078793 13.6124C0.0312344 13.5349 0.00427237 13.4466 0.000467375 13.3558C-0.00333762 13.2649 0.0161408 13.1746 0.0570528 13.0934C0.715115 11.7671 1.05997 10.3074 1.06505 8.82676V6.93343C1.06505 5.51894 1.62696 4.16239 2.62715 3.16219C3.62734 2.162 4.9839 1.6001 6.39838 1.6001C7.81287 1.6001 9.16943 2.162 10.1696 3.16219C11.1698 4.16239 11.7317 5.51894 11.7317 6.93343V8.8161C11.7368 10.2967 12.0817 11.7564 12.7397 13.0828C12.7831 13.1643 12.8046 13.2558 12.8021 13.3481C12.7996 13.4405 12.7731 13.5306 12.7252 13.6097C12.6773 13.6887 12.6098 13.754 12.5291 13.799C12.4484 13.8441 12.3574 13.8674 12.265 13.8668ZM1.35839 12.8001H11.4384C10.9298 11.5333 10.6673 10.1812 10.665 8.8161V6.93343C10.665 5.80184 10.2155 4.7166 9.41537 3.91644C8.61522 3.11629 7.52997 2.66676 6.39838 2.66676C5.26679 2.66676 4.18155 3.11629 3.3814 3.91644C2.58124 4.7166 2.13172 5.80184 2.13172 6.93343V8.8161C2.12944 10.1812 1.86698 11.5333 1.35839 12.8001Z" fill="#101820"/>
<path id="Vector_2" d="M6.3986 15.9998C5.69136 15.9998 5.01308 15.7189 4.51298 15.2188C4.01289 14.7187 3.73193 14.0404 3.73193 13.3331C3.73193 13.1917 3.78812 13.056 3.88814 12.956C3.98816 12.856 4.12382 12.7998 4.26527 12.7998C4.40672 12.7998 4.54237 12.856 4.64239 12.956C4.74241 13.056 4.7986 13.1917 4.7986 13.3331C4.79897 13.7573 4.96779 14.164 5.26793 14.4638C5.57315 14.7534 5.97785 14.9149 6.3986 14.9149C6.81934 14.9149 7.22405 14.7534 7.52927 14.4638C7.57899 14.4141 7.63803 14.3746 7.703 14.3477C7.76797 14.3208 7.83761 14.307 7.90793 14.307C7.97826 14.307 8.04789 14.3208 8.11286 14.3477C8.17784 14.3746 8.23687 14.4141 8.2866 14.4638C8.33633 14.5135 8.37577 14.5726 8.40268 14.6375C8.4296 14.7025 8.44345 14.7721 8.44345 14.8425C8.44345 14.9128 8.4296 14.9824 8.40268 15.0474C8.37577 15.1124 8.33633 15.1714 8.2866 15.2211C8.0385 15.4686 7.74405 15.6648 7.4201 15.7984C7.09614 15.932 6.74903 16.0004 6.3986 15.9998Z" fill="#101820"/>
<path id="Vector_3" d="M6.39857 2.66667C6.25712 2.66667 6.12146 2.61048 6.02144 2.51046C5.92142 2.41044 5.86523 2.27478 5.86523 2.13333V0.533333C5.86523 0.391884 5.92142 0.256229 6.02144 0.15621C6.12146 0.0561903 6.25712 0 6.39857 0C6.54002 0 6.67567 0.0561903 6.77569 0.15621C6.87571 0.256229 6.9319 0.391884 6.9319 0.533333V2.13333C6.9319 2.27478 6.87571 2.41044 6.77569 2.51046C6.67567 2.61048 6.54002 2.66667 6.39857 2.66667Z" fill="#101820"/>
</g>
</g>
</svg>
