<svg width="16" height="17" viewBox="0 0 16 17" fill="none" xmlns="http://www.w3.org/2000/svg">
<g id="Layer_1">
<path id="Vector" d="M15.7172 4.24787H15.7029C15.4289 4.24962 15.3864 4.01162 15.3817 3.90112V2.17287C15.3817 1.98837 15.2322 1.83887 15.0482 1.83887H10.1069C8.8672 1.83887 8.4047 2.29837 8.28995 2.44262L8.25845 2.48637L8.2582 2.48712L8.16045 2.62112C8.02919 2.80137 7.91469 2.72462 7.85969 2.66562L7.6727 2.43237L7.58019 2.32087C7.4247 2.15762 7.01944 1.83887 6.2162 1.83887H0.951945C0.767445 1.83887 0.617945 1.98837 0.617945 2.17287V3.87912C0.617945 4.17787 0.455695 4.23787 0.356195 4.24787H0.282195C0.201195 4.25287 0.0126953 4.29987 0.0126953 4.64662V12.7789C0.0126953 12.9784 0.174445 13.1399 0.373945 13.1399H5.17845C6.7112 13.1399 7.3792 13.7179 7.57945 13.9396L7.6937 14.0811C7.6937 14.0811 8.00045 14.4279 8.32345 14.0811L8.39045 14.0026L8.39145 14.0021L8.47695 13.9021C8.47945 13.8991 8.49995 13.8761 8.5297 13.8456C8.78545 13.5969 9.4247 13.1399 10.6747 13.1399H15.6259C15.8257 13.1399 15.9872 12.9784 15.9872 12.7789V4.56787C15.9872 4.27387 15.7744 4.24937 15.7172 4.24787ZM14.6377 11.5029C14.6377 11.6631 14.5039 11.7924 14.3374 11.7924H10.2637C8.81395 11.7924 8.2877 12.4474 8.2877 12.4474L8.22095 12.5369L8.1897 12.5801C8.05145 12.7679 7.84795 12.5816 7.84695 12.5806L7.7532 12.4634C7.6837 12.3799 7.1512 11.7921 5.86245 11.7921H1.66245C1.4967 11.7921 1.3627 11.6626 1.3627 11.5026V2.83712C1.3627 2.67712 1.4967 2.54762 1.66245 2.54762H4.9232C7.3487 2.54762 7.57845 3.92537 7.5942 4.32562V10.3521C7.5942 10.7901 7.80295 10.8724 7.9207 10.8844H8.09595C8.21595 10.8724 8.4067 10.8011 8.4067 10.4594V4.24787H8.4047C8.4227 3.74662 8.6182 2.54737 10.0769 2.54737H14.3374C14.5039 2.54737 14.6377 2.67687 14.6377 2.83687V11.5029Z" fill="#241F20"/>
</g>
</svg>
