<svg width="14" height="14" viewBox="0 0 14 14" fill="none" xmlns="http://www.w3.org/2000/svg">
<g id="Group 991">
<path id="Vector" d="M1.97054 5.95701L5.47021 6.8877L5.69986 6.02414L2.20019 5.09345L1.97054 5.95701Z" fill="black"/>
<path id="Vector_2" d="M1.97005 8.55466L5.46973 9.48535L5.69931 8.62205L2.19963 7.69136L1.97005 8.55466Z" fill="black"/>
<path id="Vector_3" d="M8.29983 3.86976L8.5293 4.7334L12.0298 3.8033L11.8004 2.93966L8.29983 3.86976Z" fill="black"/>
<path id="Vector_4" d="M8.30087 6.17225L8.53027 7.03564L12.0308 6.10555L11.8014 5.24216L8.30087 6.17225Z" fill="black"/>
<path id="Vector_5" d="M8.30087 8.47255L8.53027 9.33594L12.0311 8.40577L11.8017 7.54238L8.30087 8.47255Z" fill="black"/>
<path id="Vector_6" d="M10.5049 10.1862L10.7344 11.0498L12.0301 10.7055L11.8006 9.84189L10.5049 10.1862Z" fill="black"/>
<path id="Vector_7" d="M8.30136 10.7738L8.53076 11.6372L9.82597 11.2931L9.59657 10.4297L8.30136 10.7738Z" fill="black"/>
<path id="Vector_8" d="M0.329836 12.1219L6.88292 13.9093C6.92129 13.9196 6.96097 13.9251 7.00039 13.9251C7.03929 13.9251 7.07898 13.9196 7.11735 13.9093L13.6704 12.1219C13.8649 12.0691 14 11.8925 14 11.6909V0.446535C14 0.307505 13.9348 0.176096 13.8244 0.0914694C13.7141 0.00736793 13.5692 -0.0207539 13.4357 0.0155149L7.00013 1.77061L0.564268 0.0155149C0.431809 -0.0207539 0.286471 0.00736793 0.175562 0.0914694C0.0651789 0.176096 0 0.307505 0 0.446535V11.6909C0.000262817 11.8925 0.135088 12.0691 0.329836 12.1219ZM7.44692 2.57483L13.1062 1.0313V11.3498L7.44692 12.893V2.57483ZM0.893841 1.03157L6.55308 2.57483V12.893L0.893841 11.3498V1.03157Z" fill="black"/>
</g>
</svg>
