<svg width="16" height="16" viewBox="0 0 16 16" fill="none" xmlns="http://www.w3.org/2000/svg">
<path id="Vector" d="M6.19 10.31H9.81C9.94261 10.31 10.0698 10.2573 10.1636 10.1636C10.2573 10.0698 10.31 9.94261 10.31 9.81V6.19C10.31 6.05739 10.2573 5.93021 10.1636 5.83645C10.0698 5.74268 9.94261 5.69 9.81 5.69H6.19C6.05739 5.69 5.93021 5.74268 5.83645 5.83645C5.74268 5.93021 5.69 6.05739 5.69 6.19V9.81C5.69 9.94261 5.74268 10.0698 5.83645 10.1636C5.93021 10.2573 6.05739 10.31 6.19 10.31ZM6.69 6.69H9.31V9.31H6.69V6.69ZM15.5 8.5C15.6326 8.5 15.7598 8.44732 15.8536 8.35355C15.9473 8.25979 16 8.13261 16 8C16 7.86739 15.9473 7.74021 15.8536 7.64645C15.7598 7.55268 15.6326 7.5 15.5 7.5H13.71V4.9575H15.5C15.6326 4.9575 15.7598 4.90482 15.8536 4.81105C15.9473 4.71729 16 4.59011 16 4.4575C16 4.32489 15.9473 4.19771 15.8536 4.10395C15.7598 4.01018 15.6326 3.9575 15.5 3.9575H13.71V2.79C13.71 2.65739 13.6573 2.53021 13.5636 2.43645C13.4698 2.34268 13.3426 2.29 13.21 2.29H12.0425V0.5C12.0425 0.367392 11.9898 0.240215 11.8961 0.146447C11.8023 0.0526785 11.6751 0 11.5425 0C11.4099 0 11.2827 0.0526785 11.1889 0.146447C11.0952 0.240215 11.0425 0.367392 11.0425 0.5V2.29H8.5V0.5C8.5 0.367392 8.44732 0.240215 8.35355 0.146447C8.25979 0.0526785 8.13261 0 8 0C7.86739 0 7.74021 0.0526785 7.64645 0.146447C7.55268 0.240215 7.5 0.367392 7.5 0.5V2.29H4.9575V0.5C4.9575 0.367392 4.90482 0.240215 4.81105 0.146447C4.71729 0.0526785 4.59011 0 4.4575 0C4.32489 0 4.19771 0.0526785 4.10395 0.146447C4.01018 0.240215 3.9575 0.367392 3.9575 0.5V2.29H2.79C2.65739 2.29 2.53021 2.34268 2.43645 2.43645C2.34268 2.53021 2.29 2.65739 2.29 2.79V3.9575H0.5C0.367392 3.9575 0.240215 4.01018 0.146447 4.10395C0.0526785 4.19771 0 4.32489 0 4.4575C0 4.59011 0.0526785 4.71729 0.146447 4.81105C0.240215 4.90482 0.367392 4.9575 0.5 4.9575H2.29V7.5H0.5C0.367392 7.5 0.240215 7.55268 0.146447 7.64645C0.0526785 7.74021 0 7.86739 0 8C0 8.13261 0.0526785 8.25979 0.146447 8.35355C0.240215 8.44732 0.367392 8.5 0.5 8.5H2.29V11.0425H0.5C0.367392 11.0425 0.240215 11.0952 0.146447 11.1889C0.0526785 11.2827 0 11.4099 0 11.5425C0 11.6751 0.0526785 11.8023 0.146447 11.8961C0.240215 11.9898 0.367392 12.0425 0.5 12.0425H2.29V13.21C2.29 13.3426 2.34268 13.4698 2.43645 13.5636C2.53021 13.6573 2.65739 13.71 2.79 13.71H3.9575V15.5C3.9575 15.6326 4.01018 15.7598 4.10395 15.8536C4.19771 15.9473 4.32489 16 4.4575 16C4.59011 16 4.71729 15.9473 4.81105 15.8536C4.90482 15.7598 4.9575 15.6326 4.9575 15.5V13.71H7.5V15.5C7.5 15.6326 7.55268 15.7598 7.64645 15.8536C7.74021 15.9473 7.86739 16 8 16C8.13261 16 8.25979 15.9473 8.35355 15.8536C8.44732 15.7598 8.5 15.6326 8.5 15.5V13.71H11.0425V15.5C11.0425 15.6326 11.0952 15.7598 11.1889 15.8536C11.2827 15.9473 11.4099 16 11.5425 16C11.6751 16 11.8023 15.9473 11.8961 15.8536C11.9898 15.7598 12.0425 15.6326 12.0425 15.5V13.71H13.21C13.3426 13.71 13.4698 13.6573 13.5636 13.5636C13.6573 13.4698 13.71 13.3426 13.71 13.21V12.0425H15.5C15.6326 12.0425 15.7598 11.9898 15.8536 11.8961C15.9473 11.8023 16 11.6751 16 11.5425C16 11.4099 15.9473 11.2827 15.8536 11.1889C15.7598 11.0952 15.6326 11.0425 15.5 11.0425H13.71V8.5H15.5ZM12.71 12.71H3.29V3.29H12.71V12.71Z" fill="black"/>
</svg>
