<svg width="14" height="16" viewBox="0 0 14 16" fill="none" xmlns="http://www.w3.org/2000/svg">
<g id="Group 989">
<path id="Vector" d="M12.1778 7.98611V3.61876C12.1778 3.50759 12.1336 3.40098 12.055 3.32236L9.85538 1.12277C9.77679 1.04416 9.67018 1 9.55903 1H1.41917C1.18767 1 1 1.18767 1 1.41917V14.5531C1 14.7846 1.18767 14.9722 1.41917 14.9722H5.89028" stroke="#292D32" stroke-linecap="round" stroke-linejoin="round"/>
<path id="Vector_2" d="M3.79443 6.58888H9.38332M3.79443 3.79443H6.58888M3.79443 9.38332H5.89027" stroke="#292D32" stroke-linecap="round" stroke-linejoin="round"/>
<path id="Vector_3" d="M9.38379 3.37528V1.24699C9.38379 1.11058 9.49438 1 9.63082 1C9.69628 1 9.75908 1.02602 9.80547 1.07234L12.1059 3.3728C12.1522 3.41912 12.1782 3.48194 12.1782 3.54745C12.1782 3.68386 12.0676 3.79444 11.9312 3.79444H9.80296C9.57144 3.79444 9.38379 3.60678 9.38379 3.37528Z" stroke="#292D32" stroke-linecap="round" stroke-linejoin="round"/>
<path id="Vector_4" d="M10.7484 11.4368L11.447 10.7382C11.7529 10.4323 12.2489 10.4323 12.5548 10.7382C12.8608 11.0442 12.8608 11.5402 12.5548 11.8461L11.8562 12.5447M10.7484 11.4368L8.65876 13.5265C8.55404 13.6312 8.4853 13.7665 8.46252 13.9128L8.29297 15.0001L9.38022 14.8306C9.52658 14.8078 9.66183 14.739 9.76655 14.6343L11.8562 12.5447M10.7484 11.4368L11.8562 12.5447" stroke="#292D32" stroke-linecap="round" stroke-linejoin="round"/>
</g>
</svg>
