<svg width="14" height="17" viewBox="0 0 12 17" fill="none" xmlns="http://www.w3.org/2000/svg">
<g id="Group 987">
<path id="Vector" fill-rule="evenodd" clip-rule="evenodd" d="M1.71731 3.45849C1.25997 3.45849 0.823782 3.63914 0.502501 3.96042C0.180649 4.28227 0 4.71846 0 5.17351V10.9251C0 11.3802 0.180649 11.8164 0.502501 12.1382C0.823782 12.4595 1.25997 12.6401 1.71502 12.6401H1.71845V14.3226C1.71845 15.2693 2.48621 16.0376 3.43347 16.0376H8.00686C8.95412 16.0376 9.72188 15.2693 9.72188 14.3226V12.6401C10.1752 12.6396 10.6103 12.4589 10.931 12.1382C11.2528 11.8164 11.4335 11.3802 11.4335 10.9251V5.17351C11.4335 4.71846 11.2528 4.28227 10.931 3.96042C10.6103 3.63971 10.1746 3.45906 9.72074 3.45849V1.75262C9.72074 0.805355 8.95298 0.0375977 8.00572 0.0375977H3.43233C2.48507 0.0375977 1.71731 0.805355 1.71731 1.75262V3.45849ZM2.8618 12.6401V14.3226C2.8618 14.6381 3.11791 14.8943 3.43347 14.8943H8.00686C8.32242 14.8943 8.57853 14.6381 8.57853 14.3226V12.6401H2.8618ZM10.2901 5.17294V10.9251C10.2901 11.0772 10.2301 11.2224 10.1226 11.3299C10.0151 11.4368 9.86994 11.4968 9.71845 11.4968H1.71502C1.56353 11.4968 1.41775 11.4368 1.31085 11.3299C1.20337 11.2224 1.14335 11.0772 1.14335 10.9257C1.14335 10.9251 1.14335 5.17351 1.14335 5.17351C1.14335 5.02145 1.20337 4.87624 1.31085 4.76877C1.41775 4.66187 1.56353 4.60184 1.71502 4.60184H9.71845C9.86994 4.60184 10.0151 4.66187 10.1226 4.76877C10.2301 4.87624 10.2901 5.02145 10.2901 5.17294ZM8.57739 3.45849V1.75262C8.57739 1.43705 8.32128 1.18094 8.00572 1.18094H3.43233C3.11676 1.18094 2.86065 1.43705 2.86065 1.75262V3.45849H8.57739Z" fill="black"/>
<path id="Vector_2" fill-rule="evenodd" clip-rule="evenodd" d="M2.85829 8.62729H4.5756C4.76768 8.62729 4.94719 8.53067 5.05295 8.37061L5.1467 8.22769L5.14842 9.75977C5.14842 9.99073 5.28791 10.1988 5.50057 10.2874C5.7138 10.376 5.95962 10.3274 6.12312 10.1645L7.6695 8.62729H8.57732C8.89288 8.62729 9.14899 8.37118 9.14899 8.05561C9.14899 7.74005 8.89288 7.48394 8.57732 7.48394H7.43397C7.28305 7.48394 7.13784 7.54339 7.03094 7.6503L6.29062 8.38661C6.29062 8.38604 6.28834 6.32516 6.28834 6.32516C6.28776 6.07305 6.12255 5.85067 5.88073 5.77807C5.63892 5.70546 5.37823 5.80036 5.23932 6.01074L4.26804 7.48394H2.85829C2.54273 7.48394 2.28662 7.74005 2.28662 8.05561C2.28662 8.37118 2.54273 8.62729 2.85829 8.62729Z" fill="black"/>
</g>
</svg>
