<svg width="18" height="17" viewBox="0 0 18 17" fill="none" xmlns="http://www.w3.org/2000/svg">
<g id="Group 986">
<path id="Vector" d="M2.26444 16.0377H15.7356C15.9543 16.0377 16.1694 15.9809 16.3597 15.8729C16.5499 15.7649 16.7089 15.6093 16.8211 15.4215C16.9333 15.2336 16.9948 15.0199 16.9997 14.8012C17.0046 14.5824 16.9526 14.3662 16.8489 14.1735L10.1137 1.66514C9.63589 0.778287 8.36411 0.778287 7.8863 1.66514L1.15114 14.1735C1.04742 14.3662 0.995449 14.5824 1.00031 14.8012C1.00518 15.0199 1.0667 15.2336 1.17889 15.4215C1.29107 15.6093 1.45006 15.7649 1.64034 15.8729C1.83061 15.9809 2.04565 16.0377 2.26444 16.0377Z" stroke="black" stroke-linecap="round" stroke-linejoin="round"/>
<path id="Vector_2" d="M8.7731 6.12286L8.99995 10.9444L9.22641 6.12483C9.22781 6.09402 9.22291 6.06325 9.21201 6.0344C9.20111 6.00554 9.18445 5.97921 9.16303 5.95702C9.14161 5.93483 9.11589 5.91723 9.08745 5.90531C9.059 5.8934 9.02842 5.88741 8.99758 5.88771C8.96728 5.888 8.93734 5.89437 8.90954 5.90642C8.88174 5.91848 8.85664 5.93599 8.83571 5.9579C8.81479 5.97982 8.79847 6.00571 8.78771 6.03404C8.77696 6.06237 8.77199 6.09257 8.7731 6.12286Z" stroke="black" stroke-linecap="round" stroke-linejoin="round"/>
<path id="Vector_3" d="M8.99989 14.1004C8.84356 14.1004 8.69074 14.054 8.56076 13.9672C8.43078 13.8803 8.32947 13.7569 8.26964 13.6124C8.20982 13.468 8.19416 13.3091 8.22466 13.1557C8.25516 13.0024 8.33044 12.8616 8.44098 12.751C8.55152 12.6405 8.69236 12.5652 8.84569 12.5347C8.99902 12.5042 9.15794 12.5199 9.30237 12.5797C9.4468 12.6395 9.57025 12.7408 9.6571 12.8708C9.74395 13.0008 9.79031 13.1536 9.79031 13.31C9.79031 13.5196 9.70704 13.7206 9.5588 13.8689C9.41057 14.0171 9.20952 14.1004 8.99989 14.1004Z" fill="black"/>
</g>
</svg>
