<svg width="20" height="18" viewBox="0 0 20 18" fill="none" xmlns="http://www.w3.org/2000/svg">
<g id="Group 787">
<g id="Group 786">
<path id="Vector" d="M14.5 16.65H5.5C2.8 16.65 1 15.3 1 12.15V5.85001C1 2.70001 2.8 1.35001 5.5 1.35001H14.5C17.2 1.35001 19 2.70001 19 5.85001V12.15C19 15.3 17.2 16.65 14.5 16.65Z" stroke="#292D32" stroke-width="1.5" stroke-miterlimit="10" stroke-linecap="round" stroke-linejoin="round"/>
<path id="Vector_2" d="M9.9998 11.7C11.491 11.7 12.6998 10.4912 12.6998 9.00002C12.6998 7.50885 11.491 6.30002 9.9998 6.30002C8.50864 6.30002 7.2998 7.50885 7.2998 9.00002C7.2998 10.4912 8.50864 11.7 9.9998 11.7Z" stroke="#292D32" stroke-width="1.5" stroke-miterlimit="10" stroke-linecap="round" stroke-linejoin="round"/>
<path id="Vector_3" d="M1 6.30002H1.9C4.6 6.30002 5.5 5.40002 5.5 2.70002V1.80002" stroke="#292D32" stroke-width="1.5" stroke-miterlimit="10" stroke-linecap="round" stroke-linejoin="round"/>
<path id="Vector_4" d="M19 6.30002H18.1C15.4 6.30002 14.5 5.40002 14.5 2.70002V1.80002" stroke="#292D32" stroke-width="1.5" stroke-miterlimit="10" stroke-linecap="round" stroke-linejoin="round"/>
<path id="Vector_5" d="M1 11.7H1.9C4.6 11.7 5.5 12.6 5.5 15.3V16.2" stroke="#292D32" stroke-width="1.5" stroke-miterlimit="10" stroke-linecap="round" stroke-linejoin="round"/>
<path id="Vector_6" d="M19 11.7H18.1C15.4 11.7 14.5 12.6 14.5 15.3V16.2" stroke="#292D32" stroke-width="1.5" stroke-miterlimit="10" stroke-linecap="round" stroke-linejoin="round"/>
</g>
</g>
</svg>
