<svg width="20" height="19" viewBox="0 0 20 19" fill="none" xmlns="http://www.w3.org/2000/svg">
<g id="Group 781">
<path id="Vector" d="M1 9.70795H16.2995" stroke="#292D32" stroke-width="1.5" stroke-miterlimit="10" stroke-linecap="round" stroke-linejoin="round"/>
<path id="Vector_2" d="M16.2995 7.61088V14.0457C16.2725 16.6106 15.5705 17.2585 12.8976 17.2585H4.40191C1.684 17.2585 1 16.5836 1 13.9017V7.61088C1 5.18097 1.56698 4.39799 3.69991 4.272C3.9159 4.263 4.14992 4.254 4.40191 4.254H12.8976C15.6155 4.254 16.2995 4.92897 16.2995 7.61088Z" stroke="#292D32" stroke-width="1.5" stroke-linecap="round" stroke-linejoin="round"/>
<path id="Vector_3" d="M18.9997 4.41596V10.7067C18.9997 13.1367 18.4327 13.9196 16.2998 14.0456V7.61085C16.2998 4.92895 15.6158 4.25397 12.8978 4.25397H4.4022C4.15021 4.25397 3.91619 4.26297 3.7002 4.27197C3.72719 1.70706 4.4292 1.05908 7.1021 1.05908H15.5978C18.3157 1.05908 18.9997 1.73406 18.9997 4.41596Z" stroke="#292D32" stroke-width="1.5" stroke-linecap="round" stroke-linejoin="round"/>
<path id="Vector_4" d="M3.9248 14.3877H5.47272" stroke="#292D32" stroke-width="1.5" stroke-miterlimit="10" stroke-linecap="round" stroke-linejoin="round"/>
<path id="Vector_5" d="M7.39893 14.3877H10.4948" stroke="#292D32" stroke-width="1.5" stroke-miterlimit="10" stroke-linecap="round" stroke-linejoin="round"/>
</g>
</svg>
