<svg width="20" height="18" viewBox="0 0 20 18" fill="none" xmlns="http://www.w3.org/2000/svg">
<g id="Group 785">
<path id="Vector" d="M10.8999 6.30003H5.5" stroke="#292D32" stroke-width="1.5" stroke-linecap="round" stroke-linejoin="round"/>
<path id="Vector_2" d="M18.9999 8.07293V9.92696C18.9999 10.422 18.604 10.8269 18.1 10.8449H16.336C15.364 10.8449 14.473 10.1339 14.392 9.16194C14.338 8.59494 14.554 8.06394 14.932 7.69495C15.265 7.35295 15.724 7.15498 16.228 7.15498H18.1C18.604 7.17298 18.9999 7.57793 18.9999 8.07293Z" stroke="#292D32" stroke-width="1.5" stroke-linecap="round" stroke-linejoin="round"/>
<path id="Vector_3" d="M14.9318 7.695C14.5538 8.064 14.3379 8.595 14.3919 9.16199C14.4729 10.134 15.3638 10.845 16.3358 10.845H18.0998V12.15C18.0998 14.8499 16.2998 16.6499 13.5999 16.6499H5.49995C2.79998 16.6499 1 14.8499 1 12.15V5.85003C1 3.40206 2.47599 1.69208 4.77096 1.40408C5.00496 1.36808 5.24795 1.35008 5.49995 1.35008H13.5999C13.8339 1.35008 14.0589 1.35907 14.2749 1.39507C16.5968 1.66507 18.0998 3.38406 18.0998 5.85003V7.15503H16.2278C15.7238 7.15503 15.2648 7.35301 14.9318 7.695Z" stroke="#292D32" stroke-width="1.5" stroke-linecap="round" stroke-linejoin="round"/>
</g>
</svg>
