<svg width="170" height="117" viewBox="0 0 150 97" fill="none" xmlns="http://www.w3.org/2000/svg">
<g style="mix-blend-mode:lighten">
<path d="M0 48.5L74.9971 0L150 48.5L74.9971 97L0 48.5Z" fill="white"/>
<path d="M74.9971 2.6626L4.11523 48.4998L74.9971 94.337L145.885 48.4998L74.9971 2.6626Z" fill="url(#paint0_linear_2904_2710)"/>
<path d="M50.9863 73.0171L74.9971 88.5454L99.0136 73.0171H50.9863Z" stroke="white" stroke-width="0.92" stroke-miterlimit="10"/>
<path d="M79.3247 78.9248L76.0222 78.9133L75.0091 75.7559L73.9788 78.9075L70.6763 78.9018L73.3435 80.8572L72.3132 84.0146L74.9919 82.0707L77.6591 84.0261L76.646 80.8687L79.3247 78.9248Z" fill="white"/>
<path d="M86.9607 16.3625L77.8257 16.3338L75.0211 7.59766L72.1765 16.3223L63.0415 16.2992L70.4193 21.7111L67.5689 30.4357L74.9753 25.0583L82.3531 30.476L79.5543 21.7341L86.9607 16.3625Z" stroke="white" stroke-width="0.46" stroke-miterlimit="10"/>
<path d="M74.9808 22.8091L71.2604 25.5121L72.6914 21.1297L68.9824 18.4036L73.5728 18.4151L75.0037 14.0327L76.4117 18.4266L81.0078 18.4381L77.2817 21.1412L78.6898 25.5351L74.9808 22.8091Z" fill="white"/>
<path d="M16.5528 68.2843L5.23145 30.3032H144.769L133.447 68.2843H16.5528Z" fill="white"/>
<path d="M8.2251 32.5405L18.2072 66.0471H131.793L141.775 32.5405H8.2251Z" fill="url(#paint1_linear_2904_2710)"/>
<path opacity="0.7" d="M141.775 32.5405H125.572L81.0073 65.9148L131.793 66.0471L141.775 32.5405Z" fill="url(#paint2_linear_2904_2710)"/>
<path d="M137.019 48.5L81.0073 65.9147L131.793 66.047L137.019 48.5Z" fill="url(#paint3_linear_2904_2710)"/>
<path opacity="0.7" d="M8.2251 32.5405H24.4231L68.9932 65.9148L18.2072 66.0471L8.2251 32.5405Z" fill="url(#paint4_linear_2904_2710)"/>
<path d="M12.981 48.5L68.9927 65.9147L18.2067 66.047L12.981 48.5Z" fill="url(#paint5_linear_2904_2710)"/>
<path d="M47.4035 37.7508L43.1279 30.3088L47.4035 22.8667H102.597L106.872 30.3088L102.597 37.7508H47.4035Z" fill="url(#paint6_linear_2904_2710)"/>
<path d="M101.309 25.104H48.686L45.6982 30.3089L48.686 35.508H101.309L104.303 30.3089L101.309 25.104Z" fill="url(#paint7_linear_2904_2710)"/>
<path d="M50.6489 31.2179H49.5957V28.8081H50.5287C50.6889 28.8081 50.832 28.8254 50.9465 28.8656C51.0667 28.9059 51.1525 28.9576 51.2155 29.0267C51.3242 29.1532 51.3758 29.2912 51.3758 29.4465C51.3758 29.6363 51.3128 29.7743 51.1926 29.8663C51.1525 29.9008 51.1239 29.9181 51.1067 29.9238C51.0896 29.9296 51.061 29.9468 51.0209 29.9641C51.1697 29.9986 51.2899 30.0619 51.3758 30.1654C51.4616 30.2689 51.5074 30.3954 51.5074 30.545C51.5074 30.7118 51.4502 30.8613 51.3357 30.9878C51.204 31.1373 50.9694 31.2121 50.6431 31.2121L50.6489 31.2179ZM50.1337 29.7801H50.3856C50.5344 29.7801 50.6431 29.7628 50.7175 29.7341C50.7919 29.6995 50.8263 29.6305 50.8263 29.527C50.8263 29.4235 50.7919 29.3487 50.729 29.3142C50.6603 29.2797 50.5516 29.2625 50.3913 29.2625H50.1337V29.7858V29.7801ZM50.1337 30.7578H50.5C50.6546 30.7578 50.7691 30.7405 50.8435 30.7003C50.9179 30.66 50.9579 30.5852 50.9579 30.476C50.9579 30.3667 50.9179 30.2919 50.8377 30.2574C50.7576 30.2229 50.626 30.2057 50.4485 30.2057H50.1337V30.7635V30.7578Z" fill="white"/>
<path d="M53.6478 31.2179L53.4245 30.6945H52.4172L52.1939 31.2179H51.6216L52.6576 28.8081H53.1784L54.2144 31.2179H53.642H53.6478ZM52.9209 29.5213L52.6175 30.2229H53.2185L52.9209 29.5213Z" fill="white"/>
<path d="M55.5935 30.7404C55.8567 30.7404 56.0743 30.6369 56.2402 30.4241L56.5837 30.7807C56.3089 31.0912 55.9884 31.2408 55.6221 31.2408C55.2558 31.2408 54.9467 31.1257 54.7063 30.8899C54.4659 30.6541 54.3457 30.3608 54.3457 30.0043C54.3457 29.6477 54.4659 29.3486 54.712 29.1071C54.9581 28.8655 55.2558 28.7505 55.6049 28.7505C55.9998 28.7505 56.3261 28.9 56.5951 29.2048L56.2631 29.5844C56.0914 29.3716 55.8854 29.2681 55.6335 29.2681C55.4332 29.2681 55.2615 29.3371 55.1184 29.4694C54.9753 29.6017 54.9009 29.78 54.9009 30.0043C54.9009 30.2285 54.9696 30.4068 55.1012 30.5449C55.2386 30.6829 55.3989 30.7462 55.5935 30.7462V30.7404Z" fill="white"/>
<path d="M58.4958 28.8027H59.0339V31.2125H58.4958V30.2635H57.54V31.2125H57.002V28.8027H57.54V29.8092H58.4958V28.8027Z" fill="white"/>
<path d="M61.3353 31.2179L61.112 30.6945H60.1047L59.8814 31.2179H59.3091L60.3451 28.8081H60.8659L61.9019 31.2179H61.3295H61.3353ZM60.6084 29.5213L60.305 30.2229H60.906L60.6084 29.5213Z" fill="white"/>
<path d="M63.0462 31.2182H62.5082V30.2635L61.6782 28.8027H62.2563L62.7772 29.6999L63.298 28.8027H63.8761L63.0462 30.2635V31.2182Z" fill="white"/>
<path d="M66.6981 29.0209C66.8641 29.1647 66.9499 29.3832 66.9499 29.6823C66.9499 29.9814 66.8641 30.1999 66.6924 30.3379C66.5207 30.476 66.2574 30.545 65.9025 30.545H65.582V31.2179H65.0439V28.8081H65.8911C66.2574 28.8081 66.5264 28.8771 66.6981 29.0267V29.0209ZM66.3032 29.9699C66.3661 29.8951 66.4005 29.7916 66.4005 29.6535C66.4005 29.5155 66.3604 29.4177 66.2745 29.3545C66.1887 29.2912 66.0628 29.2682 65.8853 29.2682H65.582V30.0791H65.9426C66.12 30.0791 66.2402 30.0446 66.3089 29.9699H66.3032Z" fill="white"/>
<path d="M68.9358 31.2179L68.7126 30.6945H67.7053L67.482 31.2179H66.9097L67.9456 28.8081H68.4665L69.5025 31.2179H68.9301H68.9358ZM68.2089 29.5213L67.9056 30.2229H68.5066L68.2089 29.5213Z" fill="white"/>
<path d="M71.735 29.6075C71.735 29.9929 71.5804 30.2459 71.2771 30.3552L71.8838 31.2179H71.2256L70.6933 30.4472H70.3212V31.2179H69.7832V28.8081H70.6933C71.0653 28.8081 71.3343 28.8714 71.4946 28.9979C71.6548 29.1244 71.735 29.3257 71.735 29.6075ZM71.0882 29.8951C71.1569 29.8376 71.1855 29.7398 71.1855 29.6133C71.1855 29.4868 71.1512 29.3947 71.0825 29.343C71.0138 29.297 70.8936 29.2682 70.7219 29.2682H70.3212V29.9814H70.7104C70.8936 29.9814 71.0195 29.9526 71.0825 29.8893L71.0882 29.8951Z" fill="white"/>
<path d="M74.0131 28.8027V29.2801H72.8168V29.7747H73.8929V30.2348H72.8168V30.7351H74.0474V31.2125H72.2788V28.8027H74.0074H74.0131Z" fill="white"/>
<path d="M76.2106 28.8027H76.7486V31.2125H76.2106L75.0658 29.6999V31.2125H74.5278V28.8027H75.0315L76.2106 30.3556V28.8027Z" fill="white"/>
<path d="M78.351 29.2686V31.2125H77.813V29.2686H77.1318V28.8027H79.0264V29.2686H78.3453H78.351Z" fill="white"/>
<path d="M79.4214 28.8027H79.9594V31.2125H79.4214V28.8027Z" fill="white"/>
<path d="M82.2262 28.8027H82.7642V31.2125H82.2262L81.0815 29.6999V31.2125H80.5435V28.8027H81.0471L82.2262 30.3556V28.8027Z" fill="white"/>
<path d="M84.9162 29.9866H85.4543V30.8436C85.2139 31.1081 84.8876 31.2461 84.4641 31.2461C84.1092 31.2461 83.8173 31.1311 83.5769 30.8953C83.3365 30.6595 83.2163 30.3662 83.2163 30.0096C83.2163 29.653 83.3365 29.354 83.5826 29.1124C83.8287 28.8709 84.1207 28.7559 84.4641 28.7559C84.8075 28.7559 85.1051 28.8709 85.3627 29.0952L85.0822 29.4978C84.9735 29.4057 84.8762 29.3367 84.7846 29.3022C84.693 29.2677 84.5957 29.2505 84.4927 29.2505C84.2866 29.2505 84.1149 29.3195 83.9776 29.4575C83.8402 29.5955 83.7658 29.7796 83.7658 30.0096C83.7658 30.2397 83.8345 30.418 83.9661 30.556C84.0978 30.694 84.258 30.763 84.4469 30.763C84.6358 30.763 84.7846 30.7285 84.9105 30.6538V29.9924L84.9162 29.9866Z" fill="white"/>
<path d="M86.8394 31.2179V28.8081H87.3774V30.7405H88.4019V31.2179H86.8451H86.8394Z" fill="white"/>
<path d="M90.5204 28.8027V29.2801H89.3242V29.7747H90.4002V30.2348H89.3242V30.7351H90.5547V31.2125H88.7861V28.8027H90.5147H90.5204Z" fill="white"/>
<path d="M92.7464 31.2179L92.5232 30.6945H91.5158L91.2926 31.2179H90.7202L91.7562 28.8081H92.2771L93.313 31.2179H92.7407H92.7464ZM92.0195 29.5213L91.7161 30.2229H92.3171L92.0195 29.5213Z" fill="white"/>
<path d="M95.1506 29.9866H95.6886V30.8436C95.4482 31.1081 95.122 31.2461 94.6984 31.2461C94.3436 31.2461 94.0517 31.1311 93.8113 30.8953C93.5709 30.6595 93.4507 30.3662 93.4507 30.0096C93.4507 29.653 93.5709 29.354 93.817 29.1124C94.0631 28.8709 94.355 28.7559 94.6984 28.7559C95.0419 28.7559 95.3395 28.8709 95.5971 29.0952L95.3166 29.4978C95.2078 29.4057 95.1105 29.3367 95.019 29.3022C94.9274 29.2677 94.8301 29.2505 94.7271 29.2505C94.521 29.2505 94.3493 29.3195 94.2119 29.4575C94.0746 29.5955 94.0002 29.7796 94.0002 30.0096C94.0002 30.2397 94.0688 30.418 94.2005 30.556C94.3321 30.694 94.4924 30.763 94.6813 30.763C94.8701 30.763 95.019 30.7285 95.1449 30.6538V29.9924L95.1506 29.9866Z" fill="white"/>
<path d="M96.8041 30.5914C96.8957 30.7006 97.0159 30.7581 97.1647 30.7581C97.3135 30.7581 97.4337 30.7006 97.5253 30.5914C97.6111 30.4821 97.6569 30.3268 97.6569 30.137V28.8027H98.1949V30.1543C98.1949 30.5051 98.0976 30.7754 97.9087 30.9594C97.7141 31.1492 97.468 31.2412 97.1704 31.2412C96.8728 31.2412 96.6209 31.1492 96.432 30.9594C96.2374 30.7697 96.1401 30.5051 96.1401 30.1543V28.8027H96.6782V30.137C96.6782 30.3326 96.7239 30.4821 96.8098 30.5914H96.8041Z" fill="white"/>
<path d="M100.479 28.8027V29.2801H99.2827V29.7747H100.359V30.2348H99.2827V30.7351H100.513V31.2125H98.7446V28.8027H100.473H100.479Z" fill="white"/>
<path d="M53.4193 58.639H46.4136V42.5586H52.6409C53.7227 42.5586 54.6614 42.6909 55.4455 42.9497C56.2297 43.2085 56.8249 43.5651 57.2198 44.0079C57.9353 44.8361 58.2959 45.7735 58.2959 46.8145C58.2959 48.074 57.8895 49.0057 57.0825 49.6211C56.8077 49.8339 56.6189 49.9719 56.5101 50.0237C56.4014 50.0754 56.2125 50.1675 55.9377 50.2882C56.9279 50.501 57.7178 50.9496 58.3073 51.634C58.8969 52.3184 59.1888 53.1638 59.1888 54.176C59.1888 55.2975 58.8053 56.2867 58.0441 57.1437C57.1569 58.1386 55.6172 58.639 53.4193 58.639ZM49.9851 49.069H51.6793C52.6695 49.069 53.4079 48.9597 53.8887 48.7469C54.3695 48.5341 54.6099 48.0683 54.6099 47.3551C54.6099 46.642 54.3866 46.1704 53.9459 45.9403C53.5052 45.7103 52.7554 45.5952 51.7022 45.5952H49.9851V49.069ZM49.9851 55.6024H52.4349C53.4594 55.6024 54.2264 55.4758 54.7358 55.2228C55.2452 54.9697 55.5028 54.4694 55.5028 53.7275C55.5028 52.9855 55.2337 52.4909 54.69 52.2551C54.1462 52.0193 53.282 51.8986 52.0914 51.8986H49.9851V55.6024Z" fill="white"/>
<path d="M63.2293 58.2367C62.8401 57.8456 62.6455 57.3682 62.6455 56.7988C62.6455 56.2295 62.8401 55.7521 63.2293 55.361C63.6185 54.97 64.0936 54.7744 64.6602 54.7744C65.2269 54.7744 65.7019 54.97 66.0912 55.361C66.4804 55.7521 66.675 56.2295 66.675 56.7988C66.675 57.3682 66.4804 57.8456 66.0912 58.2367C65.7019 58.6277 65.2269 58.8233 64.6602 58.8233C64.0936 58.8233 63.6185 58.6277 63.2293 58.2367Z" fill="white"/>
<path d="M82.0946 43.9964C83.2164 44.9569 83.7773 46.4292 83.7773 48.4133C83.7773 50.3975 83.1992 51.8526 82.0488 52.7728C80.8983 53.6929 79.1354 54.153 76.7716 54.153H74.6424V58.639H71.0708V42.5586H76.7258C79.1812 42.5586 80.9727 43.0359 82.0946 43.9964ZM79.4731 50.3227C79.9024 49.8396 80.1142 49.1322 80.1142 48.2063C80.1142 47.2803 79.8337 46.6189 79.2785 46.2279C78.7233 45.8368 77.8533 45.6412 76.68 45.6412H74.6424V51.0474H77.0463C78.2368 51.0474 79.0439 50.8058 79.4731 50.3227Z" fill="white"/>
<path d="M86.4158 58.2367C86.0266 57.8456 85.832 57.3682 85.832 56.7988C85.832 56.2295 86.0266 55.7521 86.4158 55.361C86.805 54.97 87.2801 54.7744 87.8468 54.7744C88.4134 54.7744 88.8885 54.97 89.2777 55.361C89.6669 55.7521 89.8615 56.2295 89.8615 56.7988C89.8615 57.3682 89.6669 57.8456 89.2777 58.2367C88.8885 58.6277 88.4134 58.8233 87.8468 58.8233C87.2801 58.8233 86.805 58.6277 86.4158 58.2367Z" fill="white"/>
<path d="M94.2573 58.639V42.5586H97.8289V55.4413H104.651V58.639H94.2573Z" fill="white"/>
</g>
<defs>
<linearGradient id="paint0_linear_2904_2710" x1="57.5284" y1="10.8466" x2="92.7479" y2="86.0177" gradientUnits="userSpaceOnUse">
<stop stop-color="#57348F"/>
<stop offset="0.93" stop-color="#2E105E"/>
</linearGradient>
<linearGradient id="paint1_linear_2904_2710" x1="60.7855" y1="7.90807" x2="95.9069" y2="82.861" gradientUnits="userSpaceOnUse">
<stop stop-color="#D55FAD"/>
<stop offset="1" stop-color="#481993"/>
</linearGradient>
<linearGradient id="paint2_linear_2904_2710" x1="107.565" y1="40.9776" x2="121.555" y2="70.8439" gradientUnits="userSpaceOnUse">
<stop stop-color="#522E8B"/>
<stop offset="0.04" stop-color="#522E8B" stop-opacity="0.92"/>
<stop offset="0.109375" stop-color="#522E8B" stop-opacity="0.809816"/>
<stop offset="0.21" stop-color="#522E8B" stop-opacity="0.65"/>
<stop offset="0.38" stop-color="#522E8B" stop-opacity="0.41"/>
<stop offset="0.55" stop-color="#522E8B" stop-opacity="0.23"/>
<stop offset="0.71" stop-color="#522E8B" stop-opacity="0.1"/>
<stop offset="0.86" stop-color="#522E8B" stop-opacity="0.03"/>
<stop offset="1" stop-color="#142764" stop-opacity="0"/>
<stop offset="1" stop-color="#522E8B" stop-opacity="0"/>
</linearGradient>
<linearGradient id="paint3_linear_2904_2710" x1="107.33" y1="53.5841" x2="116.52" y2="73.1964" gradientUnits="userSpaceOnUse">
<stop stop-color="#64409E"/>
<stop offset="0.93" stop-color="#240B4D"/>
</linearGradient>
<linearGradient id="paint4_linear_2904_2710" x1="42.4354" y1="40.9776" x2="28.4457" y2="70.8439" gradientUnits="userSpaceOnUse">
<stop stop-color="#522E8B"/>
<stop offset="0.04" stop-color="#522E8B" stop-opacity="0.92"/>
<stop offset="0.125" stop-color="#522E8B" stop-opacity="0.785"/>
<stop offset="0.21" stop-color="#522E8B" stop-opacity="0.65"/>
<stop offset="0.38" stop-color="#522E8B" stop-opacity="0.41"/>
<stop offset="0.55" stop-color="#522E8B" stop-opacity="0.23"/>
<stop offset="0.71" stop-color="#522E8B" stop-opacity="0.1"/>
<stop offset="0.86" stop-color="#522E8B" stop-opacity="0.03"/>
<stop offset="1" stop-color="#522E8B" stop-opacity="0"/>
</linearGradient>
<linearGradient id="paint5_linear_2904_2710" x1="42.6696" y1="53.5841" x2="33.4796" y2="73.1964" gradientUnits="userSpaceOnUse">
<stop stop-color="#7650B1"/>
<stop offset="0.93" stop-color="#2F0E64"/>
</linearGradient>
<linearGradient id="paint6_linear_2904_2710" x1="43.1279" y1="30.3088" x2="106.872" y2="30.3088" gradientUnits="userSpaceOnUse">
<stop stop-color="#D55FAD"/>
<stop offset="1" stop-color="#845DC2"/>
</linearGradient>
<linearGradient id="paint7_linear_2904_2710" x1="68.3181" y1="15.9078" x2="81.7887" y2="44.6603" gradientUnits="userSpaceOnUse">
<stop stop-color="#522E8B"/>
<stop offset="0.93" stop-color="#260955"/>
</linearGradient>
</defs>
</svg>
