<svg width="33" height="33" viewBox="0 0 30 31" fill="none" xmlns="http://www.w3.org/2000/svg">
<rect x="1.5" y="2.0542" width="27" height="27" rx="13.5" fill="#292D32"/>
<rect x="1.5" y="2.0542" width="27" height="27" rx="13.5" stroke="white" stroke-width="3"/>
<path d="M11.7108 20.3543H17.9988C19.6548 20.3543 20.3148 19.3403 20.3928 18.1043L20.7048 14.9483C20.7888 13.6523 19.7568 12.5543 18.4548 12.5543C18.0888 12.5543 17.7528 12.3443 17.5848 12.0203L17.1528 11.1503C16.8768 10.6043 16.1568 10.1543 15.5448 10.1543H14.1708C13.5528 10.1543 12.8328 10.6043 12.5568 11.1503L12.1248 12.0203C11.9568 12.3443 11.6208 12.5543 11.2548 12.5543C9.95279 12.5543 8.92079 13.6523 9.00479 14.9483L9.31679 18.1043C9.38879 19.3403 10.0548 20.3543 11.7108 20.3543Z" stroke="white" stroke-linecap="round" stroke-linejoin="round"/>
<path d="M14.8548 17.9542C15.9288 17.9542 16.8048 17.0782 16.8048 16.0042C16.8048 14.9302 15.9288 14.0542 14.8548 14.0542C13.7808 14.0542 12.9048 14.9302 12.9048 16.0042C12.9048 17.0782 13.7808 17.9542 14.8548 17.9542Z" stroke="white" stroke-linecap="round" stroke-linejoin="round"/>
</svg>
