<svg width="43" height="44" viewBox="0 0 43 44" fill="none" xmlns="http://www.w3.org/2000/svg">
<g id="Group 997" opacity="0.25">
<path id="Vector" d="M15.7055 41.9976H27.2543C36.8783 41.9976 40.7279 37.9978 40.7279 27.9984V15.9991C40.7279 5.99976 36.8783 2 27.2543 2H15.7055C6.08153 2 2.23193 5.99976 2.23193 15.9991V27.9984C2.23193 37.9978 6.08153 41.9976 15.7055 41.9976Z" stroke="#292D32" stroke-width="3" stroke-linecap="round" stroke-linejoin="round"/>
<path id="Vector_2" d="M15.706 18.0024C17.8321 18.0024 19.5556 16.2117 19.5556 14.0027C19.5556 11.7937 17.8321 10.0029 15.706 10.0029C13.58 10.0029 11.8564 11.7937 11.8564 14.0027C11.8564 16.2117 13.58 18.0024 15.706 18.0024Z" stroke="#292D32" stroke-width="3" stroke-linecap="round" stroke-linejoin="round"/>
<path id="Vector_3" d="M3.52441 35.8993L13.0137 29.2797C14.5343 28.2197 16.7285 28.3397 18.0951 29.5597L18.7303 30.1396C20.2316 31.4795 22.6569 31.4795 24.1582 30.1396L32.1654 23.0001C33.6667 21.6601 36.092 21.6601 37.5933 23.0001L40.7307 25.7999" stroke="#292D32" stroke-width="3" stroke-linecap="round" stroke-linejoin="round"/>
</g>
</svg>
