<svg width="90" height="23" viewBox="0 0 77 13" fill="none" xmlns="http://www.w3.org/2000/svg">
<path d="M15.9925 0.879999L12.6965 12H10.6325L8.2965 3.584L5.8165 12L3.7685 12.016L0.6165 0.879999H2.5525L4.8565 9.936L7.3525 0.879999H9.4005L11.7205 9.888L14.0405 0.879999H15.9925ZM25.5769 7.376C25.5769 7.70667 25.5555 8.00533 25.5129 8.272H18.7769C18.8302 8.976 19.0915 9.54133 19.5609 9.968C20.0302 10.3947 20.6062 10.608 21.2889 10.608C22.2702 10.608 22.9635 10.1973 23.3689 9.376H25.3369C25.0702 10.1867 24.5849 10.8533 23.8809 11.376C23.1875 11.888 22.3235 12.144 21.2889 12.144C20.4462 12.144 19.6889 11.9573 19.0169 11.584C18.3555 11.2 17.8329 10.6667 17.4489 9.984C17.0755 9.29067 16.8889 8.49067 16.8889 7.584C16.8889 6.67733 17.0702 5.88267 17.4329 5.2C17.8062 4.50667 18.3235 3.97333 18.9849 3.6C19.6569 3.22667 20.4249 3.04 21.2889 3.04C22.1209 3.04 22.8622 3.22133 23.5129 3.584C24.1635 3.94667 24.6702 4.45867 25.0329 5.12C25.3955 5.77067 25.5769 6.52267 25.5769 7.376ZM23.6729 6.8C23.6622 6.128 23.4222 5.58933 22.9529 5.184C22.4835 4.77867 21.9022 4.576 21.2089 4.576C20.5795 4.576 20.0409 4.77867 19.5929 5.184C19.1449 5.57867 18.8782 6.11733 18.7929 6.8H23.6729ZM29.1959 0.16V12H27.3719V0.16H29.1959ZM30.9826 7.584C30.9826 6.67733 31.164 5.88267 31.5266 5.2C31.9 4.50667 32.412 3.97333 33.0626 3.6C33.7133 3.22667 34.46 3.04 35.3026 3.04C36.3693 3.04 37.2493 3.296 37.9426 3.808C38.6466 4.30933 39.1213 5.02933 39.3666 5.968H37.3986C37.2386 5.53067 36.9826 5.18933 36.6306 4.944C36.2786 4.69867 35.836 4.576 35.3026 4.576C34.556 4.576 33.9586 4.84267 33.5106 5.376C33.0733 5.89867 32.8546 6.63467 32.8546 7.584C32.8546 8.53333 33.0733 9.27467 33.5106 9.808C33.9586 10.3413 34.556 10.608 35.3026 10.608C36.3586 10.608 37.0573 10.144 37.3986 9.216H39.3666C39.1106 10.112 38.6306 10.8267 37.9266 11.36C37.2226 11.8827 36.348 12.144 35.3026 12.144C34.46 12.144 33.7133 11.9573 33.0626 11.584C32.412 11.2 31.9 10.6667 31.5266 9.984C31.164 9.29067 30.9826 8.49067 30.9826 7.584ZM45.0084 12.144C44.1764 12.144 43.4244 11.9573 42.7524 11.584C42.0804 11.2 41.5524 10.6667 41.1684 9.984C40.7844 9.29067 40.5924 8.49067 40.5924 7.584C40.5924 6.688 40.7897 5.89333 41.1844 5.2C41.579 4.50667 42.1177 3.97333 42.8004 3.6C43.483 3.22667 44.2457 3.04 45.0884 3.04C45.931 3.04 46.6937 3.22667 47.3764 3.6C48.059 3.97333 48.5977 4.50667 48.9924 5.2C49.387 5.89333 49.5844 6.688 49.5844 7.584C49.5844 8.48 49.3817 9.27467 48.9764 9.968C48.571 10.6613 48.0164 11.2 47.3124 11.584C46.619 11.9573 45.851 12.144 45.0084 12.144ZM45.0084 10.56C45.4777 10.56 45.915 10.448 46.3204 10.224C46.7364 10 47.0724 9.664 47.3284 9.216C47.5844 8.768 47.7124 8.224 47.7124 7.584C47.7124 6.944 47.5897 6.40533 47.3444 5.968C47.099 5.52 46.7737 5.184 46.3684 4.96C45.963 4.736 45.5257 4.624 45.0564 4.624C44.587 4.624 44.1497 4.736 43.7444 4.96C43.3497 5.184 43.035 5.52 42.8004 5.968C42.5657 6.40533 42.4484 6.944 42.4484 7.584C42.4484 8.53333 42.6884 9.26933 43.1684 9.792C43.659 10.304 44.2724 10.56 45.0084 10.56ZM62.0595 3.04C62.7528 3.04 63.3715 3.184 63.9155 3.472C64.4702 3.76 64.9022 4.18667 65.2115 4.752C65.5315 5.31733 65.6915 6 65.6915 6.8V12H63.8835V7.072C63.8835 6.28267 63.6862 5.68 63.2915 5.264C62.8968 4.83733 62.3582 4.624 61.6755 4.624C60.9928 4.624 60.4488 4.83733 60.0435 5.264C59.6488 5.68 59.4515 6.28267 59.4515 7.072V12H57.6435V7.072C57.6435 6.28267 57.4462 5.68 57.0515 5.264C56.6568 4.83733 56.1182 4.624 55.4355 4.624C54.7528 4.624 54.2088 4.83733 53.8035 5.264C53.4088 5.68 53.2115 6.28267 53.2115 7.072V12H51.3875V3.184H53.2115V4.192C53.5102 3.82933 53.8888 3.54667 54.3475 3.344C54.8062 3.14133 55.2968 3.04 55.8195 3.04C56.5235 3.04 57.1528 3.18933 57.7075 3.488C58.2622 3.78667 58.6888 4.21867 58.9875 4.784C59.2542 4.25067 59.6702 3.82933 60.2355 3.52C60.8008 3.2 61.4088 3.04 62.0595 3.04ZM76.0925 7.376C76.0925 7.70667 76.0712 8.00533 76.0285 8.272H69.2925C69.3458 8.976 69.6072 9.54133 70.0765 9.968C70.5458 10.3947 71.1218 10.608 71.8045 10.608C72.7858 10.608 73.4792 10.1973 73.8845 9.376H75.8525C75.5858 10.1867 75.1005 10.8533 74.3965 11.376C73.7032 11.888 72.8392 12.144 71.8045 12.144C70.9618 12.144 70.2045 11.9573 69.5325 11.584C68.8712 11.2 68.3485 10.6667 67.9645 9.984C67.5912 9.29067 67.4045 8.49067 67.4045 7.584C67.4045 6.67733 67.5858 5.88267 67.9485 5.2C68.3218 4.50667 68.8392 3.97333 69.5005 3.6C70.1725 3.22667 70.9405 3.04 71.8045 3.04C72.6365 3.04 73.3778 3.22133 74.0285 3.584C74.6792 3.94667 75.1858 4.45867 75.5485 5.12C75.9112 5.77067 76.0925 6.52267 76.0925 7.376ZM74.1885 6.8C74.1778 6.128 73.9378 5.58933 73.4685 5.184C72.9992 4.77867 72.4178 4.576 71.7245 4.576C71.0952 4.576 70.5565 4.77867 70.1085 5.184C69.6605 5.57867 69.3938 6.11733 69.3085 6.8H74.1885Z" fill="url(#paint0_linear_2924_3999)"/>
<defs>
<linearGradient id="paint0_linear_2924_3999" x1="170.042" y1="6.50001" x2="-34.7783" y2="6.49999" gradientUnits="userSpaceOnUse">
<stop offset="0.45394" stop-color="#845DC2"/>
<stop offset="0.590983" stop-color="#D55FAD"/>
<stop offset="0.728026" stop-color="#FC966C"/>
<stop offset="0.831989" stop-color="#F99327"/>
<stop offset="1" stop-color="#FFC55D"/>
</linearGradient>
</defs>
</svg>
