<svg width="20" height="22" viewBox="0 0 20 22" fill="none" xmlns="http://www.w3.org/2000/svg">
<path d="M1 8.07786V13.912C1 16.0556 1 16.0556 3 17.4206L8.5 20.636C9.33 21.1213 10.68 21.1213 11.5 20.636L17 17.4206C19 16.0556 19 16.0556 19 13.9221V8.07786C19 5.94439 19 5.94439 17 4.57937L11.5 1.364C10.68 0.878665 9.33 0.878665 8.5 1.364L3 4.57937C1 5.94439 1 5.94439 1 8.07786Z" stroke="#292D32" stroke-width="1.5" stroke-linecap="round" stroke-linejoin="round"/>
<path d="M10 14.0335C11.6569 14.0335 13 12.6754 13 11.0002C13 9.32488 11.6569 7.9668 10 7.9668C8.34315 7.9668 7 9.32488 7 11.0002C7 12.6754 8.34315 14.0335 10 14.0335Z" stroke="#292D32" stroke-width="1.5" stroke-linecap="round" stroke-linejoin="round"/>
</svg>
