<svg width="24" height="24" viewBox="0 0 24 24" fill="none" xmlns="http://www.w3.org/2000/svg">
<path d="M1.7832 11.1421V16.0811C1.7832 21.0201 3.83436 23.0001 8.95087 23.0001H15.093C20.2095 23.0001 22.2606 21.0201 22.2606 16.0811V11.1421" stroke="#292D32" stroke-width="1.5" stroke-linecap="round" stroke-linejoin="round"/>
<path d="M12.0287 12C14.1141 12 15.6525 10.361 15.4474 8.348L14.6953 1H9.37363L8.61015 8.348C8.40503 10.361 9.9434 12 12.0287 12Z" stroke="#292D32" stroke-width="1.5" stroke-linecap="round" stroke-linejoin="round"/>
<path d="M19.218 12C21.5198 12 23.2063 10.196 22.9784 7.985L22.6594 4.96C22.2491 2.1 21.1096 1 18.124 1H14.6484L15.4461 8.711C15.6398 10.526 17.3377 12 19.218 12Z" stroke="#292D32" stroke-width="1.5" stroke-linecap="round" stroke-linejoin="round"/>
<path d="M4.78109 12C6.66133 12 8.35923 10.526 8.54156 8.711L8.79226 6.28L9.33923 1H5.86365C2.87807 1 1.73854 2.1 1.32831 4.96L1.02063 7.985C0.792725 10.196 2.47924 12 4.78109 12Z" stroke="#292D32" stroke-width="1.5" stroke-linecap="round" stroke-linejoin="round"/>
<path d="M12.0285 17.5C10.1255 17.5 9.17969 18.413 9.17969 20.25V23H14.8774V20.25C14.8774 18.413 13.9315 17.5 12.0285 17.5Z" stroke="#292D32" stroke-width="1.5" stroke-linecap="round" stroke-linejoin="round"/>
</svg>
