<svg width="15" height="18" viewBox="0 0 15 18" fill="none" xmlns="http://www.w3.org/2000/svg">
<path d="M0.593023 13.8963C0.268837 13.8963 0 13.6275 0 13.3033V4.60559C0 1.11862 1.05954 0.059082 4.54651 0.059082H10.0814C13.5684 0.059082 14.6279 1.11862 14.6279 4.60559V12.5126C14.6279 12.6391 14.6279 12.7577 14.62 12.8842C14.5963 13.2084 14.3037 13.4614 13.9874 13.4377C13.6633 13.414 13.4102 13.1293 13.434 12.8051C13.4419 12.7102 13.4419 12.6075 13.4419 12.5126V4.60559C13.4419 1.7828 12.9121 1.24513 10.0814 1.24513H4.54651C1.71581 1.24513 1.18605 1.7828 1.18605 4.60559V13.3033C1.18605 13.6275 0.917209 13.8963 0.593023 13.8963Z" fill="#292D32"/>
<path d="M11.2674 17.0593H3.36047C1.51023 17.0593 0 15.5491 0 13.6988V13.1849C0 11.6114 1.28093 10.3384 2.84651 10.3384H14.0349C14.3591 10.3384 14.6279 10.6072 14.6279 10.9314V13.6988C14.6279 15.5491 13.1177 17.0593 11.2674 17.0593ZM2.84651 11.5244C1.9293 11.5244 1.18605 12.2677 1.18605 13.1849V13.6988C1.18605 14.9007 2.1586 15.8733 3.36047 15.8733H11.2674C12.4693 15.8733 13.4419 14.9007 13.4419 13.6988V11.5244H2.84651Z" fill="#292D32"/>
<path d="M10.4767 5.19874H4.15113C3.82694 5.19874 3.55811 4.9299 3.55811 4.60572C3.55811 4.28153 3.82694 4.0127 4.15113 4.0127H10.4767C10.8009 4.0127 11.0697 4.28153 11.0697 4.60572C11.0697 4.9299 10.8009 5.19874 10.4767 5.19874Z" fill="#292D32"/>
<path d="M8.10462 7.96583H4.15113C3.82694 7.96583 3.55811 7.69699 3.55811 7.37281C3.55811 7.04862 3.82694 6.77979 4.15113 6.77979H8.10462C8.4288 6.77979 8.69764 7.04862 8.69764 7.37281C8.69764 7.69699 8.4288 7.96583 8.10462 7.96583Z" fill="#292D32"/>
</svg>
