<svg width="39" height="28" viewBox="0 0 33 22" fill="none" xmlns="http://www.w3.org/2000/svg">
<path d="M0.532227 11.2814L16.5316 0.614746L32.5322 11.2814L16.5316 21.9481L0.532227 11.2814Z" fill="white"/>
<path d="M16.5316 1.2002L1.41016 11.2812L16.5316 21.3623L31.6543 11.2812L16.5316 1.2002Z" fill="url(#paint0_linear_2959_1902)"/>
<path d="M11.4092 16.6733L16.5315 20.0885L21.655 16.6733H11.4092Z" stroke="white" stroke-width="0.92" stroke-miterlimit="10"/>
<path d="M17.4549 17.9728L16.7503 17.9703L16.5342 17.2759L16.3144 17.969L15.6099 17.9678L16.1789 18.3978L15.9591 19.0922L16.5305 18.6647L17.0995 19.0948L16.8834 18.4004L17.4549 17.9728Z" fill="white"/>
<path d="M19.0837 4.21331L17.1349 4.20699L16.5366 2.28564L15.9297 4.20446L13.981 4.1994L15.5549 5.38964L14.9468 7.30845L16.5268 6.1258L18.1008 7.31731L17.5037 5.3947L19.0837 4.21331Z" stroke="white" stroke-width="0.46" stroke-miterlimit="10"/>
<path d="M16.5282 5.63088L15.7345 6.22537L16.0398 5.26154L15.2485 4.66199L16.2278 4.66452L16.5331 3.70068L16.8335 4.66705L17.814 4.66958L17.0191 5.26407L17.3194 6.23043L16.5282 5.63088Z" fill="white"/>
<path d="M4.06367 15.6325L1.64844 7.2793H31.4164L29.0011 15.6325H4.06367Z" fill="white"/>
<path d="M2.28711 7.77148L4.41662 15.1406H28.6483L30.7778 7.77148H2.28711Z" fill="url(#paint1_linear_2959_1902)"/>
<path opacity="0.7" d="M30.7778 7.77148H27.321L17.814 15.1115L28.6483 15.1406L30.7778 7.77148Z" fill="url(#paint2_linear_2959_1902)"/>
<path d="M29.7631 11.2812L17.814 15.1113L28.6483 15.1404L29.7631 11.2812Z" fill="url(#paint3_linear_2959_1902)"/>
<path opacity="0.7" d="M2.28711 7.77148H5.74267L15.251 15.1115L4.41662 15.1406L2.28711 7.77148Z" fill="url(#paint4_linear_2959_1902)"/>
<path d="M3.30176 11.2812L15.2509 15.1113L4.41657 15.1404L3.30176 11.2812Z" fill="url(#paint5_linear_2959_1902)"/>
<path d="M10.645 8.91753L9.73291 7.28079L10.645 5.64404H22.4196L23.3317 7.28079L22.4196 8.91753H10.645Z" fill="url(#paint6_linear_2959_1902)"/>
<path d="M22.1449 6.13623H10.9186L10.2812 7.28094L10.9186 8.42438H22.1449L22.7836 7.28094L22.1449 6.13623Z" fill="url(#paint7_linear_2959_1902)"/>
<path d="M11.3375 7.48066H11.1128V6.95068H11.3118C11.346 6.95068 11.3765 6.95448 11.401 6.96333C11.4266 6.97219 11.4449 6.98357 11.4583 6.99875C11.4815 7.02658 11.4925 7.05693 11.4925 7.09108C11.4925 7.13283 11.4791 7.16318 11.4535 7.18342C11.4449 7.19101 11.4388 7.1948 11.4351 7.19607C11.4315 7.19733 11.4254 7.20113 11.4168 7.20492C11.4486 7.21251 11.4742 7.22643 11.4925 7.24919C11.5109 7.27196 11.5206 7.29979 11.5206 7.33267C11.5206 7.36936 11.5084 7.40224 11.484 7.43007C11.4559 7.46296 11.4058 7.4794 11.3362 7.4794L11.3375 7.48066ZM11.2276 7.16445H11.2813C11.313 7.16445 11.3362 7.16065 11.3521 7.15433C11.368 7.14674 11.3753 7.13156 11.3753 7.10879C11.3753 7.08602 11.368 7.06958 11.3546 7.06199C11.3399 7.0544 11.3167 7.05061 11.2825 7.05061H11.2276V7.16571V7.16445ZM11.2276 7.37948H11.3057C11.3387 7.37948 11.3631 7.37568 11.379 7.36683C11.3949 7.35797 11.4034 7.34153 11.4034 7.3175C11.4034 7.29346 11.3949 7.27702 11.3778 7.26943C11.3607 7.26184 11.3326 7.25805 11.2947 7.25805H11.2276V7.38074V7.37948Z" fill="white"/>
<path d="M11.9772 7.48066L11.9296 7.36556H11.7146L11.667 7.48066H11.5449L11.7659 6.95068H11.877L12.0981 7.48066H11.976H11.9772ZM11.8221 7.10753L11.7574 7.26184H11.8856L11.8221 7.10753Z" fill="white"/>
<path d="M12.3922 7.37563C12.4483 7.37563 12.4947 7.35287 12.5301 7.30607L12.6034 7.38449C12.5448 7.45279 12.4764 7.48568 12.3983 7.48568C12.3201 7.48568 12.2542 7.46038 12.2029 7.40852C12.1516 7.35666 12.126 7.29215 12.126 7.21373C12.126 7.13531 12.1516 7.06953 12.2041 7.01641C12.2566 6.96329 12.3201 6.93799 12.3946 6.93799C12.4789 6.93799 12.5485 6.97087 12.6058 7.03791L12.535 7.12139C12.4984 7.07459 12.4544 7.05183 12.4007 7.05183C12.358 7.05183 12.3213 7.06701 12.2908 7.0961C12.2603 7.12519 12.2444 7.1644 12.2444 7.21373C12.2444 7.26306 12.2591 7.30227 12.2872 7.33263C12.3165 7.36299 12.3506 7.3769 12.3922 7.3769V7.37563Z" fill="white"/>
<path d="M13.0116 6.94971H13.1263V7.47969H13.0116V7.27098H12.8076V7.47969H12.6929V6.94971H12.8076V7.17106H13.0116V6.94971Z" fill="white"/>
<path d="M13.6173 7.48066L13.5697 7.36556H13.3548L13.3072 7.48066H13.1851L13.4061 6.95068H13.5172L13.7382 7.48066H13.6161H13.6173ZM13.4622 7.10753L13.3975 7.26184H13.5257L13.4622 7.10753Z" fill="white"/>
<path d="M13.9823 7.48095H13.8675V7.27098L13.6904 6.94971H13.8138L13.9249 7.14703L14.036 6.94971H14.1593L13.9823 7.27098V7.48095Z" fill="white"/>
<path d="M14.7611 6.99748C14.7965 7.02911 14.8148 7.07717 14.8148 7.14294C14.8148 7.20872 14.7965 7.25678 14.7599 7.28714C14.7232 7.3175 14.6671 7.33267 14.5914 7.33267H14.523V7.48066H14.4082V6.95068H14.5889C14.6671 6.95068 14.7245 6.96586 14.7611 6.99875V6.99748ZM14.6768 7.20619C14.6903 7.18974 14.6976 7.16698 14.6976 7.13662C14.6976 7.10626 14.689 7.08476 14.6707 7.07085C14.6524 7.05693 14.6255 7.05187 14.5877 7.05187H14.523V7.23022H14.5999C14.6378 7.23022 14.6634 7.22263 14.6781 7.20619H14.6768Z" fill="white"/>
<path d="M15.2389 7.48066L15.1913 7.36556H14.9764L14.9287 7.48066H14.8066L15.0277 6.95068H15.1388L15.3598 7.48066H15.2377H15.2389ZM15.0838 7.10753L15.0191 7.26184H15.1473L15.0838 7.10753Z" fill="white"/>
<path d="M15.8358 7.1265C15.8358 7.21125 15.8028 7.2669 15.7381 7.29093L15.8676 7.48066H15.7271L15.6136 7.31117H15.5342V7.48066H15.4194V6.95068H15.6136C15.6929 6.95068 15.7503 6.9646 15.7845 6.99242C15.8187 7.02025 15.8358 7.06452 15.8358 7.1265ZM15.6978 7.18974C15.7125 7.1771 15.7186 7.15559 15.7186 7.12777C15.7186 7.09994 15.7113 7.0797 15.6966 7.06832C15.682 7.0582 15.6563 7.05187 15.6197 7.05187H15.5342V7.20872H15.6172C15.6563 7.20872 15.6832 7.20239 15.6966 7.18848L15.6978 7.18974Z" fill="white"/>
<path d="M16.3216 6.94971V7.05469H16.0664V7.16347H16.296V7.26466H16.0664V7.3747H16.329V7.47969H15.9517V6.94971H16.3204H16.3216Z" fill="white"/>
<path d="M16.7906 6.94971H16.9054V7.47969H16.7906L16.5464 7.14703V7.47969H16.4316V6.94971H16.5391L16.7906 7.29122V6.94971Z" fill="white"/>
<path d="M17.2474 7.05216V7.47969H17.1326V7.05216H16.9873V6.94971H17.3915V7.05216H17.2462H17.2474Z" fill="white"/>
<path d="M17.4756 6.94971H17.5904V7.47969H17.4756V6.94971Z" fill="white"/>
<path d="M18.0738 6.94971H18.1886V7.47969H18.0738L17.8296 7.14703V7.47969H17.7148V6.94971H17.8223L18.0738 7.29122V6.94971Z" fill="white"/>
<path d="M18.6478 7.20965H18.7626V7.39811C18.7113 7.4563 18.6417 7.48665 18.5513 7.48665C18.4756 7.48665 18.4134 7.46136 18.3621 7.4095C18.3108 7.35764 18.2852 7.29313 18.2852 7.21471C18.2852 7.13628 18.3108 7.07051 18.3633 7.01739C18.4158 6.96426 18.4781 6.93896 18.5513 6.93896C18.6246 6.93896 18.6881 6.96426 18.743 7.01359L18.6832 7.10213C18.66 7.0819 18.6393 7.06672 18.6197 7.05913C18.6002 7.05154 18.5794 7.04774 18.5574 7.04774C18.5135 7.04774 18.4769 7.06292 18.4476 7.09328C18.4183 7.12364 18.4024 7.16411 18.4024 7.21471C18.4024 7.2653 18.417 7.30451 18.4451 7.33487C18.4732 7.36523 18.5074 7.38041 18.5477 7.38041C18.588 7.38041 18.6197 7.37282 18.6466 7.35637V7.21091L18.6478 7.20965Z" fill="white"/>
<path d="M19.0581 7.48066V6.95068H19.1729V7.37568H19.3915V7.48066H19.0593H19.0581Z" fill="white"/>
<path d="M19.8436 6.94971V7.05469H19.5884V7.16347H19.818V7.26466H19.5884V7.3747H19.8509V7.47969H19.4736V6.94971H19.8424H19.8436Z" fill="white"/>
<path d="M20.3185 7.48066L20.2709 7.36556H20.056L20.0083 7.48066H19.8862L20.1072 6.95068H20.2184L20.4394 7.48066H20.3173H20.3185ZM20.1634 7.10753L20.0987 7.26184H20.2269L20.1634 7.10753Z" fill="white"/>
<path d="M20.8309 7.20965H20.9457V7.39811C20.8944 7.4563 20.8248 7.48665 20.7344 7.48665C20.6587 7.48665 20.5965 7.46136 20.5452 7.4095C20.4939 7.35764 20.4683 7.29313 20.4683 7.21471C20.4683 7.13628 20.4939 7.07051 20.5464 7.01739C20.5989 6.96426 20.6612 6.93896 20.7344 6.93896C20.8077 6.93896 20.8712 6.96426 20.9262 7.01359L20.8663 7.10213C20.8431 7.0819 20.8224 7.06672 20.8028 7.05913C20.7833 7.05154 20.7625 7.04774 20.7406 7.04774C20.6966 7.04774 20.66 7.06292 20.6307 7.09328C20.6014 7.12364 20.5855 7.16411 20.5855 7.21471C20.5855 7.2653 20.6001 7.30451 20.6282 7.33487C20.6563 7.36523 20.6905 7.38041 20.7308 7.38041C20.7711 7.38041 20.8028 7.37282 20.8297 7.35637V7.21091L20.8309 7.20965Z" fill="white"/>
<path d="M21.1841 7.34308C21.2037 7.36711 21.2293 7.37976 21.261 7.37976C21.2928 7.37976 21.3184 7.36711 21.338 7.34308C21.3563 7.31905 21.3661 7.2849 21.3661 7.24316V6.94971H21.4808V7.24695C21.4808 7.32411 21.4601 7.38356 21.4198 7.42403C21.3783 7.46577 21.3258 7.48601 21.2623 7.48601C21.1988 7.48601 21.145 7.46577 21.1048 7.42403C21.0632 7.38229 21.0425 7.32411 21.0425 7.24695V6.94971H21.1573V7.24316C21.1573 7.28616 21.167 7.31905 21.1853 7.34308H21.1841Z" fill="white"/>
<path d="M21.9676 6.94971V7.05469H21.7124V7.16347H21.942V7.26466H21.7124V7.3747H21.975V7.47969H21.5977V6.94971H21.9664H21.9676Z" fill="white"/>
<path d="M11.9282 13.5112H10.4336V9.97461H11.7621C11.9929 9.97461 12.1931 10.0037 12.3604 10.0606C12.5277 10.1175 12.6547 10.196 12.7389 10.2934C12.8916 10.4755 12.9685 10.6817 12.9685 10.9106C12.9685 11.1876 12.8818 11.3925 12.7096 11.5279C12.651 11.5747 12.6107 11.605 12.5875 11.6164C12.5643 11.6278 12.524 11.648 12.4654 11.6746C12.6767 11.7214 12.8452 11.8201 12.9709 11.9706C13.0967 12.1211 13.159 12.307 13.159 12.5297C13.159 12.7763 13.0772 12.9939 12.9148 13.1823C12.7255 13.4011 12.397 13.5112 11.9282 13.5112ZM11.1955 11.4064H11.557C11.7682 11.4064 11.9257 11.3824 12.0283 11.3356C12.1309 11.2888 12.1821 11.1864 12.1821 11.0295C12.1821 10.8727 12.1345 10.7689 12.0405 10.7184C11.9465 10.6678 11.7865 10.6425 11.5618 10.6425H11.1955V11.4064ZM11.1955 12.8433H11.7181C11.9367 12.8433 12.1003 12.8155 12.209 12.7599C12.3177 12.7042 12.3726 12.5942 12.3726 12.431C12.3726 12.2678 12.3152 12.159 12.1992 12.1072C12.0832 12.0553 11.8989 12.0288 11.6449 12.0288H11.1955V12.8433Z" fill="white"/>
<path d="M14.021 13.4226C13.938 13.3366 13.8965 13.2316 13.8965 13.1064C13.8965 12.9811 13.938 12.8762 14.021 12.7902C14.1041 12.7041 14.2054 12.6611 14.3263 12.6611C14.4472 12.6611 14.5485 12.7041 14.6316 12.7902C14.7146 12.8762 14.7561 12.9811 14.7561 13.1064C14.7561 13.2316 14.7146 13.3366 14.6316 13.4226C14.5485 13.5086 14.4472 13.5516 14.3263 13.5516C14.2054 13.5516 14.1041 13.5086 14.021 13.4226Z" fill="white"/>
<path d="M18.0456 10.2908C18.2849 10.5021 18.4046 10.8259 18.4046 11.2622C18.4046 11.6986 18.2812 12.0186 18.0358 12.221C17.7904 12.4234 17.4143 12.5246 16.91 12.5246H16.4558V13.5112H15.6938V9.97461H16.9002C17.4241 9.97461 17.8063 10.0796 18.0456 10.2908ZM17.4863 11.6822C17.5779 11.5759 17.6231 11.4204 17.6231 11.2167C17.6231 11.0131 17.5633 10.8676 17.4448 10.7816C17.3264 10.6956 17.1408 10.6526 16.8905 10.6526H16.4558V11.8416H16.9686C17.2226 11.8416 17.3948 11.7884 17.4863 11.6822Z" fill="white"/>
<path d="M18.9673 13.4226C18.8843 13.3366 18.8428 13.2316 18.8428 13.1064C18.8428 12.9811 18.8843 12.8762 18.9673 12.7902C19.0504 12.7041 19.1517 12.6611 19.2726 12.6611C19.3935 12.6611 19.4948 12.7041 19.5778 12.7902C19.6609 12.8762 19.7024 12.9811 19.7024 13.1064C19.7024 13.2316 19.6609 13.3366 19.5778 13.4226C19.4948 13.5086 19.3935 13.5516 19.2726 13.5516C19.1517 13.5516 19.0504 13.5086 18.9673 13.4226Z" fill="white"/>
<path d="M20.6401 13.5112V9.97461H21.4021V12.8079H22.8576V13.5112H20.6401Z" fill="white"/>
<defs>
<linearGradient id="paint0_linear_2959_1902" x1="12.805" y1="3.00011" x2="20.7011" y2="19.3478" gradientUnits="userSpaceOnUse">
<stop stop-color="#57348F"/>
<stop offset="0.93" stop-color="#2E105E"/>
</linearGradient>
<linearGradient id="paint1_linear_2959_1902" x1="13.5" y1="2.35404" x2="21.3741" y2="18.6542" gradientUnits="userSpaceOnUse">
<stop stop-color="#D55FAD"/>
<stop offset="1" stop-color="#481993"/>
</linearGradient>
<linearGradient id="paint2_linear_2959_1902" x1="23.4796" y1="9.62705" x2="26.6161" y2="16.1222" gradientUnits="userSpaceOnUse">
<stop stop-color="#522E8B"/>
<stop offset="0.04" stop-color="#522E8B" stop-opacity="0.92"/>
<stop offset="0.109375" stop-color="#522E8B" stop-opacity="0.809816"/>
<stop offset="0.21" stop-color="#522E8B" stop-opacity="0.65"/>
<stop offset="0.38" stop-color="#522E8B" stop-opacity="0.41"/>
<stop offset="0.55" stop-color="#522E8B" stop-opacity="0.23"/>
<stop offset="0.71" stop-color="#522E8B" stop-opacity="0.1"/>
<stop offset="0.86" stop-color="#522E8B" stop-opacity="0.03"/>
<stop offset="1" stop-color="#142764" stop-opacity="0"/>
<stop offset="1" stop-color="#522E8B" stop-opacity="0"/>
</linearGradient>
<linearGradient id="paint3_linear_2959_1902" x1="23.4296" y1="12.3994" x2="25.4899" y2="16.6645" gradientUnits="userSpaceOnUse">
<stop stop-color="#64409E"/>
<stop offset="0.93" stop-color="#240B4D"/>
</linearGradient>
<linearGradient id="paint4_linear_2959_1902" x1="9.58531" y1="9.62705" x2="6.44882" y2="16.1222" gradientUnits="userSpaceOnUse">
<stop stop-color="#522E8B"/>
<stop offset="0.04" stop-color="#522E8B" stop-opacity="0.92"/>
<stop offset="0.125" stop-color="#522E8B" stop-opacity="0.785"/>
<stop offset="0.21" stop-color="#522E8B" stop-opacity="0.65"/>
<stop offset="0.38" stop-color="#522E8B" stop-opacity="0.41"/>
<stop offset="0.55" stop-color="#522E8B" stop-opacity="0.23"/>
<stop offset="0.71" stop-color="#522E8B" stop-opacity="0.1"/>
<stop offset="0.86" stop-color="#522E8B" stop-opacity="0.03"/>
<stop offset="1" stop-color="#522E8B" stop-opacity="0"/>
</linearGradient>
<linearGradient id="paint5_linear_2959_1902" x1="9.63533" y1="12.3994" x2="7.57497" y2="16.6645" gradientUnits="userSpaceOnUse">
<stop stop-color="#7650B1"/>
<stop offset="0.93" stop-color="#2F0E64"/>
</linearGradient>
<linearGradient id="paint6_linear_2959_1902" x1="9.73291" y1="7.28079" x2="23.3317" y2="7.28079" gradientUnits="userSpaceOnUse">
<stop stop-color="#D55FAD"/>
<stop offset="1" stop-color="#845DC2"/>
</linearGradient>
<linearGradient id="paint7_linear_2959_1902" x1="15.1068" y1="4.1137" x2="18.1269" y2="10.3666" gradientUnits="userSpaceOnUse">
<stop stop-color="#522E8B"/>
<stop offset="0.93" stop-color="#260955"/>
</linearGradient>
</defs>
</svg>
