<svg width="16" height="14" viewBox="0 0 14 12" fill="none" xmlns="http://www.w3.org/2000/svg">
<path d="M9.19523 6.00233C9.19523 7.21643 8.21414 8.19752 7.00004 8.19752C5.78593 8.19752 4.80484 7.21643 4.80484 6.00233C4.80484 4.78822 5.78593 3.80713 7.00004 3.80713C8.21414 3.80713 9.19523 4.78822 9.19523 6.00233Z" stroke="white" stroke-linecap="round" stroke-linejoin="round"/>
<path d="M7 11.074C9.16454 11.074 11.1819 9.79855 12.5861 7.59109C13.138 6.7265 13.138 5.27325 12.5861 4.40866C11.1819 2.2012 9.16454 0.925781 7 0.925781C4.83546 0.925781 2.81809 2.2012 1.4139 4.40866C0.862034 5.27325 0.862034 6.7265 1.4139 7.59109C2.81809 9.79855 4.83546 11.074 7 11.074Z" stroke="white" stroke-linecap="round" stroke-linejoin="round"/>
</svg>
