<svg width="18" height="18" viewBox="0 0 16 16" fill="none" xmlns="http://www.w3.org/2000/svg">
<g id="Group 822">
<path id="Vector" d="M4.71126 12.4263L6.96711 14.1727C7.25819 14.4638 7.91311 14.6094 8.34973 14.6094H11.115C11.9882 14.6094 12.9342 13.9544 13.1525 13.0812L14.899 7.76903C15.2628 6.75026 14.6079 5.87702 13.5164 5.87702H10.6056C10.169 5.87702 9.80512 5.51317 9.87789 5.00379L10.2417 2.67517C10.3873 2.02024 9.95066 1.29255 9.29573 1.07424C8.71358 0.85593 7.98588 1.14701 7.6948 1.58362L4.71126 6.02256" stroke="#845DC2" stroke-miterlimit="10"/>
<path id="Vector_2" d="M1 12.4261V5.29473C1 4.27596 1.43662 3.91211 2.45539 3.91211H3.18308C4.20185 3.91211 4.63847 4.27596 4.63847 5.29473V12.4261C4.63847 13.4449 4.20185 13.8088 3.18308 13.8088H2.45539C1.43662 13.8088 1 13.4449 1 12.4261Z" stroke="#845DC2" stroke-linecap="round" stroke-linejoin="round"/>
</g>
</svg>
