<svg width="16" height="16" viewBox="0 0 14 14" fill="none" xmlns="http://www.w3.org/2000/svg">
<path d="M4.18108 10.9614L6.11466 12.4584C6.36416 12.7079 6.92552 12.8326 7.29977 12.8326H9.66997C10.4185 12.8326 11.2293 12.2713 11.4164 11.5228L12.9134 6.9695C13.2253 6.09627 12.6639 5.34779 11.7283 5.34779H9.23335C8.85911 5.34779 8.54724 5.03592 8.60961 4.5993L8.92148 2.60334C9.04623 2.04197 8.67199 1.41823 8.11062 1.23111C7.61163 1.04399 6.9879 1.29349 6.7384 1.66773L4.18108 5.47253" stroke="#F8931B" stroke-miterlimit="10"/>
<path d="M1 10.9613V4.84868C1 3.97544 1.37424 3.66357 2.24748 3.66357H2.87121C3.74445 3.66357 4.11869 3.97544 4.11869 4.84868V10.9613C4.11869 11.8345 3.74445 12.1464 2.87121 12.1464H2.24748C1.37424 12.1464 1 11.8345 1 10.9613Z" stroke="#F8931B" stroke-linecap="round" stroke-linejoin="round"/>
</svg>
