<svg width="17" height="18" viewBox="0 0 17 18" fill="none" xmlns="http://www.w3.org/2000/svg">
<path d="M7.51957 12.0143C7.18747 12.0143 6.8791 11.9352 6.60236 11.777C5.9698 11.4133 5.60608 10.6701 5.60608 9.72914V7.38867C5.60608 6.45565 5.9698 5.70449 6.60236 5.34077C7.23492 4.97704 8.05724 5.03239 8.87166 5.50681L10.9038 6.67704C11.7103 7.14356 12.1768 7.83146 12.1768 8.55891C12.1768 9.28635 11.7103 9.97425 10.9038 10.4408L8.87166 11.611C8.41306 11.8798 7.94654 12.0143 7.51957 12.0143ZM7.52747 6.2896C7.40096 6.2896 7.29026 6.31332 7.20329 6.36867C6.95026 6.5189 6.80003 6.89053 6.80003 7.38867V9.72914C6.80003 10.2273 6.94236 10.5989 7.20329 10.7491C7.45631 10.8994 7.85166 10.8361 8.28654 10.5831L10.3186 9.41286C10.7535 9.15984 10.9986 8.85146 10.9986 8.55891C10.9986 8.26635 10.7535 7.95007 10.3186 7.70495L8.28654 6.53472C8.00189 6.36867 7.74096 6.2896 7.52747 6.2896Z" fill="#292D32"/>
<path d="M8.5 17.0591C3.81116 17.0591 0 13.2479 0 8.55908C0 3.87024 3.81116 0.059082 8.5 0.059082C13.1888 0.059082 17 3.87024 17 8.55908C17 13.2479 13.1888 17.0591 8.5 17.0591ZM8.5 1.24513C4.46744 1.24513 1.18605 4.52652 1.18605 8.55908C1.18605 12.5916 4.46744 15.873 8.5 15.873C12.5326 15.873 15.814 12.5916 15.814 8.55908C15.814 4.52652 12.5326 1.24513 8.5 1.24513Z" fill="#292D32"/>
</svg>
