<svg width="27" height="25" viewBox="0 0 27 25" fill="none" xmlns="http://www.w3.org/2000/svg">
<path d="M19.5 20.2225H14.7L9.35999 23.7745C8.56799 24.3025 7.5 23.7385 7.5 22.7785V20.2225C3.9 20.2225 1.5 17.8225 1.5 14.2225V7.02246C1.5 3.42246 3.9 1.02246 7.5 1.02246H19.5C23.1 1.02246 25.5 3.42246 25.5 7.02246V14.2225C25.5 17.8225 23.1 20.2225 19.5 20.2225Z" stroke="#845DC2" stroke-width="2" stroke-miterlimit="10" stroke-linecap="round" stroke-linejoin="round"/>
<path d="M13.5 11.7379V11.4859C13.5 10.6699 14.0041 10.2379 14.5081 9.88992C15.0001 9.55392 15.492 9.12193 15.492 8.32993C15.492 7.22593 14.604 6.33789 13.5 6.33789C12.396 6.33789 11.5081 7.22593 11.5081 8.32993" stroke="#845DC2" stroke-width="2" stroke-linecap="round" stroke-linejoin="round"/>
<path d="M13.4947 14.6059H13.5055" stroke="#845DC2" stroke-width="2" stroke-linecap="round" stroke-linejoin="round"/>
</svg>
