<svg width="24" height="24" viewBox="0 0 24 24" fill="none" xmlns="http://www.w3.org/2000/svg">
<g clip-path="url(#clip0_4906_825)">
<path d="M15.75 0H8.25C6.06196 0 3.96354 0.869194 2.41637 2.41637C0.869194 3.96354 0 6.06196 0 8.25L0 11.25C0 13.438 0.869194 15.5365 2.41637 17.0836C3.96354 18.6308 6.06196 19.5 8.25 19.5H9V23.25C8.99913 23.399 9.04265 23.5448 9.125 23.669C9.20735 23.7931 9.32481 23.8899 9.46239 23.947C9.59997 24.0042 9.75145 24.019 9.89751 23.9897C10.0436 23.9604 10.1776 23.8883 10.2825 23.7825L14.5575 19.5H15.75C17.938 19.5 20.0365 18.6308 21.5836 17.0836C23.1308 15.5365 24 13.438 24 11.25V8.25C24 6.06196 23.1308 3.96354 21.5836 2.41637C20.0365 0.869194 17.938 0 15.75 0ZM22.5 11.25C22.5 13.0402 21.7888 14.7571 20.523 16.023C19.2571 17.2888 17.5402 18 15.75 18H14.25C14.1513 17.9994 14.0534 18.0183 13.9621 18.0557C13.8707 18.093 13.7876 18.148 13.7175 18.2175L10.5 21.4425V18.75C10.5 18.5511 10.421 18.3603 10.2803 18.2197C10.1397 18.079 9.94891 18 9.75 18H8.25C6.45979 18 4.7429 17.2888 3.47703 16.023C2.21116 14.7571 1.5 13.0402 1.5 11.25V8.25C1.5 6.45979 2.21116 4.7429 3.47703 3.47703C4.7429 2.21116 6.45979 1.5 8.25 1.5H15.75C17.5402 1.5 19.2571 2.21116 20.523 3.47703C21.7888 4.7429 22.5 6.45979 22.5 8.25V11.25Z" fill="#845DC2"/>
<path d="M15.1575 13.26C15.542 12.6599 15.7475 11.9627 15.75 11.25V8.25C15.75 7.25544 15.3549 6.30161 14.6517 5.59835C13.9484 4.89509 12.9946 4.5 12 4.5C11.0054 4.5 10.0516 4.89509 9.34835 5.59835C8.64509 6.30161 8.25 7.25544 8.25 8.25V11.25C8.25034 11.9306 8.4359 12.5983 8.78681 13.1815C9.13771 13.7647 9.64072 14.2414 10.2419 14.5605C10.8431 14.8796 11.5198 15.029 12.1995 14.9928C12.8791 14.9566 13.5361 14.7361 14.1 14.355C14.5686 14.738 15.1459 14.9637 15.75 15H17.25V13.5H15.75C15.5352 13.4723 15.3311 13.3896 15.1575 13.26ZM14.25 11.25C14.25 11.8467 14.0129 12.419 13.591 12.841C13.169 13.2629 12.5967 13.5 12 13.5C11.4033 13.5 10.831 13.2629 10.409 12.841C9.98705 12.419 9.75 11.8467 9.75 11.25V8.25C9.75 7.65326 9.98705 7.08097 10.409 6.65901C10.831 6.23705 11.4033 6 12 6C12.5967 6 13.169 6.23705 13.591 6.65901C14.0129 7.08097 14.25 7.65326 14.25 8.25V11.25Z" fill="#845DC2"/>
</g>
<defs>
<clipPath id="clip0_4906_825">
<rect width="24" height="24" fill="white"/>
</clipPath>
</defs>
</svg>
