<svg width="23" height="27" viewBox="0 0 23 27" fill="none" xmlns="http://www.w3.org/2000/svg">
<path d="M1.30005 20.6999V7.49996C1.30005 2.69999 2.50004 1.5 7.30001 1.5H15.7C20.4999 1.5 21.6999 2.69999 21.6999 7.49996V19.4999C21.6999 19.6679 21.6999 19.8359 21.6879 20.0039" stroke="#845DC2" stroke-width="1.5" stroke-linecap="round" stroke-linejoin="round"/>
<path d="M4.72003 17.1001H21.6999V21.3001C21.6999 23.6161 19.8159 25.5 17.4999 25.5H5.50002C3.18404 25.5 1.30005 23.6161 1.30005 21.3001V20.5201C1.30005 18.6361 2.83604 17.1001 4.72003 17.1001Z" stroke="#845DC2" stroke-width="1.5" stroke-linecap="round" stroke-linejoin="round"/>
<path d="M6.5 22.5L18.5 22.5" stroke="#845DC2" stroke-linecap="round" stroke-linejoin="round"/>
<path d="M8.5 20L18.5 20" stroke="#845DC2" stroke-linecap="round" stroke-linejoin="round"/>
<path d="M9.5 9.93913V8.7133C9.5 7.18649 10.5791 6.56255 11.9003 7.32595L12.9647 7.94256L14.029 8.55913C15.3503 9.32254 15.3503 10.5704 14.029 11.3338L12.9647 11.9504L11.9003 12.567C10.5791 13.3304 9.5 12.7065 9.5 11.1797V9.93913Z" stroke="#845DC2" stroke-width="1.2" stroke-miterlimit="10" stroke-linecap="round" stroke-linejoin="round"/>
</svg>
