<svg width="29" height="29" viewBox="0 0 29 29" fill="none" xmlns="http://www.w3.org/2000/svg">
<path d="M4.58727 25.2187L1.21433 21.913L1.33051 21.7991L1.87036 22.3282L2.21708 22.668L2.56697 22.3314L5.77036 19.25L6.14148 18.893L5.77371 18.5326L4.88388 17.6605L4.88393 17.6604L4.87778 17.6546L3.47479 16.3254L3.59063 16.2119L5.02053 17.5666L5.36829 17.896L5.71234 17.5627L16.1457 7.45335C16.6765 6.98266 17.4983 7.00491 17.9466 7.44428L18.2966 7.78728L18.6466 7.44428L20.4251 5.70123L22.7874 6.06957L23.0333 6.10792L23.2122 5.9348L27.6673 1.62229L27.7857 1.73828L23.4043 6.03241L23.2236 6.2095L23.2592 6.45998L23.5788 8.70473L21.8081 10.3876L21.4326 10.7445L21.8026 11.1071C22.0702 11.3694 22.1864 11.6505 22.1864 11.971C22.1864 12.2911 22.0704 12.5719 21.8035 12.8339C21.8032 12.8342 21.8029 12.8345 21.8026 12.8348L11.3046 23.0074L10.9298 23.3705L11.3087 23.7294L12.7116 25.0586L12.5958 25.1722L11.169 23.8204L10.2822 22.9512L9.93546 22.6114L9.58558 22.948L6.38219 26.0294L6.01106 26.3864L6.37884 26.7468L6.90431 27.2619L6.78814 27.3757L6.24828 26.8466L4.58727 25.2187ZM20.8045 5.89526L20.5574 5.85742L20.3788 6.03241L18.8365 7.54406L18.4721 7.90115L18.8365 8.25824L20.1415 9.53733L20.1543 9.54979L20.1678 9.56132L21.0577 10.3171L21.3987 10.6068L21.7243 10.2999L23.2666 8.84643L23.4603 8.66393L23.4171 8.40136L23.1205 6.59901L23.0616 6.2409L22.7028 6.18596L20.8045 5.89526ZM13.4263 20.1024L11.477 18.192L11.5932 18.0781L13.5568 20.0026L13.9068 20.3456L14.2568 20.0026L15.5618 18.7235L15.9262 18.3664L15.5618 18.0093L13.6126 16.0989L13.7288 15.9851L15.6924 17.9095L16.0424 18.2525L16.3924 17.9095L17.6974 16.6304L18.0618 16.2733L17.6974 15.9163L15.7482 14.0059L15.8644 13.892L17.828 15.8165L18.178 16.1595L18.5279 15.8165L19.833 14.5374L20.1974 14.1803L19.833 13.8232L17.8838 11.9128L18 11.799L19.9636 13.7234L20.3336 14.086L20.6828 13.7034L21.6463 12.648C21.7845 12.5482 21.8658 12.4149 21.9109 12.3155C21.9687 12.1879 22 12.0451 22 11.9128C22 11.6134 21.8451 11.3765 21.672 11.2069L21.6692 11.2042L17.836 7.50513C17.4295 7.01734 16.7366 7.10326 16.3461 7.48479C16.3457 7.48516 16.3453 7.48554 16.3449 7.48591L5.84697 17.6585L5.47615 18.0178L5.84722 18.3769L10.5337 22.9118L10.8788 23.2458L11.2264 22.9143L13.4213 20.8213L13.7956 20.4644L13.4263 20.1024ZM6.60422 19.3465L6.25424 19.0035L5.90426 19.3465L2.70087 22.4861L2.33266 22.847L2.70465 23.204L5.5521 25.9365L5.89871 26.2692L6.24493 25.9361L9.44832 22.8547L9.81944 22.4977L9.45167 22.1373L8.02794 20.7419L6.60422 19.3465Z" fill="#845DC2" stroke="#845DC2"/>
</svg>
