<svg width="15" height="15" viewBox="0 0 8 12" fill="none" xmlns="http://www.w3.org/2000/svg">
<path d="M0.417668 4.23459H2.75823C3.1376 4.23459 2.9727 3.72849 2.9727 3.72849L2.14601 0.953882C2.06663 0.6878 1.81605 0.811642 1.68743 0.896816C0.79192 1.56475 0.172709 2.57337 0.031151 3.72781C0.0301289 3.73837 -0.0219973 4.23459 0.417668 4.23459Z" fill="#8A68C5"/>
<path d="M7.99979 5.42648C7.99774 4.93469 7.52281 4.89057 7.38722 4.88818H0.417647C0.0309593 4.88818 0.0168205 5.19259 0.0246565 5.30621C0.241508 7.24323 1.9477 8.7525 4.02168 8.7525C6.05204 8.7525 7.72672 7.30489 7.99979 5.42648Z" fill="#8A68C5"/>
<path d="M1.27045 11.7069C1.9721 11.7069 2.54089 11.1381 2.54089 10.4365C2.54089 9.73481 1.9721 9.16602 1.27045 9.16602C0.568799 9.16602 0 9.73481 0 10.4365C0 11.1381 0.568799 11.7069 1.27045 11.7069Z" fill="#8A68C5"/>
<path d="M6.72961 11.7069C7.43126 11.7069 8.00006 11.1381 8.00006 10.4365C8.00006 9.73481 7.43126 9.16602 6.72961 9.16602C6.02797 9.16602 5.45917 9.73481 5.45917 10.4365C5.45917 11.1381 6.02797 11.7069 6.72961 11.7069Z" fill="#8A68C5"/>
</svg>
