<svg width="58" height="53" viewBox="0 0 58 53" fill="none" xmlns="http://www.w3.org/2000/svg">
<path fill-rule="evenodd" clip-rule="evenodd" d="M28.4003 3.19142C28.3364 3.20153 28.3039 3.21199 28.2985 3.21372L28.2985 3.21373L28.2977 3.21397L6.07375 12.1035C5.97761 12.1419 5.80896 12.2612 5.65849 12.4845C5.50755 12.7084 5.46094 12.9092 5.46094 13.0073V21.2056C5.46094 21.7354 5.90059 22.175 6.43033 22.175H50.8793C51.4091 22.175 51.8487 21.7354 51.8487 21.2056V13.0073C51.8487 12.9092 51.8021 12.7084 51.6512 12.4845C51.5007 12.2612 51.332 12.1419 51.2359 12.1035L29.0114 3.21373C29.0122 3.21406 29.0122 3.21404 29.0112 3.21373L29.0112 3.21372C29.0058 3.21199 28.9732 3.20153 28.9094 3.19142C28.8377 3.18007 28.7499 3.17285 28.6548 3.17285C28.5598 3.17285 28.4719 3.18007 28.4003 3.19142ZM28.6548 0.172852C29.1057 0.172852 29.6442 0.235745 30.1256 0.4283L52.3501 9.31803C53.1182 9.62529 53.7274 10.1974 54.1387 10.8076C54.5496 11.4171 54.8487 12.1917 54.8487 13.0073V21.2056C54.8487 23.3922 53.0659 25.175 50.8793 25.175H49.9062V39.4604H50.8793C53.0659 39.4604 54.8487 41.2432 54.8487 43.4298V49.3389H55.8265C56.655 49.3389 57.3265 50.0104 57.3265 50.8389C57.3265 51.6673 56.655 52.3389 55.8265 52.3389H1.5C0.671573 52.3389 0 51.6673 0 50.8389C0 50.0104 0.671573 49.3389 1.5 49.3389H2.46094V43.4298C2.46094 41.2432 4.24374 39.4604 6.43033 39.4604H7.41992V25.175H6.43033C4.24373 25.175 2.46094 23.3922 2.46094 21.2056V13.0073C2.46094 12.1917 2.76004 11.4171 3.1709 10.8076C3.58222 10.1974 4.19143 9.62529 4.95958 9.31804L27.1841 0.4283C27.6655 0.235745 28.2039 0.172852 28.6548 0.172852ZM48.3377 42.4604C48.3604 42.4615 48.3833 42.462 48.4062 42.462C48.4292 42.462 48.4521 42.4615 48.4748 42.4604H50.8793C51.4091 42.4604 51.8487 42.9001 51.8487 43.4298V49.338H5.46094V43.4298C5.46094 42.9001 5.90059 42.4604 6.43033 42.4604H8.8514C8.87411 42.4615 8.89696 42.462 8.91992 42.462C8.94289 42.462 8.96573 42.4615 8.98845 42.4604H18.7244C18.7472 42.4615 18.77 42.462 18.793 42.462C18.8159 42.462 18.8388 42.4615 18.8615 42.4604H28.5955C28.6183 42.4615 28.6411 42.462 28.6641 42.462C28.687 42.462 28.7099 42.4615 28.7326 42.4604H38.4657C38.4884 42.4615 38.5112 42.462 38.5342 42.462C38.5571 42.462 38.58 42.4615 38.6027 42.4604H48.3377ZM46.9062 39.4604V25.175H40.0342V39.4604H46.9062ZM30.1641 25.175H37.0342V39.4604H30.1641V25.175ZM27.1641 39.4604V25.175H20.293V39.4604H27.1641ZM10.4199 25.175H17.293V39.4604H10.4199V25.175ZM26.4512 13.8002C26.4512 12.5827 27.4382 11.5957 28.6557 11.5957C29.8732 11.5957 30.8602 12.5827 30.8602 13.8002C30.8602 15.0177 29.8732 16.0047 28.6557 16.0047C27.4382 16.0047 26.4512 15.0177 26.4512 13.8002ZM28.6557 8.5957C25.7813 8.5957 23.4512 10.9258 23.4512 13.8002C23.4512 16.6746 25.7813 19.0047 28.6557 19.0047C31.53 19.0047 33.8602 16.6746 33.8602 13.8002C33.8602 10.9258 31.53 8.5957 28.6557 8.5957Z" fill="#292D32" fill-opacity="0.5"/>
</svg>
