<svg width="23" height="22" viewBox="0 0 23 22" fill="none" xmlns="http://www.w3.org/2000/svg">
<g id="Group 187">
<g id="Group 186">
<path id="Vector" d="M12.8848 16.3599L10.1348 13.6099" stroke="white" stroke-width="1.5" stroke-miterlimit="10" stroke-linecap="round" stroke-linejoin="round"/>
<path id="Vector_2" d="M12.8613 13.6398L10.1113 16.3898" stroke="white" stroke-width="1.5" stroke-miterlimit="10" stroke-linecap="round" stroke-linejoin="round"/>
<path id="Vector_3" d="M8.30555 1L4.68555 4.63" stroke="white" stroke-width="1.5" stroke-miterlimit="10" stroke-linecap="round" stroke-linejoin="round"/>
<path id="Vector_4" d="M14.6855 1L18.3055 4.63" stroke="white" stroke-width="1.5" stroke-miterlimit="10" stroke-linecap="round" stroke-linejoin="round"/>
<path id="Vector_5" d="M1.5 6.8501C1.5 5.0001 2.49 4.8501 3.72 4.8501H19.28C20.51 4.8501 21.5 5.0001 21.5 6.8501C21.5 9.0001 20.51 8.8501 19.28 8.8501H3.72C2.49 8.8501 1.5 9.0001 1.5 6.8501Z" stroke="white" stroke-width="1.5"/>
<path id="Vector_6" d="M3.00195 8.99994L4.41195 17.6399C4.73195 19.5799 5.50195 20.9999 8.36195 20.9999H14.3919C17.5019 20.9999 17.9619 19.6399 18.3219 17.7599L20.0019 8.99994" stroke="white" stroke-width="1.5" stroke-linecap="round"/>
</g>
</g>
</svg>
