<svg width="14" height="16" viewBox="0 0 11 13" fill="none" xmlns="http://www.w3.org/2000/svg">
<g id="Group 918">
<path id="Vector" d="M1.90572 7.50796C1.83409 8.3419 2.49408 9.05817 3.33314 9.05817H8.78191C9.51865 9.05817 10.1633 8.45447 10.2196 7.72285L10.4958 3.88569C10.5572 3.0364 9.91259 2.3457 9.05818 2.3457H2.45316" stroke="white" stroke-miterlimit="10" stroke-linecap="round" stroke-linejoin="round"/>
<path id="Vector_2" d="M0.5 1.38379H1.39022C1.94278 1.38379 2.37765 1.8596 2.33161 2.40703L2.0758 5.50234" stroke="white" stroke-miterlimit="10" stroke-linecap="round" stroke-linejoin="round"/>
<path id="Vector_3" d="M7.78992 11.616C8.14312 11.616 8.42944 11.3296 8.42944 10.9764C8.42944 10.6232 8.14312 10.3369 7.78992 10.3369C7.43672 10.3369 7.15039 10.6232 7.15039 10.9764C7.15039 11.3296 7.43672 11.616 7.78992 11.616Z" stroke="white" stroke-miterlimit="10" stroke-linecap="round" stroke-linejoin="round"/>
<path id="Vector_4" d="M3.69617 11.616C4.04937 11.616 4.33569 11.3296 4.33569 10.9764C4.33569 10.6232 4.04937 10.3369 3.69617 10.3369C3.34297 10.3369 3.05664 10.6232 3.05664 10.9764C3.05664 11.3296 3.34297 11.616 3.69617 11.616Z" stroke="white" stroke-miterlimit="10" stroke-linecap="round" stroke-linejoin="round"/>
<path id="Vector_5" d="M4.08496 4.45312H10.2244" stroke="white" stroke-miterlimit="10" stroke-linecap="round" stroke-linejoin="round"/>
</g>
</svg>
