<svg width="16" height="16" viewBox="0 0 16 16" fill="none" xmlns="http://www.w3.org/2000/svg">
<path d="M1.40872 8.17636V7.03942C1.40872 5.67903 2.51938 4.56836 3.87978 4.56836H11.4244C12.7848 4.56836 13.8955 5.67903 13.8955 7.03942V7.98579H12.5679C12.1999 7.98579 11.8647 8.13035 11.6215 8.38009C11.3455 8.64954 11.1878 9.03729 11.2272 9.45132C11.2864 10.1611 11.937 10.6803 12.6468 10.6803H13.8955V11.4623C13.8955 12.8227 12.7848 13.9334 11.4244 13.9334H7.82295" stroke="#292D32" stroke-width="1.14761" stroke-linecap="round" stroke-linejoin="round"/>
<path d="M1.40872 7.63078V4.62743C1.40872 3.84536 1.88847 3.14871 2.61796 2.87268L7.8361 0.901095C8.65102 0.592213 9.5251 1.19685 9.5251 2.07092V4.56826" stroke="#292D32" stroke-width="1.14761" stroke-linecap="round" stroke-linejoin="round"/>
<path d="M14.5913 8.65615V10.01C14.5913 10.3715 14.3021 10.6672 13.9341 10.6803H12.646C11.9362 10.6803 11.2856 10.1611 11.2265 9.45137C11.187 9.03734 11.3447 8.64959 11.6208 8.38014C11.8639 8.13041 12.1991 7.98584 12.5671 7.98584H13.9341C14.3021 7.99898 14.5913 8.29469 14.5913 8.65615Z" stroke="#292D32" stroke-width="1.14761" stroke-linecap="round" stroke-linejoin="round"/>
<path d="M4.36612 7.36133H8.96649" stroke="#292D32" stroke-width="1.14761" stroke-linecap="round" stroke-linejoin="round"/>
<path d="M1.7373 10.3184H5.24673C5.66734 10.3184 6.00908 10.6601 6.00908 11.0807V11.9219" stroke="#292D32" stroke-width="1.14761" stroke-miterlimit="10" stroke-linecap="round" stroke-linejoin="round"/>
<path d="M2.53908 9.5166L1.7373 10.3184L2.53908 11.1201" stroke="#292D32" stroke-width="1.14761" stroke-miterlimit="10" stroke-linecap="round" stroke-linejoin="round"/>
<path d="M6.00908 13.7886H2.49965C2.07905 13.7886 1.7373 13.4469 1.7373 13.0262V12.1851" stroke="#292D32" stroke-width="1.14761" stroke-miterlimit="10" stroke-linecap="round" stroke-linejoin="round"/>
<path d="M5.20813 14.5904L6.00991 13.7886L5.20813 12.9868" stroke="#292D32" stroke-width="1.14761" stroke-miterlimit="10" stroke-linecap="round" stroke-linejoin="round"/>
</svg>
