<svg width="16" height="16" viewBox="0 0 14 14" fill="none" xmlns="http://www.w3.org/2000/svg">
<g id="Group 798">
<path id="Vector" d="M4.90325 11.2085H4.603C2.201 11.2085 1 10.608 1 7.6055V4.603C1 2.201 2.201 1 4.603 1H9.407C11.809 1 13.01 2.201 13.01 4.603V7.6055C13.01 10.0075 11.809 11.2085 9.407 11.2085H9.10675C8.92059 11.2085 8.74044 11.2986 8.62635 11.4487L7.7256 12.6497C7.32927 13.1781 6.68073 13.1781 6.2844 12.6497L5.38365 11.4487C5.28757 11.3166 5.06538 11.2085 4.90325 11.2085Z" stroke="#292D32" stroke-miterlimit="10" stroke-linecap="round" stroke-linejoin="round"/>
<path id="Vector_2" d="M4.00244 4.60298H10.0074" stroke="#292D32" stroke-linecap="round" stroke-linejoin="round"/>
<path id="Vector_3" d="M4.00244 7.60551H7.60544" stroke="#292D32" stroke-linecap="round" stroke-linejoin="round"/>
</g>
</svg>
