<svg width="21" height="21" viewBox="0 0 18 18" fill="none" xmlns="http://www.w3.org/2000/svg">
<path d="M8.11072 1.19824H6.53056C2.58016 1.19824 1 2.7784 1 6.7288V11.4693C1 15.4197 2.58016 16.9998 6.53056 16.9998H11.271C15.2214 16.9998 16.8016 15.4197 16.8016 11.4693V9.88912" stroke="#292D32" stroke-width="1.5" stroke-linecap="round" stroke-linejoin="round"/>
<path d="M12.0927 2.00437L5.86683 8.2302C5.62981 8.46723 5.39278 8.93338 5.34538 9.27311L5.00565 11.6513C4.87923 12.5124 5.48759 13.1129 6.34878 12.9944L8.72692 12.6547C9.05876 12.6072 9.52491 12.3702 9.76983 12.1332L15.9957 5.90737C17.0702 4.83286 17.5758 3.58453 15.9957 2.00437C14.4155 0.424213 13.1672 0.929864 12.0927 2.00437Z" stroke="#292D32" stroke-width="1.5" stroke-miterlimit="10" stroke-linecap="round" stroke-linejoin="round"/>
<path d="M11.2001 2.89697C11.7294 4.78526 13.2069 6.26271 15.1031 6.79997" stroke="#292D32" stroke-width="1.5" stroke-miterlimit="10" stroke-linecap="round" stroke-linejoin="round"/>
</svg>
