<svg width="16" height="16" viewBox="0 0 14 14" fill="none" xmlns="http://www.w3.org/2000/svg">
<path d="M5.19866 5.79843C5.86119 5.79843 6.39829 5.26134 6.39829 4.5988C6.39829 3.93626 5.86119 3.39917 5.19866 3.39917C4.53612 3.39917 3.99902 3.93626 3.99902 4.5988C3.99902 5.26134 4.53612 5.79843 5.19866 5.79843Z" stroke="#292D32" stroke-width="1.5" stroke-linecap="round" stroke-linejoin="round"/>
<path d="M7.59797 1H5.19871C2.19963 1 1 2.19963 1 5.19871V8.79761C1 11.7967 2.19963 12.9963 5.19871 12.9963H8.79761C11.7967 12.9963 12.9963 11.7967 12.9963 8.79761V5.79853" stroke="#292D32" stroke-width="1.5" stroke-linecap="round" stroke-linejoin="round"/>
<path d="M11.2808 1.35408L9.10347 3.53141C9.0195 3.61539 8.93552 3.77734 8.92353 3.8973L8.80356 4.73104C8.76158 5.03095 8.97151 5.24089 9.27142 5.1989L10.1052 5.07894C10.2191 5.06094 10.3871 4.98297 10.4711 4.89899L12.6484 2.72166C13.0263 2.34378 13.2002 1.91191 12.6484 1.36008C12.0906 0.796251 11.6587 0.976196 11.2808 1.35408Z" stroke="#292D32" stroke-width="1.5" stroke-miterlimit="10" stroke-linecap="round" stroke-linejoin="round"/>
<path d="M10.969 1.66577C11.1549 2.32557 11.6708 2.84141 12.3306 3.02735" stroke="#292D32" stroke-width="1.5" stroke-miterlimit="10" stroke-linecap="round" stroke-linejoin="round"/>
<path d="M1.40186 11.1668L4.35895 9.18141C4.8328 8.86351 5.51659 8.8995 5.94246 9.26539L6.1404 9.43933C6.60826 9.84121 7.36403 9.84121 7.83188 9.43933L10.3271 7.29799C10.795 6.89611 11.5507 6.89611 12.0186 7.29799L12.9963 8.13773" stroke="#292D32" stroke-width="1.5" stroke-linecap="round" stroke-linejoin="round"/>
</svg>
