<svg width="16" height="16" viewBox="0 0 16 16" fill="none" xmlns="http://www.w3.org/2000/svg">
<path d="M14.885 3.74595V7.25728C14.885 8.13168 14.5958 8.86838 14.0795 9.37787C13.57 9.89425 12.8333 10.1834 11.9589 10.1834V11.4296C11.9589 11.8978 11.4356 12.1801 11.0501 11.9184L10.3822 11.4778C10.4442 11.2644 10.4717 11.0303 10.4717 10.7824V7.98024C10.4717 6.5757 9.53537 5.63932 8.13083 5.63932H3.45591C3.35952 5.63932 3.27002 5.64622 3.18051 5.65311V3.74595C3.18051 1.99027 4.35096 0.819824 6.10664 0.819824H11.9589C13.7146 0.819824 14.885 1.99027 14.885 3.74595Z" stroke="#292D32" stroke-width="1.51347" stroke-miterlimit="10" stroke-linecap="round" stroke-linejoin="round"/>
<path d="M10.4717 7.98008V10.7822C10.4717 11.0301 10.4442 11.2642 10.3822 11.4776C10.1275 12.4897 9.28749 13.1232 8.13081 13.1232H6.25809L4.17881 14.507C3.86899 14.7205 3.45589 14.4933 3.45589 14.1215V13.1232C2.75362 13.1232 2.1684 12.8891 1.76218 12.4829C1.34908 12.0698 1.11499 11.4845 1.11499 10.7822V7.98008C1.11499 6.67193 1.92742 5.76999 3.18049 5.65294C3.27 5.64606 3.3595 5.63916 3.45589 5.63916H8.13081C9.53535 5.63916 10.4717 6.57554 10.4717 7.98008Z" stroke="#292D32" stroke-width="1.51347" stroke-miterlimit="10" stroke-linecap="round" stroke-linejoin="round"/>
</svg>
