<svg width="22" height="19" viewBox="0 0 22 19" fill="none" xmlns="http://www.w3.org/2000/svg">
<path d="M14.6584 9.46164C14.6584 11.4851 13.0232 13.1203 10.9997 13.1203C8.97622 13.1203 7.34106 11.4851 7.34106 9.46164C7.34106 7.43813 8.97622 5.80298 10.9997 5.80298C13.0232 5.80298 14.6584 7.43813 14.6584 9.46164Z" stroke="black" stroke-opacity="0.25" stroke-width="1.5" stroke-linecap="round" stroke-linejoin="round"/>
<path d="M11 17.9136C14.6076 17.9136 17.9699 15.7879 20.3102 12.1088C21.2299 10.6679 21.2299 8.24578 20.3102 6.8048C17.9699 3.1257 14.6076 1 11 1C7.39244 1 4.03015 3.1257 1.68983 6.8048C0.770056 8.24578 0.770056 10.6679 1.68983 12.1088C4.03015 15.7879 7.39244 17.9136 11 17.9136Z" stroke="black" stroke-opacity="0.25" stroke-width="1.5" stroke-linecap="round" stroke-linejoin="round"/>
</svg>
