<svg width="19" height="19" viewBox="0 0 14 16" fill="none" xmlns="http://www.w3.org/2000/svg">
<path d="M8.60185 12.8777C8.60185 13.2989 8.32564 13.8512 7.97351 14.0653L7 14.6936C6.09551 15.2528 4.83889 14.6245 4.83889 13.506V9.81209C4.83889 9.32187 4.56271 8.69357 4.27963 8.34834L1.62829 5.55892C1.27616 5.2068 1 4.5854 1 4.16423V2.56238C1 1.72694 1.62832 1.09863 2.39472 1.09863H11.6053C12.3717 1.09863 13 1.72693 13 2.49333V4.02613C13 4.58539 12.6479 5.28275 12.3026 5.62797" stroke="#292D32" stroke-miterlimit="10" stroke-linecap="round" stroke-linejoin="round"/>
<path d="M9.81003 11.1166C11.0303 11.1166 12.0195 10.1274 12.0195 8.9072C12.0195 7.68696 11.0303 6.69775 9.81003 6.69775C8.58979 6.69775 7.60059 7.68696 7.60059 8.9072C7.60059 10.1274 8.58979 11.1166 9.81003 11.1166Z" stroke="#292D32" stroke-linecap="round" stroke-linejoin="round"/>
<path d="M12.4336 11.5308L11.7432 10.8403" stroke="#292D32" stroke-linecap="round" stroke-linejoin="round"/>
</svg>
