<svg width="16" height="18" viewBox="0 0 16 18" fill="none" xmlns="http://www.w3.org/2000/svg">
<path d="M9.72391 14.5177C9.72391 15.001 9.40694 15.6349 9.00283 15.8806L7.88562 16.6016C6.84763 17.2434 5.40553 16.5224 5.40553 15.2387V10.9996C5.40553 10.437 5.08859 9.71598 4.76372 9.3198L1.72103 6.11865C1.31692 5.71455 1 5.00143 1 4.51809V2.6798C1 1.72105 1.72106 1 2.60059 1H13.1707C14.0502 1 14.7712 1.72104 14.7712 2.60056V4.35961C14.7712 5.00142 14.3671 5.80171 13.971 6.19789" stroke="#0070FF" stroke-width="1.5" stroke-miterlimit="10" stroke-linecap="round" stroke-linejoin="round"/>
<path d="M11.1108 12.4972C12.5111 12.4972 13.6463 11.362 13.6463 9.96161C13.6463 8.56126 12.5111 7.42604 11.1108 7.42604C9.71041 7.42604 8.5752 8.56126 8.5752 9.96161C8.5752 11.362 9.71041 12.4972 11.1108 12.4972Z" stroke="#0070FF" stroke-width="1.5" stroke-linecap="round" stroke-linejoin="round"/>
<path d="M14.122 12.9726L13.3296 12.1802" stroke="#0070FF" stroke-width="1.5" stroke-linecap="round" stroke-linejoin="round"/>
</svg>
