<svg width="25" height="25" viewBox="0 0 23 22" fill="none" xmlns="http://www.w3.org/2000/svg">
<path d="M8.5 9C9.60457 9 10.5 8.10457 10.5 7C10.5 5.89543 9.60457 5 8.5 5C7.39543 5 6.5 5.89543 6.5 7C6.5 8.10457 7.39543 9 8.5 9Z" stroke="#845DC2" stroke-width="1.5" stroke-linecap="round" stroke-linejoin="round"/>
<path d="M12.5 1H8.5C3.5 1 1.5 3 1.5 8V14C1.5 19 3.5 21 8.5 21H14.5C19.5 21 21.5 19 21.5 14V9" stroke="#845DC2" stroke-width="1.5" stroke-linecap="round" stroke-linejoin="round"/>
<path d="M15.25 4H20.75" stroke="#845DC2" stroke-width="1.5" stroke-linecap="round"/>
<path d="M18 6.75V1.25" stroke="#845DC2" stroke-width="1.5" stroke-linecap="round"/>
<path d="M2.16992 17.9496L7.09992 14.6396C7.88992 14.1096 9.02992 14.1696 9.73992 14.7796L10.0699 15.0696C10.8499 15.7396 12.1099 15.7396 12.8899 15.0696L17.0499 11.4996C17.8299 10.8296 19.0899 10.8296 19.8699 11.4996L21.4999 12.8996" stroke="#845DC2" stroke-width="1.5" stroke-linecap="round" stroke-linejoin="round"/>
</svg>
