<svg width="16" height="16" viewBox="0 0 14 14" fill="none" xmlns="http://www.w3.org/2000/svg">
<path d="M5.2 13H8.8C11.8 13 13 11.8 13 8.8V5.2C13 2.2 11.8 1 8.8 1H5.2C2.2 1 1 2.2 1 5.2V8.8C1 11.8 2.2 13 5.2 13Z" stroke="white" stroke-linecap="round" stroke-linejoin="round"/>
<path d="M5.2 5.7999C5.86274 5.7999 6.4 5.26264 6.4 4.5999C6.4 3.93716 5.86274 3.3999 5.2 3.3999C4.53726 3.3999 4 3.93716 4 4.5999C4 5.26264 4.53726 5.7999 5.2 5.7999Z" stroke="white" stroke-linecap="round" stroke-linejoin="round"/>
<path d="M1.40161 11.17L4.35961 9.18404C4.83361 8.86604 5.51761 8.90203 5.94361 9.26803L6.14161 9.44203C6.60961 9.84403 7.36561 9.84403 7.83361 9.44203L10.3296 7.30004C10.7976 6.89804 11.5536 6.89804 12.0216 7.30004L12.9996 8.14003" stroke="white" stroke-linecap="round" stroke-linejoin="round"/>
</svg>
