<svg width="14" height="14" viewBox="0 0 12 12" fill="none" xmlns="http://www.w3.org/2000/svg">
<g clip-path="url(#clip0_1371_5948)">
<path d="M6.78912 1.46088C6.8782 1.54996 6.99902 1.6 7.12499 1.6H9.72832L6.86549 4.46283C6.1118 3.87578 5.16564 3.58924 4.21084 3.66109C3.2259 3.73522 2.30713 4.18505 1.64454 4.91756C0.981951 5.65007 0.626236 6.60921 0.650964 7.59662C0.675692 8.58403 1.07897 9.52417 1.7774 10.2226C2.47582 10.921 3.41596 11.3243 4.40337 11.349C5.39078 11.3738 6.34993 11.018 7.08244 10.3555C7.81495 9.69287 8.26478 8.77409 8.3389 7.78916C8.41075 6.83436 8.12421 5.88819 7.53716 5.13451L10.4 2.27167V4.875C10.4 5.00098 10.45 5.1218 10.5391 5.21088C10.6282 5.29995 10.749 5.35 10.875 5.35C11.001 5.35 11.1218 5.29995 11.2109 5.21088C11.2999 5.1218 11.35 5.00098 11.35 4.875V1.125C11.35 0.999022 11.2999 0.878204 11.2109 0.789124L11.1402 0.859835L11.2109 0.789124C11.1218 0.700045 11.001 0.65 10.875 0.65H7.12499C6.99902 0.65 6.8782 0.700044 6.78912 0.789124C6.70004 0.878204 6.64999 0.999022 6.64999 1.125C6.64999 1.25098 6.70004 1.3718 6.78912 1.46088ZM2.44939 5.44939C2.99324 4.90553 3.73087 4.6 4.49999 4.6C5.26912 4.6 6.00675 4.90553 6.5506 5.44939C7.09446 5.99325 7.39999 6.73087 7.39999 7.5C7.39999 8.26913 7.09446 9.00675 6.5506 9.55061C6.00675 10.0945 5.26912 10.4 4.49999 10.4C3.73087 10.4 2.99324 10.0945 2.44939 9.55061C1.90553 9.00675 1.59999 8.26913 1.59999 7.5C1.59999 6.73087 1.90553 5.99325 2.44939 5.44939Z" fill="#292D32" stroke="#292D32" stroke-width="0.2"/>
</g>
<defs>
<clipPath id="clip0_1371_5948">
<rect width="12" height="12" fill="white"/>
</clipPath>
</defs>
</svg>
