<svg width="20" height="20" viewBox="0 0 20 20" fill="none" xmlns="http://www.w3.org/2000/svg">
<g id="Group 11">
<g id="Group">
<path id="Vector" d="M20 10.2399C20 9.56449 19.9333 8.86734 19.8222 8.21375H10.1973V12.0699H15.7099C15.4876 13.3117 14.7541 14.401 13.6649 15.0982L16.9547 17.6036C18.8886 15.8389 20 13.2681 20 10.2399Z" fill="#4280EF"/>
<path id="Vector_2" d="M10.1974 20C12.9537 20 15.2655 19.1068 16.9548 17.5817L13.665 15.0981C12.7536 15.7081 11.5755 16.0567 10.1974 16.0567C7.52998 16.0567 5.28491 14.2921 4.46246 11.9392L1.08374 14.4881C2.81756 17.865 6.32964 20 10.1974 20Z" fill="#34A353"/>
<path id="Vector_3" d="M4.46235 11.9174C4.04001 10.6756 4.04001 9.32483 4.46235 8.08302L1.08363 5.51227C-0.361211 8.34446 -0.361211 11.6777 1.08363 14.4881L4.46235 11.9174Z" fill="#F6B704"/>
<path id="Vector_4" d="M10.1974 3.96545C11.6422 3.94367 13.0648 4.48832 14.1096 5.46869L17.0215 2.59293C15.1765 0.893617 12.7314 -0.0213982 10.1974 0.000387859C6.32964 0.000387859 2.81756 2.13542 1.08374 5.51227L4.46246 8.08302C5.28491 5.70834 7.52998 3.96545 10.1974 3.96545Z" fill="#E54335"/>
</g>
</g>
</svg>
