<svg width="14" height="14" viewBox="0 0 14 14" fill="none" xmlns="http://www.w3.org/2000/svg">
<path d="M5.27591 6.56546C5.21316 6.55918 5.13787 6.55918 5.06885 6.56546C3.57552 6.51526 2.38965 5.29174 2.38965 3.78587C2.38965 2.24862 3.63199 1 5.17551 1C6.71276 1 7.96138 2.24862 7.96138 3.78587C7.9551 5.29174 6.76923 6.51526 5.27591 6.56546Z" stroke="#292D32" stroke-linecap="round" stroke-linejoin="round"/>
<path d="M9.82534 2.25488C11.0426 2.25488 12.0214 3.23997 12.0214 4.45095C12.0214 5.63682 11.0802 6.60309 9.90691 6.64701C9.85672 6.64074 9.80024 6.64074 9.74377 6.64701" stroke="#292D32" stroke-linecap="round" stroke-linejoin="round"/>
<path d="M2.13882 8.8807C0.620394 9.89717 0.620394 11.5536 2.13882 12.5638C3.8643 13.7183 6.69408 13.7183 8.41956 12.5638C9.93798 11.5474 9.93798 9.89089 8.41956 8.8807C6.70036 7.73247 3.87057 7.73247 2.13882 8.8807Z" stroke="#292D32" stroke-linecap="round" stroke-linejoin="round"/>
<path d="M11.0361 12.294C11.4879 12.1999 11.9146 12.0179 12.2659 11.7481C13.2447 11.014 13.2447 9.80301 12.2659 9.0689C11.9208 8.80537 11.5004 8.62969 11.055 8.5293" stroke="#292D32" stroke-linecap="round" stroke-linejoin="round"/>
</svg>
