<svg width="30" height="30" viewBox="0 0 26 26" fill="none" xmlns="http://www.w3.org/2000/svg">
<g id="Group 917">
<g id="Group 916">
<path id="Vector" d="M19 20.7225H14.2L8.85999 24.2745C8.06799 24.8025 7 24.2385 7 23.2785V20.7225C3.4 20.7225 1 18.3225 1 14.7225V7.52246C1 3.92246 3.4 1.52246 7 1.52246H19C22.6 1.52246 25 3.92246 25 7.52246V14.7225C25 18.3225 22.6 20.7225 19 20.7225Z" stroke="#292D32" stroke-width="1.5" stroke-miterlimit="10" stroke-linecap="round" stroke-linejoin="round"/>
<path id="Vector_2" d="M13.0115 12.2369V11.985C13.0115 11.169 13.5155 10.7369 14.0195 10.3889C14.5115 10.0529 15.0035 9.62095 15.0035 8.82895C15.0035 7.72495 14.1155 6.83691 13.0115 6.83691C11.9075 6.83691 11.0195 7.72495 11.0195 8.82895" stroke="#292D32" stroke-width="1.5" stroke-linecap="round" stroke-linejoin="round"/>
<path id="Vector_3" d="M12.993 15.1063H13.0038" stroke="#292D32" stroke-width="1.5" stroke-linecap="round" stroke-linejoin="round"/>
</g>
</g>
</svg>
