<svg width="19" height="18" viewBox="0 0 19 18" fill="none" xmlns="http://www.w3.org/2000/svg">
<path d="M9.5 15C12.8137 15 15.5 12.3137 15.5 9C15.5 5.68629 12.8137 3 9.5 3C6.18629 3 3.5 5.68629 3.5 9C3.5 12.3137 6.18629 15 9.5 15Z" stroke="#EDF2F4" stroke-width="1.5" stroke-linecap="round" stroke-linejoin="round"/>
<path d="M9.5001 11.4C10.8256 11.4 11.9001 10.3255 11.9001 9.00001C11.9001 7.67452 10.8256 6.60001 9.5001 6.60001C8.17461 6.60001 7.1001 7.67452 7.1001 9.00001C7.1001 10.3255 8.17461 11.4 9.5001 11.4Z" stroke="#EDF2F4" stroke-width="1.5" stroke-linecap="round" stroke-linejoin="round"/>
<path d="M9.5 2.6V1" stroke="#EDF2F4" stroke-width="1.5" stroke-linecap="round" stroke-linejoin="round"/>
<path d="M3.1 9H1.5" stroke="#EDF2F4" stroke-width="1.5" stroke-linecap="round" stroke-linejoin="round"/>
<path d="M9.5 15.4V17" stroke="#EDF2F4" stroke-width="1.5" stroke-linecap="round" stroke-linejoin="round"/>
<path d="M15.8999 9H17.4999" stroke="#EDF2F4" stroke-width="1.5" stroke-linecap="round" stroke-linejoin="round"/>
</svg>
