<svg width="14" height="14" viewBox="0 0 10 10" fill="none" xmlns="http://www.w3.org/2000/svg">
<path d="M2.59961 4.2V3.4C2.59961 2.076 2.99961 1 4.99961 1C6.99961 1 7.39961 2.076 7.39961 3.4V4.2" stroke="white" stroke-width="0.5" stroke-linecap="round" stroke-linejoin="round"/>
<path d="M5 7.59961C5.55228 7.59961 6 7.15189 6 6.59961C6 6.04732 5.55228 5.59961 5 5.59961C4.44772 5.59961 4 6.04732 4 6.59961C4 7.15189 4.44772 7.59961 5 7.59961Z" stroke="white" stroke-width="0.5" stroke-linecap="round" stroke-linejoin="round"/>
<path d="M7 9.00117H3C1.4 9.00117 1 8.60117 1 7.00117V6.20117C1 4.60117 1.4 4.20117 3 4.20117H7C8.6 4.20117 9 4.60117 9 6.20117V7.00117C9 8.60117 8.6 9.00117 7 9.00117Z" stroke="white" stroke-width="0.5" stroke-linecap="round" stroke-linejoin="round"/>
</svg>
