<svg width="84" height="28" viewBox="0 0 84 28" fill="none" xmlns="http://www.w3.org/2000/svg">
<g id="Group 1">
<path id="Vector" d="M54.2137 23.9477C54.2137 24.1564 54.2569 24.3638 54.3446 24.5688C54.431 24.7738 54.5496 24.9565 54.6978 25.1195C54.8472 25.2825 55.0213 25.4146 55.2213 25.5171C55.4213 25.6196 55.6374 25.6727 55.8683 25.6776C56.1091 25.6776 56.3215 25.648 56.5055 25.5875C56.6895 25.527 56.8759 25.4196 57.0624 25.264C57.1513 25.1887 57.2501 25.1183 57.36 25.0541C57.4686 24.9899 57.5884 24.9578 57.7168 24.9578C57.7922 24.9578 57.8724 24.975 57.9576 25.0084C58.0416 25.0417 58.1293 25.096 58.2182 25.1714C58.2935 25.2381 58.3503 25.3171 58.3886 25.4085C58.4268 25.4998 58.4441 25.5949 58.4417 25.6962C58.4392 25.7962 58.417 25.895 58.375 25.9937C58.333 26.0925 58.2688 26.1851 58.1848 26.274C57.9082 26.5543 57.581 26.768 57.2007 26.9149C56.8204 27.0618 56.4203 27.1347 56.0029 27.1347C55.5584 27.1347 55.1398 27.0532 54.7484 26.8914C54.357 26.7285 54.0137 26.505 53.7198 26.221C53.4259 25.9369 53.195 25.6011 53.0258 25.2158C52.8567 24.8306 52.7727 24.4157 52.7727 23.9711C52.7776 23.9662 52.7789 23.9625 52.7789 23.9576H52.7727C52.7727 23.513 52.8567 23.0957 53.0258 22.7067C53.195 22.3178 53.4259 21.9794 53.7198 21.6917C54.0137 21.404 54.3557 21.1793 54.7484 21.0138C55.1398 20.8496 55.5584 20.7668 56.0029 20.7668C56.4215 20.7668 56.8204 20.8372 57.2007 20.9768C57.581 21.1175 57.9095 21.3274 58.1848 21.6077C58.2688 21.6917 58.3342 21.7843 58.3787 21.8843C58.4231 21.9844 58.4466 22.0844 58.4491 22.1844C58.4515 22.2844 58.433 22.3807 58.3923 22.4721C58.3528 22.5635 58.2923 22.645 58.212 22.7154C58.1231 22.7907 58.0391 22.845 57.9589 22.8759C57.8786 22.9068 57.8008 22.9228 57.7255 22.9228C57.5958 22.9228 57.4773 22.8907 57.3686 22.8265C57.26 22.7623 57.1587 22.6919 57.0649 22.6166C56.8784 22.4746 56.6932 22.3721 56.5104 22.3091C56.3277 22.2461 56.1363 22.2153 55.9363 22.2153C55.7091 22.2153 55.4917 22.2622 55.2818 22.356C55.0731 22.4499 54.8904 22.5758 54.7348 22.7363C54.5792 22.8969 54.4545 23.0809 54.3607 23.2908C54.2668 23.4995 54.2199 23.718 54.2199 23.9452L54.2137 23.9514V23.9477Z" fill="#8A68C5"/>
<path id="Vector_2" d="M59.0999 23.9477C59.0999 23.5068 59.1838 23.0944 59.353 22.7092C59.5222 22.3239 59.7506 21.9868 60.0408 21.6979C60.3309 21.4089 60.6668 21.1805 61.0521 21.0138C61.4373 20.8471 61.8473 20.7631 62.2832 20.7631C62.719 20.7631 63.1376 20.8471 63.5241 21.0138C63.9119 21.1805 64.249 21.4089 64.5354 21.6979C64.8219 21.9868 65.0479 22.3239 65.2133 22.7092C65.3776 23.0944 65.4603 23.5068 65.4603 23.9477C65.4603 24.3885 65.3776 24.796 65.2133 25.1825C65.0491 25.569 64.8231 25.9085 64.5354 26.1975C64.2477 26.4864 63.9119 26.7148 63.5241 26.8815C63.1364 27.0482 62.7228 27.1322 62.2832 27.1322C61.8436 27.1322 61.4361 27.0482 61.0521 26.8815C60.6668 26.7148 60.3297 26.4864 60.0408 26.1975C59.7518 25.9085 59.5222 25.5702 59.353 25.1825C59.1838 24.7947 59.0999 24.3836 59.0999 23.9477ZM60.5483 23.9477C60.5483 24.1835 60.594 24.407 60.6853 24.6182C60.7767 24.8293 60.9014 25.0145 61.0595 25.1726C61.2175 25.3306 61.4003 25.4554 61.6102 25.5467C61.8189 25.6381 62.0436 25.6838 62.2844 25.6838C62.5252 25.6838 62.7499 25.6381 62.9623 25.5467C63.1747 25.4554 63.3574 25.3306 63.513 25.1726C63.6686 25.0145 63.7909 24.8293 63.8798 24.6182C63.9687 24.407 64.0131 24.1835 64.0131 23.9477C64.0131 23.7118 63.9687 23.4821 63.8798 23.2698C63.7909 23.0586 63.6686 22.8746 63.513 22.719C63.3574 22.5635 63.1735 22.44 62.9623 22.3486C62.7512 22.2572 62.5252 22.2115 62.2844 22.2115C62.0436 22.2115 61.8251 22.2572 61.6139 22.3486C61.4028 22.44 61.2175 22.5635 61.0595 22.719C60.9014 22.8746 60.7767 23.0586 60.6853 23.2698C60.594 23.4809 60.5483 23.7069 60.5483 23.9477Z" fill="#8A68C5"/>
<path id="Vector_3" d="M67.7707 26.3444C67.7707 26.5445 67.7028 26.7124 67.5669 26.8482C67.4311 26.9841 67.2632 27.052 67.0631 27.052C66.9656 27.052 66.8718 27.0334 66.7829 26.9952C66.6939 26.9581 66.6149 26.9075 66.5458 26.8445C66.4766 26.7828 66.4223 26.7075 66.3828 26.621C66.342 26.5346 66.3223 26.442 66.3223 26.3444V23.2006C66.3223 22.8672 66.3877 22.5524 66.5186 22.256C66.6495 21.9597 66.8285 21.7016 67.0557 21.4818C67.2829 21.262 67.546 21.0867 67.846 20.9582C68.1461 20.8298 68.4634 20.7644 68.7968 20.7644C69.1302 20.7644 69.4698 20.8311 69.7748 20.9644C70.0798 21.0978 70.3477 21.2805 70.5799 21.5114C70.8108 21.2805 71.0812 21.0978 71.3911 20.9644C71.701 20.8311 72.0283 20.7644 72.3752 20.7644C72.7222 20.7644 73.0297 20.8273 73.3236 20.9508C73.6175 21.0755 73.8755 21.2472 74.0978 21.4645C74.3201 21.6831 74.4979 21.9362 74.6312 22.2251C74.7646 22.5141 74.8387 22.824 74.851 23.1525C74.851 23.1611 74.851 23.1722 74.8547 23.1821C74.8572 23.1932 74.8584 23.2031 74.8584 23.2117V26.3432C74.8584 26.4407 74.8399 26.5333 74.8016 26.6198C74.7633 26.7062 74.7127 26.7815 74.6485 26.8433C74.5843 26.9063 74.509 26.9557 74.425 26.9939C74.341 27.0322 74.2497 27.0507 74.1509 27.0507C74.0521 27.0507 73.9583 27.0322 73.8669 26.9939C73.7755 26.9569 73.6965 26.9063 73.6298 26.8433C73.5631 26.7815 73.51 26.7062 73.4693 26.6198C73.4285 26.5333 73.4088 26.4407 73.4088 26.3432V23.192C73.4038 23.05 73.373 22.9179 73.3149 22.7981C73.2569 22.6783 73.1803 22.5746 73.0853 22.4882C72.9889 22.4017 72.8803 22.3338 72.758 22.2844C72.6358 22.2363 72.5024 22.2116 72.3604 22.2116C72.2184 22.2116 72.0826 22.2387 71.9529 22.2918C71.8233 22.3449 71.7122 22.4178 71.6158 22.5091C71.5195 22.6005 71.4442 22.7067 71.3886 22.8302C71.3331 22.9537 71.3047 23.0846 71.3047 23.2278V26.3457C71.3047 26.5457 71.2368 26.7136 71.1009 26.8495C70.9651 26.9853 70.7972 27.0532 70.5971 27.0532C70.4996 27.0532 70.4057 27.0347 70.3168 26.9964C70.2279 26.9594 70.1489 26.9087 70.0798 26.8458C70.0106 26.784 69.9563 26.7087 69.9168 26.6223C69.876 26.5358 69.8563 26.4432 69.8563 26.3457V23.2019C69.8513 23.0599 69.8217 22.9265 69.7661 22.8043C69.7106 22.682 69.6365 22.5771 69.5426 22.4906C69.4488 22.4042 69.3401 22.3363 69.2154 22.2869C69.0907 22.2387 68.9573 22.214 68.8153 22.214C68.6733 22.214 68.5387 22.24 68.4115 22.2906C68.2844 22.3412 68.1732 22.4128 68.0782 22.5042C67.9818 22.5956 67.9065 22.7005 67.8509 22.8215C67.7954 22.9413 67.767 23.071 67.767 23.2093V26.3469L67.7707 26.3444Z" fill="#8A68C5"/>
<path id="Vector_4" d="M49.8821 27.1322C50.6875 27.1322 51.3404 26.4793 51.3404 25.6739C51.3404 24.8685 50.6875 24.2156 49.8821 24.2156C49.0767 24.2156 48.4238 24.8685 48.4238 25.6739C48.4238 26.4793 49.0767 27.1322 49.8821 27.1322Z" fill="#8A68C5"/>
<g id="Group 809">
<path id="Vector_5" d="M0 2.80423C0 2.58938 0.0382787 2.38934 0.114836 2.20535C0.191394 2.02137 0.293882 1.85961 0.424771 1.72131C0.554424 1.58178 0.710009 1.47435 0.889055 1.3978C1.0681 1.32124 1.26073 1.28296 1.46817 1.28296C1.67562 1.28296 1.87813 1.32124 2.05347 1.3978C2.22881 1.47435 2.38069 1.58178 2.51034 1.72131C2.64 1.86084 2.74125 2.02137 2.81287 2.20535C2.88449 2.38934 2.9203 2.58938 2.9203 2.80423V7.00254C3.4315 6.67038 3.98099 6.41231 4.56875 6.22956C5.15652 6.04558 5.77268 5.9542 6.41848 5.9542C7.3063 5.9542 8.13855 6.12213 8.91401 6.45923C9.68946 6.7951 10.3674 7.25321 10.9452 7.83109C11.5231 8.40898 11.9812 9.08935 12.3171 9.86974C12.653 10.6501 12.8221 11.4849 12.8221 12.3727C12.8221 13.2605 12.6542 14.0816 12.3171 14.862C11.9812 15.6424 11.5231 16.324 10.9452 16.9069C10.3661 17.4897 9.68946 17.949 8.91401 18.2861C8.13855 18.622 7.3063 18.7912 6.41848 18.7912C5.53066 18.7912 4.70952 18.6232 3.92913 18.2861C3.14873 17.949 2.46713 17.4897 1.8843 16.9069C1.30148 16.324 0.842132 15.6424 0.505032 14.862C0.169167 14.0816 0 13.2519 0 12.3727L0 2.80423ZM2.9203 12.3702C2.9203 12.8456 3.01167 13.2963 3.19566 13.7223C3.37964 14.1483 3.63031 14.5212 3.94888 14.8386C4.26746 15.1571 4.63667 15.4078 5.05897 15.5918C5.48003 15.7758 5.9332 15.8672 6.41725 15.8672C6.90129 15.8672 7.35446 15.7758 7.77552 15.5918C8.19659 15.4078 8.56703 15.1571 8.88561 14.8386C9.20418 14.52 9.45238 14.1483 9.63266 13.7223C9.8117 13.2963 9.90184 12.8456 9.90184 12.3702C9.90184 11.8948 9.8117 11.4305 9.63266 11.0045C9.45361 10.5785 9.20418 10.2081 8.88561 9.89444C8.56703 9.5808 8.19659 9.33137 7.77552 9.14739C7.35446 8.9634 6.90129 8.87203 6.41725 8.87203C5.9332 8.87203 5.48003 8.96464 5.05897 9.14739C4.63667 9.33137 4.26746 9.57957 3.94888 9.89444C3.63031 10.2081 3.37964 10.5785 3.19566 11.0045C3.01167 11.4305 2.9203 11.8862 2.9203 12.3702Z" fill="#845DC2"/>
<path id="Vector_6" d="M14.0063 12.3715C14.0063 11.4836 14.1767 10.6514 14.5176 9.87593C14.8584 9.10047 15.3202 8.42133 15.903 7.83727C16.4858 7.25445 17.165 6.7951 17.9416 6.458C18.7171 6.12214 19.5444 5.95297 20.4236 5.95297C21.3028 5.95297 22.1461 6.1209 22.9265 6.458C23.7069 6.79387 24.3861 7.25445 24.9652 7.83727C25.5431 8.4201 25.9987 9.10047 26.3309 9.87593C26.663 10.6514 26.8285 11.4836 26.8285 12.3715V17.1341C26.8285 17.3403 26.7902 17.5329 26.7137 17.7132C26.6371 17.8922 26.5321 18.0491 26.3975 18.1836C26.263 18.3182 26.1037 18.4257 25.9197 18.5072C25.7357 18.5874 25.5406 18.6282 25.3344 18.6282C24.9849 18.6282 24.6886 18.5257 24.4466 18.3182C24.2045 18.112 24.0428 17.8527 23.9625 17.5378C23.4513 17.9231 22.8969 18.2281 22.3005 18.4528C21.7041 18.6763 21.078 18.7887 20.4236 18.7887C19.5444 18.7887 18.7171 18.6208 17.9416 18.2837C17.1662 17.9466 16.4858 17.4872 15.903 16.9044C15.3202 16.3216 14.8584 15.64 14.5176 14.8596C14.1767 14.0792 14.0063 13.2494 14.0063 12.3702V12.3715ZM16.9254 12.3715C16.9254 12.8468 17.0168 13.2976 17.2008 13.7236C17.3848 14.1496 17.6354 14.5225 17.954 14.8398C18.2726 15.1584 18.6418 15.4091 19.0641 15.593C19.4851 15.777 19.9383 15.8684 20.4236 15.8684C20.9089 15.8684 21.3633 15.777 21.7893 15.593C22.2153 15.4091 22.5857 15.1584 22.8994 14.8398C23.213 14.5212 23.46 14.1496 23.639 13.7236C23.8181 13.2976 23.9082 12.8468 23.9082 12.3715C23.9082 11.8961 23.8181 11.4318 23.639 11.0058C23.46 10.5798 23.213 10.2093 22.8994 9.89568C22.5857 9.58204 22.2153 9.33261 21.7893 9.14863C21.3633 8.96464 20.9076 8.87327 20.4236 8.87327C19.9396 8.87327 19.4975 8.96588 19.0715 9.14863C18.6455 9.33261 18.2726 9.58081 17.9552 9.89568C17.6367 10.2093 17.386 10.5798 17.202 11.0058C17.018 11.4318 16.9266 11.8874 16.9266 12.3715H16.9254Z" fill="#D55FAD"/>
<path id="Vector_7" d="M31.6564 14.0286C31.8342 14.4114 32.0886 14.7534 32.4208 15.0534C32.7529 15.3547 33.1246 15.5906 33.5346 15.761C33.9445 15.9314 34.3767 16.0252 34.8299 16.0425C35.283 16.0598 35.7226 15.9746 36.1499 15.7869C36.5894 15.5832 36.9525 15.3486 37.2389 15.0818C37.5254 14.8151 37.7736 14.4607 37.9835 14.0175C38.0823 13.8038 38.2033 13.5914 38.3478 13.3815C38.4923 13.1716 38.6824 13.0111 38.9183 12.9024C39.0566 12.8382 39.2171 12.8012 39.3998 12.7901C39.5826 12.7789 39.7876 12.8049 40.0148 12.8679C40.2099 12.9259 40.3803 13.0222 40.5272 13.1568C40.6742 13.2914 40.7878 13.4519 40.868 13.6359C40.9483 13.8211 40.9927 14.0212 40.9977 14.236C41.0038 14.4509 40.9668 14.6756 40.8878 14.9102C40.6211 15.6573 40.2025 16.3253 39.6308 16.9168C39.059 17.5082 38.391 17.9812 37.6267 18.3355C36.8129 18.7134 35.9795 18.9196 35.125 18.9542C34.2717 18.99 33.4555 18.8714 32.6764 18.5998C31.8972 18.3281 31.1909 17.912 30.555 17.3514C29.9191 16.7908 29.4128 16.1043 29.0349 15.2905C29.0387 15.2794 29.0399 15.2683 29.0349 15.2609L29.0226 15.2671C28.6448 14.4533 28.446 13.6186 28.425 12.7641C28.404 11.9084 28.5398 11.0935 28.8337 10.3205C29.1276 9.54625 29.5622 8.84365 30.1389 8.2102C30.7155 7.57674 31.4107 7.07171 32.2244 6.69386C32.9888 6.33948 33.779 6.12833 34.594 6.06165C35.409 5.99497 36.1869 6.10116 36.929 6.38023C37.155 6.46296 37.3513 6.57779 37.518 6.72226C37.6847 6.86797 37.8119 7.03096 37.9008 7.21248C37.9897 7.39399 38.0366 7.58539 38.0403 7.78543C38.044 7.9867 38.0033 8.1855 37.9169 8.3843C37.8181 8.59792 37.7094 8.76709 37.5896 8.8918C37.4699 9.01652 37.3402 9.1116 37.2019 9.17581C36.9661 9.28571 36.7203 9.32769 36.4672 9.30176C36.2128 9.27706 35.9683 9.23384 35.7337 9.17457C35.2719 9.07332 34.8471 9.04245 34.4606 9.0832C34.0742 9.12395 33.6975 9.2289 33.332 9.39931C32.9172 9.59194 32.5578 9.86236 32.2553 10.2106C31.9515 10.5588 31.7256 10.9453 31.5774 11.37C31.428 11.7948 31.3576 12.2381 31.3638 12.6999C31.37 13.1617 31.47 13.6001 31.6626 14.015L31.6564 14.0323V14.0286Z" fill="#FF6D91"/>
<path id="Vector_8" d="M54.4496 17.2007C54.4496 17.3983 54.4113 17.5848 54.3348 17.7589C54.2582 17.933 54.1533 18.0861 54.0187 18.2157C53.8841 18.3466 53.7297 18.4467 53.5544 18.5183C53.379 18.5899 53.1889 18.6257 52.9827 18.6257C52.7765 18.6257 52.5986 18.5899 52.4245 18.5183C52.2492 18.4467 52.0949 18.3454 51.9603 18.2157C51.8257 18.0861 51.7207 17.933 51.6441 17.7589C51.5676 17.5848 51.5293 17.3983 51.5293 17.2007V12.1479C51.5293 12.1171 51.5343 12.0874 51.5429 12.0603C51.5343 11.612 51.4528 11.1947 51.3009 10.8094C51.1478 10.4242 50.9391 10.0871 50.6748 9.8006C50.4106 9.51413 50.0945 9.28692 49.7265 9.12146C49.3585 8.956 48.9498 8.87203 48.5016 8.87203C48.0534 8.87203 47.6175 8.95106 47.2236 9.10788C46.8284 9.2647 46.4876 9.48449 46.2012 9.76726C45.9147 10.05 45.6875 10.3859 45.522 10.7761C45.3566 11.1663 45.2726 11.5948 45.2726 12.0603V17.1736C45.2726 17.3711 45.2343 17.5588 45.1578 17.7391C45.0812 17.9194 44.9787 18.0737 44.8478 18.2034C44.7182 18.3343 44.5651 18.4368 44.3909 18.5133C44.2168 18.5899 44.0254 18.6282 43.8192 18.6282C43.613 18.6282 43.4204 18.5899 43.2414 18.5133C43.0611 18.4368 42.9067 18.3343 42.7771 18.2034C42.6474 18.0737 42.5437 17.9194 42.4671 17.7391C42.3906 17.5588 42.3523 17.3711 42.3523 17.1736V2.76472C42.3523 2.55851 42.3906 2.36588 42.4671 2.18683C42.5437 2.00779 42.6486 1.85097 42.7832 1.71638C42.9178 1.58178 43.0747 1.47682 43.2537 1.40027C43.4327 1.32371 43.6217 1.28543 43.8192 1.28543C44.0168 1.28543 44.2168 1.32371 44.3909 1.40027C44.5663 1.47682 44.7182 1.58178 44.8478 1.71638C44.9775 1.85097 45.0812 2.00779 45.1578 2.18683C45.2343 2.36588 45.2726 2.55974 45.2726 2.76472V7.15072C45.7393 6.77411 46.2431 6.48023 46.7865 6.26908C47.3285 6.05793 47.9015 5.95297 48.5016 5.95297C49.3536 5.95297 50.1426 6.1172 50.8699 6.44442C51.596 6.77164 52.2245 7.21617 52.753 7.77676C53.2827 8.33736 53.6964 8.99427 53.9977 9.7475C54.2977 10.5007 54.4484 11.3033 54.4484 12.1554V17.2007H54.4496Z" fill="#FC966C"/>
<path id="Vector_9" d="M56.239 12.3715C56.239 11.4836 56.4094 10.6514 56.7502 9.87593C57.091 9.10047 57.5528 8.42133 58.1357 7.83727C58.7185 7.25445 59.3976 6.7951 60.1743 6.458C60.9498 6.12214 61.7771 5.95297 62.6563 5.95297C63.5354 5.95297 64.3788 6.1209 65.1592 6.458C65.9396 6.79387 66.6187 7.25445 67.1978 7.83727C67.777 8.4201 68.2314 9.10047 68.5635 9.87593C68.8957 10.6514 69.0612 11.4836 69.0612 12.3715V17.1341C69.0612 17.3403 69.0229 17.5329 68.9463 17.7132C68.8698 17.8922 68.7648 18.0491 68.6302 18.1836C68.4956 18.3182 68.3363 18.4257 68.1523 18.5072C67.9684 18.5874 67.7733 18.6282 67.567 18.6282C67.2176 18.6282 66.9212 18.5257 66.6792 18.3182C66.4372 18.112 66.2755 17.8527 66.1952 17.5378C65.684 17.9231 65.1296 18.2281 64.5331 18.4528C63.9367 18.6763 63.3107 18.7887 62.6563 18.7887C61.7771 18.7887 60.9498 18.6208 60.1743 18.2837C59.3989 17.9466 58.7185 17.4872 58.1357 16.9044C57.5528 16.3216 57.091 15.64 56.7502 14.8596C56.4094 14.0792 56.239 13.2494 56.239 12.3702V12.3715ZM59.1581 12.3715C59.1581 12.8468 59.2495 13.2976 59.4334 13.7236C59.6174 14.1496 59.8681 14.5225 60.1867 14.8398C60.5052 15.1584 60.8744 15.4091 61.2967 15.593C61.7178 15.777 62.171 15.8684 62.655 15.8684C63.1391 15.8684 63.5947 15.777 64.0207 15.593C64.4467 15.4091 64.8172 15.1584 65.1308 14.8398C65.4444 14.5212 65.6914 14.1496 65.8704 13.7236C66.0495 13.2976 66.1396 12.8468 66.1396 12.3715C66.1396 11.8961 66.0495 11.4318 65.8704 11.0058C65.6914 10.5798 65.4444 10.2093 65.1308 9.89568C64.8172 9.58204 64.4467 9.33261 64.0207 9.14863C63.5947 8.96464 63.1391 8.87327 62.655 8.87327C62.171 8.87327 61.7289 8.96588 61.3029 9.14863C60.8769 9.33261 60.504 9.58081 60.1867 9.89568C59.8681 10.2093 59.6174 10.5798 59.4334 11.0058C59.2495 11.4318 59.1581 11.8874 59.1581 12.3715Z" fill="#FFC55D"/>
<path id="Vector_10" d="M74.483 12.5999C74.483 13.058 74.5682 13.4865 74.7386 13.8853C74.909 14.2841 75.1424 14.6299 75.4387 14.9213C75.7351 15.2127 76.0845 15.4411 76.4883 15.6078C76.8921 15.7733 77.3231 15.8573 77.7799 15.8573C78.2368 15.8573 78.6653 15.7696 79.0653 15.5955C79.4654 15.4214 79.8099 15.1831 80.1013 14.883C80.3928 14.583 80.6237 14.2298 80.7941 13.8273C80.9645 13.4235 81.0497 12.9888 81.0497 12.5221V7.57054C81.0497 7.37298 81.0904 7.18652 81.1707 7.01242C81.2509 6.83707 81.3596 6.68272 81.4942 6.54813C81.6288 6.41354 81.7881 6.30858 81.9721 6.23202C82.156 6.15547 82.3462 6.11719 82.5438 6.11719C82.7413 6.11719 82.9377 6.15547 83.1093 6.23202C83.2797 6.30858 83.4304 6.41354 83.56 6.54813C83.6897 6.68272 83.7909 6.83707 83.8625 7.01242C83.9342 7.18776 83.97 7.37298 83.97 7.57054V12.5752C83.97 13.3111 83.849 14.0075 83.6069 14.6669C83.3649 15.3263 83.0328 15.9202 82.6117 16.45C82.1894 16.9797 81.6881 17.4316 81.1052 17.8083C80.5224 18.1849 79.8902 18.4541 79.2086 18.6158V21.7102C79.2086 21.9164 79.1703 22.1091 79.0937 22.2893C79.0172 22.4684 78.9122 22.6227 78.7776 22.7536C78.643 22.8833 78.4887 22.987 78.3134 23.0636C78.138 23.1401 77.9528 23.1784 77.7552 23.1784C77.3329 23.1784 76.9835 23.0389 76.7057 22.761C76.4278 22.4832 76.2883 22.1325 76.2883 21.7115V18.6035C75.6067 18.4331 74.9782 18.1589 74.4052 17.7823C73.831 17.4057 73.3334 16.9525 72.9111 16.424C72.4888 15.8943 72.1591 15.3028 71.922 14.6484C71.6837 13.994 71.5652 13.3025 71.5652 12.5764V7.57178C71.5652 7.37421 71.6035 7.18776 71.68 7.01365C71.7566 6.83831 71.8591 6.68396 71.99 6.54937C72.1208 6.41477 72.274 6.30982 72.4542 6.23326C72.6333 6.1567 72.8222 6.11842 73.0198 6.11842C73.2173 6.11842 73.405 6.1567 73.5853 6.23326C73.7644 6.30982 73.9212 6.41477 74.0558 6.54937C74.1904 6.68396 74.2953 6.83831 74.3719 7.01365C74.4484 7.18899 74.4867 7.37421 74.4867 7.57178V12.6036L74.483 12.5999Z" fill="#F8931B"/>
<path id="Vector_11" d="M29.9884 5.74922C31.576 5.74922 32.863 4.46221 32.863 2.87461C32.863 1.28701 31.576 0 29.9884 0C28.4008 0 27.1138 1.28701 27.1138 2.87461C27.1138 4.46221 28.4008 5.74922 29.9884 5.74922Z" fill="#FFC65F"/>
<path id="Vector_12" d="M34.8966 14.2459C35.9319 14.2459 36.7711 13.4066 36.7711 12.3714C36.7711 11.3362 35.9319 10.497 34.8966 10.497C33.8614 10.497 33.0222 11.3362 33.0222 12.3714C33.0222 13.4066 33.8614 14.2459 34.8966 14.2459Z" fill="#FFC65F"/>
</g>
</g>
</svg>
