<svg width="12" height="12" viewBox="0 0 8 9" fill="none" xmlns="http://www.w3.org/2000/svg">
<path d="M5.03853 6.20101C5.03305 6.14137 5.02905 6.04558 5.02589 5.94626C5.94063 5.8538 6.58232 5.63729 6.58232 5.38504C6.57979 5.38463 6.58 5.37465 6.58 5.3705C5.89621 4.76231 7.17284 0.440214 4.79621 0.527899C4.64695 0.403229 4.38568 0.29248 4.01095 0.29248C0.791789 0.532886 2.21516 4.61437 1.48168 5.38483C1.48126 5.38504 1.48063 5.38504 1.48021 5.38504C1.48021 5.38546 1.48042 5.38587 1.48042 5.38629L1.48021 5.3867L1.48063 5.38691C1.48358 5.63397 2.10358 5.84653 2.99179 5.94128C2.98926 6.00153 2.984 6.07613 2.97242 6.20101C2.60358 7.17967 0.114947 6.90498 0 8.79248H8C7.88526 6.90498 5.40737 7.17967 5.03853 6.20101Z" fill="#FF6D91"/>
</svg>
