<svg width="13" height="13" viewBox="0 0 12 12" fill="none" xmlns="http://www.w3.org/2000/svg">
<path d="M6.61531 8.38715L6.62149 8.4545L6.64534 8.51778C6.84565 9.04927 7.31216 9.35708 7.7418 9.56947C7.96429 9.67946 8.20522 9.77703 8.43946 9.869C8.49303 9.89003 8.54615 9.91074 8.59892 9.93131C8.78283 10.003 8.96255 10.073 9.14226 10.1496C9.60594 10.3471 10.0023 10.5612 10.2917 10.8515C10.4651 11.0255 10.6071 11.2337 10.6965 11.5H0.598071C0.687725 11.2342 0.830117 11.0262 1.00428 10.8522C1.29504 10.5618 1.69332 10.3474 2.15904 10.1499C2.33937 10.0734 2.5197 10.0033 2.70417 9.93172C2.7573 9.91109 2.81078 9.89033 2.86469 9.86924C3.09983 9.77727 3.34158 9.67973 3.56477 9.56978C3.99548 9.35761 4.4637 9.04987 4.66423 8.51778L4.688 8.45472L4.69422 8.38761C4.71091 8.20768 4.71919 8.09291 4.72326 7.99572L4.7429 7.52732L4.27674 7.47759C3.67034 7.41291 3.1816 7.31021 2.85764 7.19362C2.80019 7.17295 2.75135 7.15304 2.71024 7.13444C2.77402 6.9858 2.8161 6.82988 2.8462 6.681C2.90748 6.37788 2.93273 6.02937 2.94706 5.67494C2.95574 5.46012 2.96073 5.24156 2.96578 5.02027C2.97805 4.48267 2.99068 3.92901 3.05761 3.37383C3.15112 2.59807 3.34327 1.91844 3.72873 1.41904C4.09453 0.945092 4.67675 0.579081 5.68066 0.500075C6.10236 0.503582 6.34618 0.628889 6.4506 0.716107L6.59784 0.839089L6.78956 0.832016C7.13198 0.819382 7.37513 0.886527 7.55467 0.989296C7.73486 1.09244 7.88418 1.25052 8.00804 1.47182C8.2666 1.93376 8.38313 2.61282 8.42724 3.40989C8.45402 3.89373 8.45346 4.35639 8.45292 4.80962C8.45254 5.12127 8.45217 5.42845 8.4607 5.73501C8.47049 6.08727 8.49313 6.42992 8.55133 6.72149C8.57747 6.85242 8.61486 6.99591 8.67404 7.13412C8.62935 7.15441 8.57554 7.17623 8.51153 7.19888C8.17577 7.31768 7.67002 7.42118 7.0451 7.48435L6.5808 7.53128L6.59563 7.9977C6.60003 8.13611 6.60601 8.28584 6.61531 8.38715ZM8.84411 7.03341C8.84422 7.03341 8.84323 7.03452 8.84082 7.03673C8.84279 7.03451 8.844 7.0334 8.84411 7.03341Z" stroke="#292D32"/>
</svg>
