<svg width="14" height="20" viewBox="0 0 14 20" fill="none" xmlns="http://www.w3.org/2000/svg">
<g id="Group 828">
<path id="Vector" d="M6.99565 8.80352C6.90767 8.79472 6.8021 8.79472 6.70533 8.80352C4.61149 8.73314 2.94873 7.01759 2.94873 4.90616C2.94873 2.75073 4.69067 1 6.85489 1C9.01031 1 10.761 2.75073 10.761 4.90616C10.7523 7.01759 9.08949 8.73314 6.99565 8.80352Z" stroke="#292D32" stroke-width="1.5" stroke-linecap="round" stroke-linejoin="round"/>
<path id="Vector_2" d="M2.59677 12.0503C0.467742 13.4755 0.467742 15.7981 2.59677 17.2145C5.01613 18.8332 8.98387 18.8332 11.4032 17.2145C13.5323 15.7893 13.5323 13.4667 11.4032 12.0503C8.99267 10.4403 5.02493 10.4403 2.59677 12.0503Z" stroke="#292D32" stroke-width="1.5" stroke-linecap="round" stroke-linejoin="round"/>
</g>
</svg>
