<svg width="20" height="20" viewBox="0 0 18 18" fill="none" xmlns="http://www.w3.org/2000/svg">
<path d="M13 14.5007H9.8L6.23999 16.8687C5.71199 17.2207 5 16.8447 5 16.2047V14.5007C2.6 14.5007 1 12.9007 1 10.5007V5.70068C1 3.30068 2.6 1.70068 5 1.70068H13C15.4 1.70068 17 3.30068 17 5.70068V10.5007C17 12.9007 15.4 14.5007 13 14.5007Z" stroke="#292D32" stroke-width="1.5" stroke-miterlimit="10" stroke-linecap="round" stroke-linejoin="round"/>
<path d="M10.381 9.47655H7.60952L7.13333 10.7007H6L8.37143 4.70068H9.62857L12 10.7007H10.8571L10.381 9.47655ZM10.0762 8.67482L9 5.89034L7.91429 8.67482H10.0762Z" fill="#292D32"/>
</svg>
