<svg width="20" height="20" viewBox="0 0 18 20" fill="none" xmlns="http://www.w3.org/2000/svg">
<path d="M12.7895 1.60449V4.77021C15.8684 6.53632 17.2587 8.88613 16.9605 11.8196C16.6623 14.7532 15.272 16.9622 12.7895 18.4466" stroke="#292D32" stroke-width="1.5" stroke-linecap="round" stroke-linejoin="round"/>
<path d="M4.69356 1.60449C3.79335 1.76001 3.14543 2.28738 2.74987 3.1866C2.15651 4.53543 1 9.16815 1 9.91008C1 10.6521 2.50218 12.6507 6.07444 15.6826C7.72973 17.0876 8.708 17.0159 9.23781 16.0735C9.76762 15.1311 9.06674 14.5267 8.17878 13.8305C6.5523 12.5553 4.41137 10.5371 4.41137 9.65122C4.41137 9.06061 4.96573 7.26074 6.07444 4.25164" stroke="#292D32" stroke-width="1.5" stroke-linecap="round" stroke-linejoin="round"/>
<path d="M2.34785 12.106C2.5644 14.2028 2.95724 16.3081 3.52635 18.4217" stroke="#292D32" stroke-width="1.5" stroke-linecap="round"/>
<path d="M12.7895 8.31787C13.4408 8.75059 13.8619 9.31366 14.0526 10.0072C14.2434 10.7007 14.299 11.3331 14.2195 11.9044" stroke="#292D32" stroke-width="1.5" stroke-linecap="round"/>
</svg>
