<svg width="20" height="20" viewBox="0 0 17 19" fill="none" xmlns="http://www.w3.org/2000/svg">
<path d="M4.2 9.36719C1 9.36719 1 10.7992 1 12.5672V13.3672C1 15.5752 1 17.3672 5 17.3672H11.4C14.6 17.3672 15.4 15.5752 15.4 13.3672V12.5672C15.4 10.7992 15.4 9.36719 12.2 9.36719C11.4 9.36719 11.176 9.53519 10.76 9.84719L9.944 10.7112C9 11.7192 7.4 11.7192 6.448 10.7112L5.64 9.84719C5.224 9.53519 5 9.36719 4.2 9.36719Z" stroke="#292D32" stroke-width="1.5" stroke-miterlimit="10" stroke-linecap="round" stroke-linejoin="round"/>
<path d="M13.8 9.36719V4.56719C13.8 2.79919 13.8 1.36719 10.6 1.36719H5.79999C2.59999 1.36719 2.59999 2.79919 2.59999 4.56719V9.36719" stroke="#292D32" stroke-width="1.5" stroke-miterlimit="10" stroke-linecap="round" stroke-linejoin="round"/>
</svg>
