<svg width="20" height="20" viewBox="0 0 18 16" fill="none" xmlns="http://www.w3.org/2000/svg">
<path d="M13 14.6039H5C2.6 14.6039 1 13.4039 1 10.6039V5.00391C1 2.20391 2.6 1.00391 5 1.00391H13C15.4 1.00391 17 2.20391 17 5.00391V10.6039C17 13.4039 15.4 14.6039 13 14.6039Z" stroke="#292D32" stroke-width="1.5" stroke-miterlimit="10" stroke-linecap="round" stroke-linejoin="round"/>
<path d="M8.99998 10.2043C10.3255 10.2043 11.4 9.12978 11.4 7.8043C11.4 6.47881 10.3255 5.4043 8.99998 5.4043C7.67449 5.4043 6.59998 6.47881 6.59998 7.8043C6.59998 9.12978 7.67449 10.2043 8.99998 10.2043Z" stroke="#292D32" stroke-width="1.5" stroke-miterlimit="10" stroke-linecap="round" stroke-linejoin="round"/>
<path d="M1 5.4043H1.8C4.2 5.4043 5 4.6043 5 2.2043V1.4043" stroke="#292D32" stroke-width="1.5" stroke-miterlimit="10" stroke-linecap="round" stroke-linejoin="round"/>
<path d="M17 5.4043H16.2C13.8 5.4043 13 4.6043 13 2.2043V1.4043" stroke="#292D32" stroke-width="1.5" stroke-miterlimit="10" stroke-linecap="round" stroke-linejoin="round"/>
<path d="M1 10.2031H1.8C4.2 10.2031 5 11.0031 5 13.4031V14.2031" stroke="#292D32" stroke-width="1.5" stroke-miterlimit="10" stroke-linecap="round" stroke-linejoin="round"/>
<path d="M17 10.2031H16.2C13.8 10.2031 13 11.0031 13 13.4031V14.2031" stroke="#292D32" stroke-width="1.5" stroke-miterlimit="10" stroke-linecap="round" stroke-linejoin="round"/>
</svg>
