<svg width="20" height="20" viewBox="0 0 18 15" fill="none" xmlns="http://www.w3.org/2000/svg">
<path d="M12.998 1.44629H4.994C1.92846 1.44629 1.07204 2.18266 1 5.04809C2.54477 5.04809 3.7934 6.30472 3.7934 7.84949C3.7934 9.39426 2.54477 10.6429 1 10.6509C1.07204 13.5163 1.92846 14.2527 4.994 14.2527H12.998C16.1996 14.2527 17 13.4523 17 10.2507V5.44829C17 2.24669 16.1996 1.44629 12.998 1.44629Z" stroke="#292D32" stroke-width="1.5" stroke-linecap="round" stroke-linejoin="round"/>
<path d="M6.59341 1.44629V4.24769" stroke="#292D32" stroke-width="1.5" stroke-linecap="round" stroke-linejoin="round"/>
<path d="M6.59341 11.4512V14.2526" stroke="#292D32" stroke-width="1.5" stroke-linecap="round" stroke-linejoin="round"/>
<path d="M11.4213 5.71246L11.9176 6.71296C11.9656 6.80901 12.0616 6.88104 12.1657 6.89705L13.2702 7.05713C13.5424 7.09715 13.6544 7.43332 13.4543 7.62542L12.6539 8.4018C12.5739 8.47384 12.5419 8.5859 12.5579 8.69795L12.75 9.7945C12.798 10.0666 12.5099 10.2747 12.2697 10.1467L11.2852 9.62642C11.1892 9.57839 11.0691 9.57839 10.9731 9.62642L9.98859 10.1467C9.74047 10.2747 9.46033 10.0666 9.50835 9.7945L9.70045 8.69795C9.71646 8.5859 9.68444 8.48184 9.6044 8.4018L8.81201 7.62542C8.61191 7.43332 8.72396 7.09715 8.9961 7.05713L10.1007 6.89705C10.2127 6.88104 10.3008 6.81701 10.3488 6.71296L10.837 5.71246C10.9491 5.46434 11.3013 5.46434 11.4213 5.71246Z" stroke="#292D32" stroke-width="1.5" stroke-linecap="round" stroke-linejoin="round"/>
</svg>
