<svg width="16" height="16" viewBox="0 0 16 16" fill="none" xmlns="http://www.w3.org/2000/svg">
<path d="M6.64707 1.26623L1.7849 5.16016C1.23764 5.59516 0.886834 6.5143 1.00611 7.20188L1.93925 12.7867C2.10764 13.783 3.06183 14.5898 4.07215 14.5898H11.9302C12.9335 14.5898 13.8947 13.776 14.0631 12.7867L14.9962 7.20188C15.1085 6.5143 14.7577 5.59516 14.2175 5.16016L9.35528 1.27325C8.60456 0.669862 7.39078 0.669855 6.64707 1.26623Z" stroke="#292D32" stroke-width="1.51347" stroke-linecap="round" stroke-linejoin="round"/>
<path d="M8.00116 10.1624C8.96988 10.1624 9.75519 9.37705 9.75519 8.40833C9.75519 7.4396 8.96988 6.6543 8.00116 6.6543C7.03244 6.6543 6.24713 7.4396 6.24713 8.40833C6.24713 9.37705 7.03244 10.1624 8.00116 10.1624Z" stroke="#292D32" stroke-width="1.51347" stroke-linecap="round" stroke-linejoin="round"/>
</svg>
