<svg width="20" height="20" viewBox="0 0 18 19" fill="none" xmlns="http://www.w3.org/2000/svg">
<path d="M13.8201 5.50243C13.7721 5.49441 13.716 5.49441 13.6679 5.50243C12.5619 5.46236 11.6804 4.55677 11.6804 3.43481C11.6804 2.2888 12.602 1.36719 13.748 1.36719C14.894 1.36719 15.8156 2.29682 15.8156 3.43481C15.8076 4.55677 14.9261 5.46236 13.8201 5.50243Z" stroke="#292D32" stroke-width="1.5" stroke-linecap="round" stroke-linejoin="round"/>
<path d="M12.995 11.3365C14.0929 11.5208 15.303 11.3285 16.1525 10.7595C17.2825 10.0062 17.2825 8.77201 16.1525 8.01869C15.295 7.4497 14.0689 7.25736 12.971 7.44969" stroke="#292D32" stroke-width="1.5" stroke-linecap="round" stroke-linejoin="round"/>
<path d="M4.17959 5.50243C4.22767 5.49441 4.28377 5.49441 4.33186 5.50243C5.43779 5.46236 6.31933 4.55677 6.31933 3.43481C6.31933 2.2888 5.39772 1.36719 4.25172 1.36719C3.10571 1.36719 2.1841 2.29682 2.1841 3.43481C2.19211 4.55677 3.07366 5.46236 4.17959 5.50243Z" stroke="#292D32" stroke-width="1.5" stroke-linecap="round" stroke-linejoin="round"/>
<path d="M5.00501 11.3365C3.90709 11.5208 2.69697 11.3285 1.84748 10.7595C0.717506 10.0062 0.717506 8.77201 1.84748 8.01869C2.70498 7.4497 3.93113 7.25736 5.02905 7.44969" stroke="#292D32" stroke-width="1.5" stroke-linecap="round" stroke-linejoin="round"/>
<path d="M9.01172 11.4892C8.96364 11.4812 8.90754 11.4812 8.85946 11.4892C7.75352 11.4492 6.87198 10.5436 6.87198 9.42162C6.87198 8.27562 7.79359 7.354 8.9396 7.354C10.0856 7.354 11.0072 8.28363 11.0072 9.42162C10.9992 10.5436 10.1177 11.4572 9.01172 11.4892Z" stroke="#292D32" stroke-width="1.5" stroke-linecap="round" stroke-linejoin="round"/>
<path d="M6.67938 14.0136C5.5494 14.7669 5.5494 16.0011 6.67938 16.7544C7.96162 17.6119 10.0613 17.6119 11.3435 16.7544C12.4735 16.0011 12.4735 14.7669 11.3435 14.0136C10.0693 13.1641 7.96162 13.1641 6.67938 14.0136Z" stroke="#292D32" stroke-width="1.5" stroke-linecap="round" stroke-linejoin="round"/>
</svg>
