<svg width="20" height="20" viewBox="0 0 18 19" fill="none" xmlns="http://www.w3.org/2000/svg">
<path d="M16.2381 6.93734V11.5088C16.2381 11.6764 16.2381 11.844 16.2229 12.004C15.5981 11.2345 14.6457 10.7469 13.5714 10.7469C12.7638 10.7469 12.0172 11.0288 11.4305 11.5012C10.6381 12.1259 10.1429 13.0935 10.1429 14.1755C10.1429 15.2497 10.6305 16.2021 11.4 16.8269C11.24 16.8421 11.0724 16.8421 10.9048 16.8421H6.33334C2.52381 16.8421 1 15.3183 1 11.5088V6.93734C1 3.12782 2.52381 1.604 6.33334 1.604H10.9048C14.7143 1.604 16.2381 3.12782 16.2381 6.93734Z" stroke="#292D32" stroke-width="1.5" stroke-linecap="round" stroke-linejoin="round"/>
<path d="M1.39626 5.49805H15.842" stroke="#292D32" stroke-width="1.5" stroke-linecap="round" stroke-linejoin="round"/>
<path d="M5.96764 1.68701V5.38986" stroke="#292D32" stroke-width="1.5" stroke-linecap="round" stroke-linejoin="round"/>
<path d="M11.2705 1.68701V5.04704" stroke="#292D32" stroke-width="1.5" stroke-linecap="round" stroke-linejoin="round"/>
<path d="M17 14.1761C17 15.2047 16.5428 16.119 15.8343 16.7514C15.2248 17.2771 14.44 17.6047 13.5714 17.6047C12.7486 17.6047 11.9866 17.3152 11.4 16.8276C10.6305 16.2028 10.1428 15.2504 10.1428 14.1761C10.1428 13.0942 10.6381 12.1266 11.4305 11.5018C12.0171 11.0295 12.7638 10.7476 13.5714 10.7476C14.6457 10.7476 15.5981 11.2352 16.2229 12.0047C16.7105 12.5914 17 13.3533 17 14.1761Z" stroke="#292D32" stroke-width="1.5" stroke-miterlimit="10" stroke-linecap="round" stroke-linejoin="round"/>
<path d="M13.7847 13.1001V14.3877L12.718 15.0277" stroke="#292D32" stroke-width="1.5" stroke-miterlimit="10" stroke-linecap="round" stroke-linejoin="round"/>
</svg>
