<svg width="16" height="16" viewBox="0 0 17 16" fill="none" xmlns="http://www.w3.org/2000/svg">
<path d="M1.9415 4.56494L8.02149 8.08348L14.0602 4.58558" stroke="#292D32" stroke-width="1.14761" stroke-linecap="round" stroke-linejoin="round"/>
<path d="M8.02158 14.3219V8.07666" stroke="#292D32" stroke-width="1.14761" stroke-linecap="round" stroke-linejoin="round"/>
<path d="M14.6384 5.75632V9.6536C14.6384 9.68803 14.6384 9.71554 14.6315 9.74997C14.1495 9.32995 13.5298 9.08209 12.8412 9.08209C12.194 9.08209 11.5949 9.30931 11.1198 9.68802C10.4863 10.1907 10.087 10.9687 10.087 11.8363C10.087 12.3528 10.2316 12.8416 10.4863 13.2548C10.5483 13.3649 10.6241 13.4682 10.7067 13.5646L9.44663 14.2601C8.66167 14.7008 7.38093 14.7008 6.59597 14.2601L2.91906 12.2219C2.0859 11.7606 1.40424 10.6038 1.40424 9.6536V5.75632C1.40424 4.80611 2.0859 3.64934 2.91906 3.188L6.59597 1.14985C7.38093 0.709166 8.66167 0.709166 9.44663 1.14985L13.1235 3.188C13.9567 3.64934 14.6384 4.80611 14.6384 5.75632Z" stroke="#292D32" stroke-width="1.14761" stroke-linecap="round" stroke-linejoin="round"/>
<path d="M15.5958 11.8363C15.5958 12.6626 15.2308 13.3993 14.6593 13.902C14.1705 14.3289 13.537 14.5905 12.8415 14.5905C11.3198 14.5905 10.0873 13.358 10.0873 11.8363C10.0873 10.9687 10.4866 10.1906 11.1201 9.68797C11.5952 9.30926 12.1943 9.08203 12.8415 9.08203C14.3632 9.08203 15.5958 10.3146 15.5958 11.8363Z" stroke="#292D32" stroke-width="1.14761" stroke-miterlimit="10" stroke-linecap="round" stroke-linejoin="round"/>
<path d="M13.0137 10.9756V12.0084L12.153 12.5248" stroke="#292D32" stroke-width="1.14761" stroke-miterlimit="10" stroke-linecap="round" stroke-linejoin="round"/>
</svg>
