<svg width="20" height="20" viewBox="0 0 14 17" fill="none" xmlns="http://www.w3.org/2000/svg">
<path d="M13 5.73242V13.0449C13 15.2949 11.6575 16.0449 10 16.0449H4C2.3425 16.0449 1 15.2949 1 13.0449V5.73242C1 3.29492 2.3425 2.73242 4 2.73242C4 3.19742 4.18748 3.61742 4.49498 3.92492C4.80248 4.23242 5.2225 4.41992 5.6875 4.41992H8.3125C9.2425 4.41992 10 3.66242 10 2.73242C11.6575 2.73242 13 3.29492 13 5.73242Z" stroke="#292D32" stroke-width="1.5" stroke-linecap="round" stroke-linejoin="round"/>
<path d="M10 2.73242C10 3.66242 9.24251 4.41992 8.31251 4.41992H5.68752C5.22252 4.41992 4.8025 4.23242 4.495 3.92492C4.1875 3.61742 4.00002 3.19742 4.00002 2.73242C4.00002 1.80242 4.75752 1.04492 5.68752 1.04492H8.31251C8.77751 1.04492 9.19753 1.23242 9.50503 1.53992C9.81253 1.84742 10 2.26742 10 2.73242Z" stroke="#292D32" stroke-width="1.5" stroke-linecap="round" stroke-linejoin="round"/>
<path d="M4.00002 9.29492H7.00002" stroke="#292D32" stroke-width="1.5" stroke-linecap="round" stroke-linejoin="round"/>
<path d="M4.00002 12.2949H10" stroke="#292D32" stroke-width="1.5" stroke-linecap="round" stroke-linejoin="round"/>
</svg>
