<svg width="17" height="17" viewBox="0 0 17 17" fill="none" xmlns="http://www.w3.org/2000/svg">
<g id="Group 7">
<path id="Vector" d="M4 7V5.5C4 3.0175 4.75 1 8.5 1C12.25 1 13 3.0175 13 5.5V7" stroke="black" stroke-opacity="0.25" stroke-width="1.5" stroke-linecap="round" stroke-linejoin="round"/>
<path id="Vector_2" d="M12.25 16H4.75C1.75 16 1 15.25 1 12.25V10.75C1 7.75002 1.75 7.00002 4.75 7.00002H12.25C15.25 7.00002 16 7.75002 16 10.75V12.25C16 15.25 15.25 16 12.25 16Z" stroke="black" stroke-opacity="0.25" stroke-width="1.5" stroke-linecap="round" stroke-linejoin="round"/>
<path id="Vector_3" d="M8.6875 13.375C9.61948 13.375 10.375 12.6195 10.375 11.6875C10.375 10.7555 9.61948 9.99998 8.6875 9.99998C7.75552 9.99998 7 10.7555 7 11.6875C7 12.6195 7.75552 13.375 8.6875 13.375Z" stroke="black" stroke-opacity="0.25" stroke-width="1.5" stroke-linecap="round" stroke-linejoin="round"/>
</g>
</svg>
