<svg width="12" height="16" viewBox="0 0 10 14" fill="none" xmlns="http://www.w3.org/2000/svg">
<path d="M5.23778 6.38507C5.17706 6.37899 5.10421 6.37899 5.03743 6.38507C3.59251 6.3365 2.44507 5.15263 2.44507 3.69557C2.44507 2.20815 3.64715 1 5.14064 1C6.62806 1 7.83621 2.20815 7.83621 3.69557C7.83014 5.15263 6.6827 6.3365 5.23778 6.38507Z" stroke="#292D32" stroke-linecap="round" stroke-linejoin="round"/>
<path d="M2.1019 8.59864C0.632698 9.58216 0.632698 11.1849 2.1019 12.1624C3.77146 13.2795 6.50952 13.2795 8.17908 12.1624C9.64828 11.1789 9.64828 9.57609 8.17908 8.59864C6.5156 7.48763 3.77753 7.48763 2.1019 8.59864Z" stroke="#292D32" stroke-linecap="round" stroke-linejoin="round"/>
</svg>
