<svg width="20" height="20" viewBox="0 0 18 18" fill="none" xmlns="http://www.w3.org/2000/svg">
<path d="M13 14.1975H9.8L6.23999 16.5655C5.71199 16.9175 5 16.5415 5 15.9015V14.1975C2.6 14.1975 1 12.5975 1 10.1975V5.39746C1 2.99746 2.6 1.39746 5 1.39746H13C15.4 1.39746 17 2.99746 17 5.39746V10.1975C17 12.5975 15.4 14.1975 13 14.1975Z" stroke="#845dc2" stroke-width="1.5" stroke-miterlimit="10" stroke-linecap="round" stroke-linejoin="round"/>
<path d="M9.00005 8.54141V8.37344C9.00005 7.82944 9.33607 7.54142 9.67207 7.30942C10.0001 7.08542 10.328 6.79743 10.328 6.26943C10.328 5.53343 9.73605 4.94141 9.00005 4.94141C8.26405 4.94141 7.67207 5.53343 7.67207 6.26943" stroke="#845dc2" stroke-width="1.5" stroke-linecap="round" stroke-linejoin="round"/>
<path d="M8.99641 10.4532H9.00361" stroke="#292D32" stroke-width="1.5" stroke-linecap="round" stroke-linejoin="round"/>
</svg>
