<svg width="87" height="87" viewBox="0 0 87 87" fill="none" xmlns="http://www.w3.org/2000/svg">
<path d="M48.3 80.5999C45.66 84.1199 41.34 84.1199 38.7 80.5999L32.7 72.5999C32.02 71.7199 30.58 70.9999 29.5 70.9999H27.5C11.5 70.9999 3.5 66.9999 3.5 46.9999V27C3.5 11 11.5 3 27.5 3H59.5C75.5 3 83.5 11 83.5 27V46.9999" stroke="#292D32" stroke-opacity="0.3" stroke-width="6" stroke-miterlimit="10" stroke-linecap="round" stroke-linejoin="round"/>
<path d="M68.3235 80.7239C75.3927 80.7239 81.1234 74.9932 81.1234 67.924C81.1234 60.8547 75.3927 55.124 68.3235 55.124C61.2542 55.124 55.5234 60.8547 55.5234 67.924C55.5234 74.9932 61.2542 80.7239 68.3235 80.7239Z" stroke="#292D32" stroke-opacity="0.3" stroke-width="6" stroke-linecap="round" stroke-linejoin="round"/>
<path d="M83.4619 83.1172L79.4619 79.1172" stroke="#292D32" stroke-opacity="0.3" stroke-width="6" stroke-linecap="round" stroke-linejoin="round"/>
<path d="M59.5181 39.1221H59.554" stroke="#292D32" stroke-opacity="0.3" stroke-width="6" stroke-linecap="round" stroke-linejoin="round"/>
<path d="M43.4546 39.1221H43.4905" stroke="#292D32" stroke-opacity="0.3" stroke-width="6" stroke-linecap="round" stroke-linejoin="round"/>
<path d="M27.5015 39.1221H27.5374" stroke="#292D32" stroke-opacity="0.3" stroke-width="6" stroke-linecap="round" stroke-linejoin="round"/>
</svg>
