<svg width="19" height="18" viewBox="0 0 17 16" fill="none" xmlns="http://www.w3.org/2000/svg">
<path d="M11.9781 12.7101H9.05064L5.79378 14.8764C5.31074 15.1984 4.65938 14.8545 4.65938 14.269V12.7101C2.46375 12.7101 1 11.2463 1 9.05069V4.65938C1 2.46375 2.46375 1 4.65938 1H11.9781C14.1738 1 15.6375 2.46375 15.6375 4.65938V9.05069C15.6375 11.2463 14.1738 12.7101 11.9781 12.7101Z" stroke="#292D32" stroke-miterlimit="10" stroke-linecap="round" stroke-linejoin="round"/>
<path d="M8.31841 7.53539V7.38172C8.31841 6.88405 8.62582 6.62056 8.93321 6.40831C9.23328 6.20339 9.53331 5.93992 9.53331 5.45688C9.53331 4.78356 8.99174 4.24194 8.31841 4.24194C7.64508 4.24194 7.10352 4.78356 7.10352 5.45688" stroke="#292D32" stroke-linecap="round" stroke-linejoin="round"/>
<path d="M8.31479 9.28476H8.32138" stroke="#292D32" stroke-linecap="round" stroke-linejoin="round"/>
</svg>
