<svg width="20" height="20" viewBox="0 0 17 18" fill="none" xmlns="http://www.w3.org/2000/svg">
<path d="M9.79573 2.77543L11.1156 5.41514C11.2956 5.7826 11.7755 6.13506 12.1805 6.20255L14.5727 6.60001C16.1025 6.85498 16.4625 7.96485 15.3601 9.05973L13.5003 10.9195C13.1854 11.2345 13.0129 11.8419 13.1104 12.2769L13.6428 14.5791C14.0628 16.4014 13.0954 17.1063 11.483 16.1539L9.24079 14.8266C8.83583 14.5866 8.16841 14.5866 7.75595 14.8266L5.5137 16.1539C3.90888 17.1063 2.93399 16.3939 3.35394 14.5791L3.88638 12.2769C3.98387 11.8419 3.81139 11.2345 3.49642 10.9195L1.63663 9.05973C0.54175 7.96485 0.894211 6.85498 2.42404 6.60001L4.81628 6.20255C5.21373 6.13506 5.69368 5.7826 5.87366 5.41514L7.19352 2.77543C7.91344 1.34309 9.08331 1.34309 9.79573 2.77543Z" stroke="#292D32" stroke-width="1.5" stroke-linecap="round" stroke-linejoin="round"/>
</svg>
