<svg width="16" height="16" viewBox="0 0 16 15" fill="none" xmlns="http://www.w3.org/2000/svg">
<path d="M14.885 2.66006V10.9703C14.885 11.6312 14.348 12.2509 13.687 12.3335L13.4598 12.361C11.9589 12.5607 9.64549 13.3249 8.32357 14.0547C8.14456 14.158 7.84853 14.158 7.66263 14.0547L7.63507 14.041C6.31315 13.3181 4.00671 12.5607 2.51267 12.361L2.31297 12.3335C1.65201 12.2509 1.11499 11.6312 1.11499 10.9703V2.65317C1.11499 1.83385 1.78282 1.21421 2.60213 1.28306C4.04798 1.4001 6.23741 2.12993 7.46294 2.89417L7.63507 2.99742C7.83473 3.12135 8.16525 3.12135 8.36492 2.99742L8.48195 2.92169C8.9157 2.65318 9.4665 2.38466 10.0655 2.14368V4.95278L11.4425 4.03706L12.8195 4.95278V1.35883C13.0054 1.3244 13.1844 1.30372 13.3496 1.28995H13.391C14.2103 1.2211 14.885 1.83386 14.885 2.66006Z" stroke="#292D32" stroke-width="1.51347" stroke-linecap="round" stroke-linejoin="round"/>
<path d="M8 3.22461V13.5521" stroke="#292D32" stroke-width="1.51347" stroke-linecap="round" stroke-linejoin="round"/>
<path d="M12.8195 1.35889V4.95284L11.4425 4.03712L10.0655 4.95284V2.14374C10.9674 1.78572 11.9726 1.49659 12.8195 1.35889Z" stroke="#292D32" stroke-width="1.51347" stroke-linecap="round" stroke-linejoin="round"/>
</svg>
