<svg width="21" height="20" viewBox="0 0 21 20" fill="none" xmlns="http://www.w3.org/2000/svg">
<path d="M1.28418 2.04791H2.75408C3.66643 2.04791 4.38448 2.83355 4.30845 3.73745L3.60729 12.1513C3.48902 13.5283 4.57877 14.711 5.96419 14.711H14.961C16.1774 14.711 17.2418 13.7142 17.3348 12.5061L17.7909 6.17038C17.8923 4.76807 16.8279 3.62762 15.4171 3.62762H4.5112" stroke="#292D32" stroke-width="1.12636" stroke-miterlimit="10" stroke-linecap="round" stroke-linejoin="round"/>
<path d="M13.3226 18.9432C13.9058 18.9432 14.3785 18.4705 14.3785 17.8873C14.3785 17.3041 13.9058 16.8313 13.3226 16.8313C12.7394 16.8313 12.2666 17.3041 12.2666 17.8873C12.2666 18.4705 12.7394 18.9432 13.3226 18.9432Z" stroke="#292D32" stroke-width="1.12636" stroke-miterlimit="10" stroke-linecap="round" stroke-linejoin="round"/>
<path d="M6.56377 18.9432C7.14696 18.9432 7.61973 18.4705 7.61973 17.8873C7.61973 17.3041 7.14696 16.8313 6.56377 16.8313C5.98058 16.8313 5.50781 17.3041 5.50781 17.8873C5.50781 18.4705 5.98058 18.9432 6.56377 18.9432Z" stroke="#292D32" stroke-width="1.12636" stroke-miterlimit="10" stroke-linecap="round" stroke-linejoin="round"/>
<path d="M7.19678 7.11658H17.334" stroke="#292D32" stroke-width="1.12636" stroke-miterlimit="10" stroke-linecap="round" stroke-linejoin="round"/>
<rect x="15.25" y="0.25" width="5.5" height="5.5" rx="2.75" fill="#F8931B"/>
<rect x="15.25" y="0.25" width="5.5" height="5.5" rx="2.75" stroke="white" stroke-width="0.5"/>
</svg>
