<svg width="16" height="16" viewBox="0 0 12 12" fill="none" xmlns="http://www.w3.org/2000/svg">
<path d="M2.40572 7.07632C2.33409 7.91026 2.99408 8.62653 3.83314 8.62653H9.28191C10.0186 8.62653 10.6633 8.02283 10.7196 7.29121L10.9958 3.45405C11.0572 2.60476 10.4126 1.91406 9.55818 1.91406H2.95316" stroke="white" stroke-miterlimit="10" stroke-linecap="round" stroke-linejoin="round"/>
<path d="M1 0.952148H1.89022C2.44278 0.952148 2.87765 1.42796 2.83161 1.97539L2.5758 5.0707" stroke="white" stroke-miterlimit="10" stroke-linecap="round" stroke-linejoin="round"/>
<path d="M8.28992 11.1843C8.64312 11.1843 8.92944 10.898 8.92944 10.5448C8.92944 10.1916 8.64312 9.90527 8.28992 9.90527C7.93672 9.90527 7.65039 10.1916 7.65039 10.5448C7.65039 10.898 7.93672 11.1843 8.28992 11.1843Z" stroke="white" stroke-miterlimit="10" stroke-linecap="round" stroke-linejoin="round"/>
<path d="M4.19617 11.1843C4.54937 11.1843 4.83569 10.898 4.83569 10.5448C4.83569 10.1916 4.54937 9.90527 4.19617 9.90527C3.84297 9.90527 3.55664 10.1916 3.55664 10.5448C3.55664 10.898 3.84297 11.1843 4.19617 11.1843Z" stroke="white" stroke-miterlimit="10" stroke-linecap="round" stroke-linejoin="round"/>
<path d="M4.58496 4.02148H10.7244" stroke="white" stroke-miterlimit="10" stroke-linecap="round" stroke-linejoin="round"/>
</svg>
