<svg width="20" height="20" viewBox="0 0 17 19" fill="none" xmlns="http://www.w3.org/2000/svg">
<path d="M13.5 15.0866H12.8667C12.2 15.0866 11.5667 15.3449 11.1 15.8116L9.675 17.22C9.025 17.8616 7.96667 17.8616 7.31667 17.22L5.89166 15.8116C5.425 15.3449 4.78333 15.0866 4.125 15.0866H3.5C2.11667 15.0866 1 13.9783 1 12.6116V3.5199C1 2.15323 2.11667 1.04492 3.5 1.04492H13.5C14.8833 1.04492 16 2.15323 16 3.5199V12.6116C16 13.9699 14.8833 15.0866 13.5 15.0866Z" stroke="#292D32" stroke-width="1.5" stroke-miterlimit="10" stroke-linecap="round" stroke-linejoin="round"/>
<path d="M4.33331 7.00387C4.33331 6.22887 4.96665 5.59548 5.74165 5.59548C6.51665 5.59548 7.14998 6.22887 7.14998 7.00387C7.14998 8.57053 4.92498 8.73719 4.43331 10.2289C4.33331 10.5372 4.59164 10.8455 4.91664 10.8455H7.14998M11.8666 10.8372V6.07886C11.8666 5.86219 11.725 5.67048 11.5166 5.61215C11.3083 5.55381 11.0833 5.63715 10.9666 5.82048C10.3666 6.78715 9.71664 7.88716 9.14997 8.85382C9.05831 9.01216 9.05831 9.2205 9.14997 9.37883C9.24164 9.53716 9.41664 9.63711 9.60831 9.63711H12.6666" stroke="#292D32" stroke-width="1.5" stroke-linecap="round" stroke-linejoin="round"/>
</svg>
