<svg width="15" height="15" viewBox="0 0 11 11" fill="none" xmlns="http://www.w3.org/2000/svg">
<path d="M3.41999 2.62298L7.72196 1.18899C9.65252 0.545464 10.7014 1.59942 10.063 3.52999L8.62897 7.83195C7.66622 10.7253 6.08528 10.7253 5.12253 7.83195L4.6969 6.55504L3.41999 6.12941C0.526671 5.16666 0.526671 3.59079 3.41999 2.62298Z" stroke="#845DC2" stroke-width="0.75" stroke-linecap="round" stroke-linejoin="round"/>
<path d="M3.41999 2.62298L7.72196 1.18899C9.65252 0.545464 10.7014 1.59942 10.063 3.52999L8.62897 7.83195C7.66622 10.7253 6.08528 10.7253 5.12253 7.83195L4.6969 6.55504L3.41999 6.12941C0.526671 5.16666 0.526671 3.59079 3.41999 2.62298Z" stroke="black" stroke-opacity="0.2" stroke-width="0.75" stroke-linecap="round" stroke-linejoin="round"/>
<path d="M4.79443 6.33734L6.60846 4.51825" stroke="#845DC2" stroke-width="0.75" stroke-linecap="round" stroke-linejoin="round"/>
</svg>
