<svg width="16" height="16" viewBox="0 0 16 16" fill="none" xmlns="http://www.w3.org/2000/svg">
<path d="M10.2952 1.4751V8.03287C10.2952 8.75422 9.70504 9.34442 8.98369 9.34442H1.77014V5.16056C2.24886 5.73109 2.98335 6.08521 3.79651 6.06554C4.45885 6.05242 5.05559 5.79667 5.50151 5.37041C5.70481 5.19991 5.87532 4.9835 6.00648 4.74742C6.24256 4.34739 6.3737 3.87522 6.36058 3.38339C6.34091 2.61613 5.99991 1.9407 5.46873 1.4751H10.2952Z" stroke="#292D32" stroke-width="1.14761" stroke-linecap="round" stroke-linejoin="round"/>
<path d="M14.8857 9.34438V11.3117C14.8857 12.4003 14.0069 13.279 12.9184 13.279H12.2626C12.2626 12.5577 11.6724 11.9675 10.951 11.9675C10.2297 11.9675 9.63947 12.5577 9.63947 13.279H7.01636C7.01636 12.5577 6.42616 11.9675 5.7048 11.9675C4.98345 11.9675 4.39325 12.5577 4.39325 13.279H3.73747C2.64888 13.279 1.77014 12.4003 1.77014 11.3117V9.34438H8.98369C9.70504 9.34438 10.2952 8.75418 10.2952 8.03282V3.44238H11.5019C11.974 3.44238 12.4069 3.69814 12.6429 4.10472L13.7643 6.06549H12.9184C12.5577 6.06549 12.2626 6.36059 12.2626 6.72127V8.6886C12.2626 9.04928 12.5577 9.34438 12.9184 9.34438H14.8857Z" stroke="#292D32" stroke-width="1.14761" stroke-linecap="round" stroke-linejoin="round"/>
<path d="M5.70477 14.5909C6.42912 14.5909 7.01633 14.0037 7.01633 13.2793C7.01633 12.555 6.42912 11.9678 5.70477 11.9678C4.98042 11.9678 4.39322 12.555 4.39322 13.2793C4.39322 14.0037 4.98042 14.5909 5.70477 14.5909Z" stroke="#292D32" stroke-width="1.14761" stroke-linecap="round" stroke-linejoin="round"/>
<path d="M10.951 14.5909C11.6754 14.5909 12.2626 14.0037 12.2626 13.2793C12.2626 12.555 11.6754 11.9678 10.951 11.9678C10.2267 11.9678 9.63947 12.555 9.63947 13.2793C9.63947 14.0037 10.2267 14.5909 10.951 14.5909Z" stroke="#292D32" stroke-width="1.14761" stroke-linecap="round" stroke-linejoin="round"/>
<path d="M14.8857 8.03276V9.34431H12.9184C12.5577 9.34431 12.2626 9.04922 12.2626 8.68854V6.72121C12.2626 6.36053 12.5577 6.06543 12.9184 6.06543H13.7643L14.8857 8.03276Z" stroke="#292D32" stroke-width="1.14761" stroke-linecap="round" stroke-linejoin="round"/>
<path d="M6.36057 3.44244C6.36057 4.22938 6.01301 4.93106 5.46872 5.40978C5.00312 5.81636 4.39979 6.06555 3.73746 6.06555C2.28819 6.06555 1.11435 4.89171 1.11435 3.44244C1.11435 2.61617 1.4947 1.87514 2.09801 1.39642C2.5505 1.03575 3.12103 0.819336 3.73746 0.819336C5.18672 0.819336 6.36057 1.99318 6.36057 3.44244Z" stroke="#292D32" stroke-width="1.14761" stroke-miterlimit="10" stroke-linecap="round" stroke-linejoin="round"/>
<path d="M3.90142 2.62256V3.60622L3.0817 4.09806" stroke="#292D32" stroke-width="1.14761" stroke-miterlimit="10" stroke-linecap="round" stroke-linejoin="round"/>
</svg>
