<svg width="16" height="16" viewBox="0 0 16 16" fill="none" xmlns="http://www.w3.org/2000/svg">
<g id="Group 136">
<g id="Group 134">
<path id="Vector" d="M7.99993 9.4H8.69993C9.46993 9.4 10.0999 8.77 10.0999 8V1H3.79993C2.74993 1 1.83293 1.58099 1.35693 2.43499" stroke="#292D32" stroke-linecap="round" stroke-linejoin="round"/>
<path id="Vector_2" d="M1 11.5C1 12.662 1.938 13.6 3.1 13.6H3.8C3.8 12.83 4.43 12.2 5.2 12.2C5.97 12.2 6.6 12.83 6.6 13.6H9.4C9.4 12.83 10.03 12.2 10.8 12.2C11.57 12.2 12.2 12.83 12.2 13.6H12.9C14.062 13.6 15 12.662 15 11.5V9.40001H12.9C12.515 9.40001 12.2 9.08501 12.2 8.70001V6.60001C12.2 6.21501 12.515 5.90001 12.9 5.90001H13.803L12.606 3.80701C12.354 3.37301 11.892 3.10001 11.388 3.10001H10.1V8.00001C10.1 8.77001 9.47 9.40001 8.7 9.40001H8" stroke="#292D32" stroke-linecap="round" stroke-linejoin="round"/>
<path id="Vector_3" d="M5.1998 15C5.973 15 6.5998 14.3732 6.5998 13.6C6.5998 12.8268 5.973 12.2 5.1998 12.2C4.42661 12.2 3.7998 12.8268 3.7998 13.6C3.7998 14.3732 4.42661 15 5.1998 15Z" stroke="#292D32" stroke-linecap="round" stroke-linejoin="round"/>
<path id="Vector_4" d="M10.7999 15C11.5731 15 12.1999 14.3732 12.1999 13.6C12.1999 12.8268 11.5731 12.2 10.7999 12.2C10.0267 12.2 9.3999 12.8268 9.3999 13.6C9.3999 14.3732 10.0267 15 10.7999 15Z" stroke="#292D32" stroke-linecap="round" stroke-linejoin="round"/>
<path id="Vector_5" d="M15.0002 7.99999V9.39999H12.9002C12.5152 9.39999 12.2002 9.08499 12.2002 8.69999V6.59999C12.2002 6.21499 12.5152 5.89999 12.9002 5.89999H13.8032L15.0002 7.99999Z" stroke="#292D32" stroke-linecap="round" stroke-linejoin="round"/>
<path id="Vector_6" d="M1 5.20001H5.2" stroke="#292D32" stroke-linecap="round" stroke-linejoin="round"/>
<path id="Vector_7" d="M1 7.29999H3.8" stroke="#292D32" stroke-linecap="round" stroke-linejoin="round"/>
<path id="Vector_8" d="M1 9.39999H2.4" stroke="#292D32" stroke-linecap="round" stroke-linejoin="round"/>
</g>
</g>
</svg>
