<svg width="21" height="20" viewBox="0 0 21 20" fill="none" xmlns="http://www.w3.org/2000/svg">
<path d="M6.09998 16.3511L9.19998 18.7511C9.59998 19.1511 10.5 19.3511 11.1 19.3511H14.9C16.1 19.3511 17.4 18.4511 17.7 17.2511L20.1 9.95107C20.6 8.55107 19.7 7.35107 18.2 7.35107H14.2C13.6 7.35107 13.1 6.85107 13.2 6.15107L13.7 2.95107C13.9 2.05107 13.3 1.05107 12.4 0.751067C11.6 0.451067 10.6 0.851067 10.2 1.45107L6.09998 7.55107" stroke="white" stroke-miterlimit="10"/>
<path d="M1 16.351V6.551C1 5.151 1.6 4.651 3 4.651H4C5.4 4.651 6 5.151 6 6.551V16.351C6 17.751 5.4 18.251 4 18.251H3C1.6 18.251 1 17.751 1 16.351Z" stroke="white" stroke-linecap="round" stroke-linejoin="round"/>
</svg>
