<svg width="16" height="16" viewBox="0 0 15 15" fill="none" xmlns="http://www.w3.org/2000/svg">
<path fill-rule="evenodd" clip-rule="evenodd" d="M9.55027 3.8272L8.16607 5.21139L7.74161 4.78693C7.6383 4.68362 7.49699 4.62688 7.35033 4.6301C7.2042 4.63384 7.06557 4.697 6.96708 4.80513C6.96708 4.80513 3.74586 8.34858 2.30118 9.93778C1.73379 10.5619 1.74718 11.5157 2.32473 12.1233L0.561564 13.8864C0.35281 14.0952 0.35281 14.4345 0.561564 14.6433C0.770317 14.8521 1.10967 14.8521 1.31843 14.6433L3.08159 12.8801C3.69554 13.4539 4.65313 13.4582 5.27243 12.8812L6.09032 12.119C6.30656 11.9177 6.31834 11.5789 6.11708 11.3627C5.91582 11.1464 5.57646 11.1346 5.36021 11.3359L4.54286 12.0981C4.33197 12.2946 4.00332 12.2887 3.79938 12.0853L3.11103 11.3964C2.9087 11.1946 2.90121 10.8697 3.09337 10.6582L4.68043 8.91222C5.40089 8.9272 5.55398 9.41429 5.8275 9.76115C6.00842 9.9897 6.21022 10.1952 6.48695 10.3344L6.42646 10.3885C6.20754 10.5871 6.19095 10.9259 6.38899 11.1448C6.58704 11.3637 6.92586 11.3809 7.14479 11.1828L10.3987 8.23885C10.5073 8.14036 10.571 8.00173 10.5748 7.85507C10.5785 7.7084 10.5218 7.56709 10.4179 7.46325L9.99347 7.03879L11.3777 5.65459L12.0376 6.31511C12.3561 6.63359 12.8009 6.79203 13.249 6.7476C13.697 6.70371 14.1016 6.4607 14.3511 6.08602L14.3516 6.08495C14.7348 5.51061 14.6588 4.74571 14.1707 4.25755L13.6295 3.7164C13.4208 3.50764 13.0814 3.50764 12.8727 3.7164C12.6639 3.92515 12.6639 4.26451 12.8727 4.47326L13.4138 5.01442C13.5412 5.14181 13.561 5.34146 13.4609 5.49134L13.4604 5.49187C13.3887 5.6 13.272 5.66958 13.1435 5.68243C13.0145 5.69527 12.8866 5.64978 12.795 5.55771C11.9124 4.67559 10.5293 3.29247 9.64715 2.40982C9.55509 2.31829 9.50959 2.19036 9.52244 2.06136C9.53528 1.9329 9.60487 1.81621 9.71299 1.74448L9.71352 1.74395C9.8634 1.64385 10.0631 1.66366 10.1904 1.79105L11.8021 3.40273C12.0109 3.61149 12.3502 3.61149 12.559 3.40273C12.7677 3.19398 12.7677 2.85462 12.559 2.64587C12.559 2.64587 11.5816 1.66794 10.9473 1.03419C10.4591 0.546024 9.69425 0.470016 9.11992 0.853266L9.11884 0.853801C8.74416 1.10323 8.50115 1.50789 8.45726 1.95591C8.41283 2.40393 8.57127 2.84873 8.88975 3.16722L9.55027 3.8272ZM5.51384 7.99531C5.8639 8.13876 6.10423 8.36731 6.30924 8.61942C6.42593 8.76234 6.52816 8.91489 6.63789 9.05888C6.79472 9.26442 6.97297 9.44962 7.3605 9.44748C7.39369 9.44748 7.42634 9.45016 7.45792 9.45605L9.26337 7.82242L7.38138 5.94096L5.51384 7.99531ZM8.92294 5.96826L9.2366 6.28192L10.6208 4.89773L10.3071 4.58406L8.92294 5.96826Z" fill="#292D32"/>
</svg>
