<svg width="16" height="16" viewBox="0 0 14 14" fill="none" xmlns="http://www.w3.org/2000/svg">
<path d="M5.2 13H8.8C11.8 13 13 11.8 13 8.8V5.2C13 2.2 11.8 1 8.8 1H5.2C2.2 1 1 2.2 1 5.2V8.8C1 11.8 2.2 13 5.2 13Z" stroke="white" stroke-linecap="round" stroke-linejoin="round"/>
<path d="M5.26013 6.99985V6.11185C5.26013 4.96585 6.07013 4.50385 7.06013 5.07385L7.82813 5.51785L8.59613 5.96185C9.58613 6.53185 9.58613 7.46785 8.59613 8.03785L7.82813 8.48185L7.06013 8.92585C6.07013 9.49585 5.26013 9.02785 5.26013 7.88785V6.99985Z" stroke="white" stroke-miterlimit="10" stroke-linecap="round" stroke-linejoin="round"/>
</svg>
