<svg width="16" height="14" viewBox="0 0 16 14" fill="none" xmlns="http://www.w3.org/2000/svg">
<path d="M1 4.33697V11.1071C1 12.4292 1.93933 12.9719 3.08045 12.3178L4.71559 11.3855C5.07045 11.1837 5.66188 11.1628 6.03066 11.3507L9.68363 13.1806C10.0524 13.3615 10.6438 13.3476 10.9987 13.1458L14.0115 11.4203C14.3942 11.1976 14.7143 10.6549 14.7143 10.2096V3.43939C14.7143 2.11736 13.775 1.57463 12.6338 2.22869L10.9987 3.16107C10.6438 3.36285 10.0524 3.38372 9.68363 3.19586L6.03066 1.37285C5.66188 1.19194 5.07045 1.20586 4.71559 1.40764L1.70276 3.13323C1.31311 3.35589 1 3.89862 1 4.33697Z" stroke="#845DC2" stroke-width="1.14286" stroke-linecap="round" stroke-linejoin="round"/>
<path d="M5.36279 1.70685V10.7523" stroke="#845DC2" stroke-width="1.14286" stroke-linecap="round" stroke-linejoin="round"/>
<path d="M10.3516 3.52994V12.8398" stroke="#845DC2" stroke-width="1.14286" stroke-linecap="round" stroke-linejoin="round"/>
</svg>
