<svg width="13" height="14" viewBox="0 0 11 12" fill="none" xmlns="http://www.w3.org/2000/svg">
<path d="M9.14383 12H1.65597C1.21727 11.9984 0.796981 11.8234 0.486769 11.5132C0.176556 11.203 0.00158093 10.7827 0 10.344V4.05612C0.00158093 3.61741 0.176556 3.19713 0.486769 2.88692C0.796981 2.5767 1.21727 2.40173 1.65597 2.40015H2.99994C3.15907 2.40015 3.31168 2.46336 3.4242 2.57588C3.53672 2.6884 3.59993 2.84101 3.59993 3.00014C3.59993 3.15926 3.53672 3.31187 3.4242 3.42439C3.31168 3.53691 3.15907 3.60012 2.99994 3.60012H1.65597C1.53503 3.60012 1.41905 3.64817 1.33353 3.73368C1.24802 3.8192 1.19998 3.93518 1.19998 4.05612V10.344C1.19998 10.4039 1.21177 10.4632 1.23469 10.5185C1.2576 10.5738 1.29119 10.6241 1.33353 10.6664C1.37588 10.7088 1.42614 10.7424 1.48147 10.7653C1.53679 10.7882 1.59609 10.8 1.65597 10.8H9.14383C9.20371 10.8 9.26301 10.7882 9.31833 10.7653C9.37365 10.7424 9.42392 10.7088 9.46626 10.6664C9.50861 10.6241 9.54219 10.5738 9.56511 10.5185C9.58802 10.4632 9.59982 10.4039 9.59982 10.344V4.05612C9.59982 3.93518 9.55178 3.8192 9.46626 3.73368C9.38075 3.64817 9.26476 3.60012 9.14383 3.60012H7.79985C7.64073 3.60012 7.48812 3.53691 7.3756 3.42439C7.26308 3.31187 7.19986 3.15926 7.19986 3.00014C7.19986 2.84101 7.26308 2.6884 7.3756 2.57588C7.48812 2.46336 7.64073 2.40015 7.79985 2.40015H9.14383C9.58253 2.40173 10.0028 2.5767 10.313 2.88692C10.6232 3.19713 10.7982 3.61741 10.7998 4.05612V10.344C10.7982 10.7827 10.6232 11.203 10.313 11.5132C10.0028 11.8234 9.58253 11.9984 9.14383 12Z" fill="#333333"/>
<path d="M5.40009 5.99989C4.80676 5.99989 4.22675 5.82395 3.73341 5.49431C3.24007 5.16467 2.85556 4.69614 2.6285 4.14797C2.40145 3.59981 2.34204 2.99662 2.45779 2.41469C2.57354 1.83275 2.85926 1.29821 3.27881 0.878665C3.69836 0.459115 4.2329 0.173398 4.81483 0.0576444C5.39676 -0.0581091 5.99995 0.00129983 6.54812 0.228359C7.09629 0.455417 7.56482 0.839927 7.89445 1.33327C8.22409 1.8266 8.40003 2.40661 8.40003 2.99995C8.40003 3.15907 8.33682 3.31168 8.2243 3.4242C8.11178 3.53672 7.95917 3.59993 7.80005 3.59993C7.64092 3.59993 7.48831 3.53672 7.37579 3.4242C7.26327 3.31168 7.20006 3.15907 7.20006 2.99995C7.20006 2.64395 7.09449 2.29594 6.89671 1.99994C6.69893 1.70393 6.41781 1.47323 6.08891 1.33699C5.76001 1.20076 5.39809 1.16511 5.04894 1.23456C4.69978 1.30402 4.37905 1.47545 4.12732 1.72718C3.87559 1.97891 3.70416 2.29963 3.63471 2.64879C3.56526 2.99795 3.6009 3.35986 3.73714 3.68876C3.87337 4.01766 4.10408 4.29878 4.40008 4.49656C4.69609 4.69435 5.04409 4.79991 5.40009 4.79991C5.64501 4.79984 5.88734 4.74978 6.11224 4.6528C6.33714 4.55583 6.53989 4.41397 6.70807 4.23592C6.76243 4.1788 6.82752 4.13294 6.89961 4.10097C6.97169 4.069 7.04937 4.05154 7.12821 4.04959C7.20705 4.04764 7.28549 4.06124 7.35907 4.08961C7.43265 4.11797 7.49993 4.16056 7.55705 4.21492C7.61417 4.26929 7.66003 4.33437 7.692 4.40646C7.72397 4.47855 7.74143 4.55623 7.74338 4.63507C7.74533 4.7139 7.73173 4.79235 7.70337 4.86593C7.675 4.93951 7.63242 5.00678 7.57805 5.06391C7.29764 5.35969 6.9599 5.59523 6.58544 5.75615C6.21099 5.91707 5.80766 6.00001 5.40009 5.99989Z" fill="#333333"/>
<path d="M5.4001 3.60016C5.32114 3.60062 5.24286 3.58549 5.16976 3.55563C5.09666 3.52577 5.03017 3.48177 4.97411 3.42617C4.91787 3.37039 4.87323 3.30403 4.84277 3.23092C4.81231 3.1578 4.79663 3.07938 4.79663 3.00017C4.79663 2.92097 4.81231 2.84255 4.84277 2.76943C4.87323 2.69632 4.91787 2.62996 4.97411 2.57418L6.17408 1.37421C6.28706 1.26123 6.4403 1.19775 6.60008 1.19775C6.75985 1.19775 6.91309 1.26123 7.02607 1.37421C7.13905 1.48719 7.20252 1.64042 7.20252 1.8002C7.20252 1.95998 7.13905 2.11321 7.02607 2.22619L5.82609 3.42617C5.77003 3.48177 5.70354 3.52577 5.63044 3.55563C5.55734 3.58549 5.47906 3.60062 5.4001 3.60016Z" fill="#333333"/>
</svg>
