<svg width="13" height="13" viewBox="0 0 10 10" fill="none" xmlns="http://www.w3.org/2000/svg">
<path d="M6.13966 1.90309L6.49381 2.62463C6.67089 2.97907 7.11358 3.30819 7.50568 3.38414L7.98631 3.46009C9.42821 3.70061 9.76972 4.76392 8.73256 5.81458L8.28987 6.25763C7.99896 6.56144 7.83453 7.14373 7.92307 7.5488L7.98631 7.81463C8.37841 9.56151 7.45508 10.2324 5.93729 9.321L5.60843 9.13112C5.21634 8.90327 4.58393 8.90327 4.19183 9.13112L3.86297 9.321C2.33253 10.2451 1.40921 9.56151 1.81395 7.81463L1.8772 7.5488C1.96573 7.14373 1.8013 6.56144 1.51039 6.25763L1.06771 5.80192C0.0305471 4.75127 0.372049 3.68795 1.81395 3.44744L2.29459 3.37148C2.67404 3.30819 3.12937 2.96641 3.30645 2.61197L3.6606 1.89043C4.34361 0.523311 5.45666 0.523311 6.13966 1.90309Z" fill="#80868E" fill-opacity="0.25"/>
</svg>
