<svg width="13" height="13" viewBox="0 0 13 13" fill="none" xmlns="http://www.w3.org/2000/svg">
<path d="M8.06985 1.47435L8.57365 2.50076C8.82554 3.00496 9.45528 3.47315 10.0131 3.5812L10.6968 3.68924C12.7479 4.03138 13.2337 5.54398 11.7583 7.03858L11.1286 7.66884C10.7148 8.10101 10.4809 8.92934 10.6068 9.50557L10.6968 9.88372C11.2545 12.3687 9.94108 13.3231 7.78197 12.0266L7.31416 11.7565C6.75639 11.4323 5.85676 11.4323 5.29899 11.7565L4.83118 12.0266C2.65408 13.3411 1.34061 12.3687 1.91638 9.88372L2.00634 9.50557C2.13229 8.92934 1.89838 8.10101 1.48455 7.66884L0.854814 7.02058C-0.620581 5.52598 -0.134782 4.01337 1.91638 3.67123L2.6001 3.56319C3.13988 3.47315 3.78761 2.98696 4.03951 2.48275L4.5433 1.45634C5.5149 -0.488438 7.09825 -0.488438 8.06985 1.47435Z" fill="#F8931B"/>
</svg>
