<svg width="29" height="29" viewBox="0 0 29 29" fill="none" xmlns="http://www.w3.org/2000/svg">
<path d="M4.23729 25.5758L5.8983 27.2037L6.78814 28.0758L7.61864 27.2619L6.72881 26.3898L9.9322 23.3083L10.822 24.1804L12.6017 25.8665L13.4322 25.0525L11.6525 23.3665L22.1525 13.1919C22.5085 12.8431 22.6864 12.4361 22.6864 11.971C22.6864 11.5058 22.5085 11.0989 22.1525 10.75L24.1102 8.88953L23.7542 6.3895L28.5 1.73828L27.6695 0.924316L22.8644 5.57554L20.2542 5.16856L18.2966 7.08718C17.6441 6.44764 16.517 6.44764 15.8051 7.08718L5.36441 17.2036L3.58475 15.5175L2.75424 16.3315L4.5339 18.0176L5.42373 18.8897L2.22034 21.9711L1.33051 21.099L0.5 21.913L4.23729 25.5758ZM20.7288 6.3895L22.6271 6.6802L22.9237 8.48255L21.3814 9.93606L20.4915 9.18023L19.1864 7.90115L20.7288 6.3895ZM16.6949 7.84301C16.9322 7.61045 17.2881 7.61045 17.4661 7.84301L21.322 11.564C21.4407 11.6803 21.5 11.7965 21.5 11.9128C21.5 12.0291 21.4407 12.2035 21.322 12.2617L20.3136 13.3663L18 11.0989L17.1695 11.9128L19.4831 14.1803L18.178 15.4594L15.8644 13.1919L15.0339 14.0059L17.3475 16.2733L16.0424 17.5524L13.7288 15.285L12.8983 16.0989L15.2119 18.3664L13.9068 19.6455L11.5932 17.378L10.7627 18.192L13.0763 20.4594L10.8814 22.5525L6.19491 18.0176L16.6949 7.84301ZM6.25424 19.7036L7.67797 21.099L9.1017 22.4944L5.8983 25.5758L3.05085 22.8432L6.25424 19.7036Z" fill="#292D32"/>
</svg>
