<svg width="15" height="15" viewBox="0 0 12 12" fill="none" xmlns="http://www.w3.org/2000/svg">
<path d="M3.37842 9.61303L3.98712 9.96473V4.7002H3.37842V9.61303Z" fill="url(#paint0_linear_4394_2570)"/>
<path d="M8.0127 4.7002V9.96473L8.6214 9.61303V4.7002H8.0127Z" fill="url(#paint1_linear_4394_2570)"/>
<path d="M4.24902 4.7002V10.1157L6.00009 11.1267L7.75071 10.1157V4.7002H4.24902Z" fill="url(#paint2_linear_4394_2570)"/>
<path d="M4.51074 9.96513V4.9624H7.48882V9.96513L6 10.8247L4.51074 9.96513Z" fill="#323F54"/>
<path d="M1.11683 6.27444L5.49907 8.80439V5.61687L0.654297 2.82031V5.47374C0.654297 5.80406 0.830581 6.1095 1.11683 6.27488V6.27444Z" fill="url(#paint3_linear_4394_2570)"/>
<path d="M6.50049 5.6173V8.80482L10.8827 6.27488C11.169 6.1095 11.3453 5.8045 11.3453 5.47374V2.82031L6.50049 5.6173Z" fill="url(#paint4_linear_4394_2570)"/>
<path d="M0.462529 4.14993L4.84477 6.67987V3.49235L0 0.695801V3.34923C0 3.67955 0.176285 3.98499 0.462529 4.15037V4.14993Z" fill="url(#paint5_linear_4394_2570)"/>
<path d="M7.15527 3.49279V6.68031L11.5375 4.15037C11.8238 3.98499 12 3.67998 12 3.34923V0.695801L7.15527 3.49279Z" fill="url(#paint6_linear_4394_2570)"/>
<path d="M1.11683 5.40139L5.49907 7.93134V4.74382L0.654297 1.94727V4.6007C0.654297 4.93101 0.830581 5.23646 1.11683 5.40183V5.40139Z" fill="url(#paint7_linear_4394_2570)"/>
<path d="M6.50049 4.74425V7.93178L10.8827 5.40183C11.169 5.23646 11.3453 4.93145 11.3453 4.6007V1.94727L6.50049 4.74425Z" fill="url(#paint8_linear_4394_2570)"/>
<path d="M10.1661 6.09803V3.30279C10.1661 2.67925 9.8336 2.10283 9.2934 1.79128L6.87298 0.393659C6.33278 0.0816708 5.66779 0.0816708 5.12759 0.393659L2.70717 1.79128C2.16697 2.10327 1.83447 2.67925 1.83447 3.30279V6.09803C1.83447 6.72157 2.16697 7.29799 2.70717 7.60954L5.12759 9.00716C5.66779 9.31915 6.33278 9.31915 6.87298 9.00716L9.2934 7.60954C9.8336 7.29755 10.1661 6.72157 10.1661 6.09803Z" fill="#323F54"/>
<path d="M10.1661 6.09803V3.30279C10.1661 2.67925 9.8336 2.10283 9.2934 1.79128L6.87298 0.393659C6.33278 0.0816708 5.66779 0.0816708 5.12759 0.393659L2.70717 1.79128C2.16697 2.10327 1.83447 2.67925 1.83447 3.30279V6.09803C1.83447 6.72157 2.16697 7.29799 2.70717 7.60954L5.12759 9.00716C5.66779 9.31915 6.33278 9.31915 6.87298 9.00716L9.2934 7.60954C9.8336 7.29755 10.1661 6.72157 10.1661 6.09803Z" stroke="url(#paint9_linear_4394_2570)" stroke-width="0.130904" stroke-miterlimit="10"/>
<path d="M6.00006 8.58668C5.80894 8.58668 5.62044 8.53606 5.45463 8.4405L3.0342 7.04288C2.69778 6.84871 2.48877 6.48654 2.48877 6.09819V3.30294C2.48877 2.91459 2.69778 2.55243 3.0342 2.35825L5.45463 0.96063C5.62044 0.865069 5.80894 0.814453 6.00006 0.814453C6.19118 0.814453 6.38012 0.865069 6.54549 0.96063L8.96592 2.35825C9.30234 2.55243 9.51135 2.91459 9.51135 3.30294V6.09819C9.51135 6.48654 9.30234 6.84871 8.96592 7.04288L6.54549 8.4405C6.38012 8.53606 6.19118 8.58668 6.00006 8.58668Z" fill="url(#paint10_linear_4394_2570)"/>
<path style="mix-blend-mode:screen" d="M6.00037 8.06288C5.90088 8.06288 5.8027 8.0367 5.71674 7.98696L3.29632 6.58934C3.12135 6.4881 3.0127 6.30004 3.0127 6.09801V3.30276C3.0127 3.10074 3.12135 2.91267 3.29632 2.81144L5.71674 1.41382C5.8027 1.36407 5.90088 1.33789 6.00037 1.33789C6.09986 1.33789 6.1976 1.36407 6.28399 1.41382L8.70485 2.81144C8.87983 2.91223 8.98848 3.10074 8.98848 3.30276V6.09801C8.98848 6.30004 8.87983 6.4881 8.70485 6.58934L6.28443 7.98696C6.19847 8.0367 6.10029 8.06288 6.0008 8.06288H6.00037Z" fill="url(#paint11_linear_4394_2570)"/>
<path style="mix-blend-mode:multiply" opacity="0.3" d="M4.4082 5.6192V3.78131L6 2.86279L7.59136 3.78131V5.6192L6 6.53815L4.4082 5.6192Z" fill="url(#paint12_linear_4394_2570)"/>
<path d="M4.62256 5.49581V3.90533L6.00011 3.10986L7.37766 3.90489V5.49581L6.00011 6.29127L4.62256 5.49581Z" fill="#1C212E"/>
<path d="M6.00038 3.24072L4.73584 3.97073L6.00038 4.70031V3.24072Z" fill="url(#paint13_linear_4394_2570)"/>
<path d="M6 4.70031L7.2641 3.9703L6 3.24072V4.70031Z" fill="url(#paint14_linear_4394_2570)"/>
<path d="M6 4.70022L7.2641 5.43023V3.97021L6 4.70022Z" fill="url(#paint15_linear_4394_2570)"/>
<path d="M6 4.7002V6.16021L7.2641 5.43021L6 4.7002Z" fill="url(#paint16_linear_4394_2570)"/>
<path d="M4.73584 5.43021L6.00038 6.16021V4.7002L4.73584 5.43021Z" fill="url(#paint17_linear_4394_2570)"/>
<path d="M6.00038 4.70028L4.73584 3.9707V5.43029L6.00038 4.70028Z" fill="url(#paint18_linear_4394_2570)"/>
<path d="M6.00008 3.74023L5.16797 4.22022V5.18105L6.00008 5.66147L6.83176 5.18105V4.22022L6.00008 3.74023Z" fill="url(#paint19_linear_4394_2570)"/>
<defs>
<linearGradient id="paint0_linear_4394_2570" x1="3.68255" y1="10.5909" x2="3.68255" y2="4.7002" gradientUnits="userSpaceOnUse">
<stop stop-color="#FFE771"/>
<stop offset="1" stop-color="#E67700"/>
</linearGradient>
<linearGradient id="paint1_linear_4394_2570" x1="8.31727" y1="-0.563468" x2="8.31727" y2="-0.563468" gradientUnits="userSpaceOnUse">
<stop stop-color="#FFE771"/>
<stop offset="1" stop-color="#E67700"/>
</linearGradient>
<linearGradient id="paint2_linear_4394_2570" x1="6.00009" y1="11.1267" x2="6.00009" y2="4.7002" gradientUnits="userSpaceOnUse">
<stop stop-color="#FFE771"/>
<stop offset="1" stop-color="#E67700"/>
</linearGradient>
<linearGradient id="paint3_linear_4394_2570" x1="3.07646" y1="2.82031" x2="3.07646" y2="8.80482" gradientUnits="userSpaceOnUse">
<stop stop-color="#FFE771"/>
<stop offset="1" stop-color="#E67700"/>
</linearGradient>
<linearGradient id="paint4_linear_4394_2570" x1="8.92309" y1="2.82031" x2="8.92309" y2="8.80482" gradientUnits="userSpaceOnUse">
<stop stop-color="#FFE771"/>
<stop offset="1" stop-color="#E67700"/>
</linearGradient>
<linearGradient id="paint5_linear_4394_2570" x1="2.42217" y1="0.695801" x2="2.42217" y2="6.67987" gradientUnits="userSpaceOnUse">
<stop stop-color="#FFE771"/>
<stop offset="1" stop-color="#E67700"/>
</linearGradient>
<linearGradient id="paint6_linear_4394_2570" x1="9.57788" y1="0.695801" x2="9.57788" y2="6.67987" gradientUnits="userSpaceOnUse">
<stop stop-color="#FFE771"/>
<stop offset="1" stop-color="#E67700"/>
</linearGradient>
<linearGradient id="paint7_linear_4394_2570" x1="3.07646" y1="1.94727" x2="3.07646" y2="7.93177" gradientUnits="userSpaceOnUse">
<stop stop-color="#FFE771"/>
<stop offset="1" stop-color="#E67700"/>
</linearGradient>
<linearGradient id="paint8_linear_4394_2570" x1="8.92309" y1="1.94727" x2="8.92309" y2="7.93178" gradientUnits="userSpaceOnUse">
<stop stop-color="#FFE771"/>
<stop offset="1" stop-color="#E67700"/>
</linearGradient>
<linearGradient id="paint9_linear_4394_2570" x1="6.00028" y1="0.0947612" x2="6.00028" y2="9.3065" gradientUnits="userSpaceOnUse">
<stop stop-color="#435570"/>
<stop offset="1" stop-color="#212736"/>
</linearGradient>
<linearGradient id="paint10_linear_4394_2570" x1="6.00006" y1="0.814889" x2="6.00006" y2="8.58668" gradientUnits="userSpaceOnUse">
<stop stop-color="white"/>
<stop offset="0.5" stop-color="#FFE771"/>
<stop offset="1" stop-color="#E67700"/>
</linearGradient>
<linearGradient id="paint11_linear_4394_2570" x1="6.00037" y1="1.33833" x2="6.00037" y2="8.06288" gradientUnits="userSpaceOnUse">
<stop stop-color="white"/>
<stop offset="0.5" stop-color="#FFE771"/>
<stop offset="1" stop-color="#E67700"/>
</linearGradient>
<linearGradient id="paint12_linear_4394_2570" x1="6" y1="6.53815" x2="6" y2="2.86279" gradientUnits="userSpaceOnUse">
<stop stop-color="white"/>
<stop offset="1"/>
</linearGradient>
<linearGradient id="paint13_linear_4394_2570" x1="5.36811" y1="3.24072" x2="5.36811" y2="4.70031" gradientUnits="userSpaceOnUse">
<stop stop-color="white"/>
<stop offset="0.5" stop-color="#FFE771"/>
<stop offset="1" stop-color="#E67700"/>
</linearGradient>
<linearGradient id="paint14_linear_4394_2570" x1="6.63183" y1="4.70031" x2="6.63183" y2="3.24072" gradientUnits="userSpaceOnUse">
<stop stop-color="white"/>
<stop offset="0.5" stop-color="#FFE771"/>
<stop offset="1" stop-color="#E67700"/>
</linearGradient>
<linearGradient id="paint15_linear_4394_2570" x1="6.63183" y1="5.43023" x2="6.63183" y2="3.97021" gradientUnits="userSpaceOnUse">
<stop stop-color="white"/>
<stop offset="0.5" stop-color="#FFE771"/>
<stop offset="1" stop-color="#E67700"/>
</linearGradient>
<linearGradient id="paint16_linear_4394_2570" x1="6.63183" y1="6.16021" x2="6.63183" y2="4.7002" gradientUnits="userSpaceOnUse">
<stop stop-color="white"/>
<stop offset="0.5" stop-color="#FFE771"/>
<stop offset="1" stop-color="#E67700"/>
</linearGradient>
<linearGradient id="paint17_linear_4394_2570" x1="5.36811" y1="4.7002" x2="5.36811" y2="6.16021" gradientUnits="userSpaceOnUse">
<stop stop-color="white"/>
<stop offset="0.5" stop-color="#FFE771"/>
<stop offset="1" stop-color="#E67700"/>
</linearGradient>
<linearGradient id="paint18_linear_4394_2570" x1="5.36811" y1="5.43029" x2="5.36811" y2="3.9707" gradientUnits="userSpaceOnUse">
<stop stop-color="white"/>
<stop offset="0.5" stop-color="#FFE771"/>
<stop offset="1" stop-color="#E67700"/>
</linearGradient>
<linearGradient id="paint19_linear_4394_2570" x1="6.00008" y1="3.74023" x2="6.00008" y2="5.66147" gradientUnits="userSpaceOnUse">
<stop stop-color="white"/>
<stop offset="0.5" stop-color="#FFE771"/>
<stop offset="1" stop-color="#E67700"/>
</linearGradient>
</defs>
</svg>
