<svg width="20" height="20" viewBox="0 0 16 15" fill="none" xmlns="http://www.w3.org/2000/svg">
<path d="M13.8644 1.38116L12.9153 0.481798L12.4068 -9.53674e-07L11.9322 0.449677L12.4407 0.931477L10.6102 2.63383L10.1017 2.15203L9.08474 1.22056L8.61017 1.67024L9.62712 2.60171L3.62712 8.2227C3.42373 8.41542 3.32203 8.64026 3.32203 8.89722C3.32203 9.15418 3.42373 9.37901 3.62712 9.57173L2.50847 10.5996L2.71186 11.9807L0 14.5503L0.474576 15L3.22034 12.4304L4.71186 12.6552L5.83051 11.5953C6.20339 11.9486 6.84746 11.9486 7.25424 11.5953L13.2203 6.00642L14.2373 6.9379L14.7119 6.48822L13.6949 5.55675L13.1864 5.07495L15.0169 3.37259L15.5254 3.85439L16 3.40471L13.8644 1.38116ZM4.44068 11.9807L3.35593 11.8201L3.18644 10.8244L4.0678 10.0214L4.57627 10.439L5.32203 11.1456L4.44068 11.9807ZM6.74576 11.1777C6.61017 11.3062 6.40678 11.3062 6.30508 11.1777L4.10169 9.12206C4.0339 9.05782 4 8.99358 4 8.92934C4 8.8651 4.0339 8.76874 4.10169 8.73662L4.67797 8.12634L6 9.37901L6.47458 8.92934L5.15254 7.67666L5.8983 6.97002L7.22034 8.2227L7.69491 7.77302L6.37288 6.52034L7.11864 5.8137L8.44068 7.06638L8.91525 6.6167L7.59322 5.36403L8.33898 4.65739L9.66102 5.91006L10.1356 5.46039L8.81356 4.20771L10.0678 3.05139L12.7458 5.55675L6.74576 11.1777ZM12.7119 4.62527L11.8983 3.85439L11.0847 3.08351L12.9153 1.38116L14.5424 2.89079L12.7119 4.62527Z" fill="#845dc2"/>
</svg>
