<svg width="14" height="14" viewBox="0 0 14 14" fill="none" xmlns="http://www.w3.org/2000/svg">
<path fill-rule="evenodd" clip-rule="evenodd" d="M9.02282 3.17426L7.65716 4.53992L7.23838 4.12114C7.13645 4.01921 6.99703 3.96323 6.85234 3.9664C6.70816 3.9701 6.57139 4.03241 6.47422 4.13909C6.47422 4.13909 3.29612 7.6351 1.87079 9.20302C1.311 9.81878 1.32421 10.7599 1.89402 11.3592L0.154469 13.0988C-0.0514896 13.3048 -0.0514896 13.6396 0.154469 13.8455C0.360427 14.0515 0.695241 14.0515 0.901199 13.8455L2.64075 12.106C3.24648 12.6721 4.19125 12.6763 4.80226 12.107L5.60919 11.355C5.82254 11.1565 5.83416 10.8222 5.6356 10.6088C5.43703 10.3955 5.10222 10.3838 4.88887 10.5824L4.08246 11.3344C3.87439 11.5282 3.55014 11.5224 3.34893 11.3218L2.6698 10.6421C2.47018 10.443 2.46278 10.1224 2.65237 9.91384L4.21818 8.19119C4.929 8.20597 5.08004 8.68654 5.3499 9.02875C5.52839 9.25425 5.72749 9.45704 6.00051 9.59434L5.94084 9.64768C5.72485 9.84361 5.70848 10.1779 5.90387 10.3939C6.09927 10.6099 6.43355 10.6268 6.64955 10.4314L9.85985 7.52684C9.96706 7.42967 10.0299 7.29289 10.0336 7.14819C10.0373 7.00349 9.98132 6.86408 9.87887 6.76163L9.46008 6.34284L10.8257 4.97718L11.4769 5.62886C11.7911 5.94307 12.23 6.09939 12.672 6.05556C13.114 6.01225 13.5132 5.7725 13.7593 5.40283L13.7599 5.40177C14.138 4.83512 14.063 4.08047 13.5814 3.59885L13.0475 3.06494C12.8415 2.85898 12.5067 2.85898 12.3007 3.06494C12.0948 3.2709 12.0948 3.60571 12.3007 3.81167L12.8346 4.34558C12.9603 4.47126 12.9799 4.66825 12.8811 4.81611L12.8806 4.81664C12.8098 4.92332 12.6947 4.99197 12.5679 5.00464C12.4407 5.01732 12.3145 4.97243 12.2241 4.8816C11.3533 4.01129 9.98871 2.64669 9.1184 1.77585C9.02757 1.68555 8.98268 1.55933 8.99536 1.43206C9.00803 1.30532 9.07668 1.19019 9.18336 1.11943L9.18389 1.1189C9.33176 1.02014 9.52874 1.03968 9.65442 1.16537L11.2445 2.75547C11.4505 2.96143 11.7853 2.96143 11.9913 2.75547C12.1972 2.54952 12.1972 2.2147 11.9913 2.00874C11.9913 2.00874 11.0269 1.04391 10.4012 0.418641C9.91953 -0.0629847 9.16488 -0.137975 8.59823 0.240143L8.59717 0.240672C8.2275 0.486765 7.98775 0.886007 7.94444 1.32803C7.90061 1.77004 8.05693 2.20889 8.37115 2.52311L9.02282 3.17426ZM5.04043 7.28656C5.38581 7.42809 5.62292 7.65358 5.82519 7.90232C5.94031 8.04332 6.04118 8.19383 6.14944 8.33589C6.30417 8.53868 6.48003 8.7214 6.86237 8.71929C6.89511 8.71929 6.92733 8.72193 6.95848 8.72773L8.73976 7.11598L6.88297 5.25972L5.04043 7.28656ZM8.40389 5.28665L8.71335 5.59611L10.079 4.23045L9.76955 3.92099L8.40389 5.28665Z" fill="#845DC2"/>
</svg>
