<svg width="134" height="11" viewBox="0 0 134 11" fill="none" xmlns="http://www.w3.org/2000/svg">
<path d="M7.46 1.08934L4.9 8.06934H3.2L0.64 1.08934H2.14L4.06 6.63934L5.97 1.08934H7.46ZM9.00938 1.86934C8.76271 1.86934 8.55604 1.79267 8.38938 1.63934C8.22938 1.47934 8.14938 1.28267 8.14938 1.04934C8.14938 0.816002 8.22938 0.622669 8.38938 0.469335C8.55604 0.309336 8.76271 0.229336 9.00938 0.229336C9.25604 0.229336 9.45938 0.309336 9.61938 0.469335C9.78604 0.622669 9.86938 0.816002 9.86938 1.04934C9.86938 1.28267 9.78604 1.47934 9.61938 1.63934C9.45938 1.79267 9.25604 1.86934 9.00938 1.86934ZM9.69938 2.52934V8.06934H8.29938V2.52934H9.69938ZM16.2326 5.17934C16.2326 5.37934 16.2192 5.55934 16.1926 5.71934H12.1426C12.1759 6.11934 12.3159 6.43267 12.5626 6.65934C12.8092 6.886 13.1126 6.99934 13.4726 6.99934C13.9926 6.99934 14.3626 6.776 14.5826 6.32934H16.0926C15.9326 6.86267 15.6259 7.30267 15.1726 7.64934C14.7192 7.98934 14.1626 8.15934 13.5026 8.15934C12.9692 8.15934 12.4892 8.04267 12.0626 7.80934C11.6426 7.56934 11.3126 7.23267 11.0726 6.79934C10.8392 6.366 10.7226 5.866 10.7226 5.29934C10.7226 4.726 10.8392 4.22267 11.0726 3.78934C11.3059 3.356 11.6326 3.02267 12.0526 2.78934C12.4726 2.556 12.9559 2.43934 13.5026 2.43934C14.0292 2.43934 14.4992 2.55267 14.9126 2.77934C15.3326 3.006 15.6559 3.32934 15.8826 3.74934C16.1159 4.16267 16.2326 4.63934 16.2326 5.17934ZM14.7826 4.77934C14.7759 4.41934 14.6459 4.13267 14.3926 3.91934C14.1392 3.69934 13.8292 3.58934 13.4626 3.58934C13.1159 3.58934 12.8226 3.696 12.5826 3.90934C12.3492 4.116 12.2059 4.406 12.1526 4.77934H14.7826ZM24.9345 2.52934L23.3145 8.06934H21.8045L20.7945 4.19934L19.7845 8.06934H18.2645L16.6345 2.52934H18.0545L19.0345 6.74934L20.0945 2.52934H21.5745L22.6145 6.73934L23.5945 2.52934H24.9345ZM32.3548 6.73934H29.5748L29.1148 8.06934H27.6448L30.1548 1.07934H31.7848L34.2948 8.06934H32.8148L32.3548 6.73934ZM31.9748 5.61934L30.9648 2.69934L29.9548 5.61934H31.9748ZM36.633 0.669336V8.06934H35.233V0.669336H36.633ZM39.4162 0.669336V8.06934H38.0162V0.669336H39.4162ZM47.9322 1.08934V2.21934H46.0722V8.06934H44.6722V2.21934H42.8122V1.08934H47.9322ZM50.3537 3.38934C50.5337 3.096 50.767 2.866 51.0537 2.69934C51.347 2.53267 51.6803 2.44934 52.0537 2.44934V3.91934H51.6837C51.2437 3.91934 50.9103 4.02267 50.6837 4.22934C50.4637 4.436 50.3537 4.796 50.3537 5.30934V8.06934H48.9537V2.52934H50.3537V3.38934ZM52.6366 5.27934C52.6366 4.71934 52.7466 4.22267 52.9666 3.78934C53.1933 3.356 53.4966 3.02267 53.8766 2.78934C54.2633 2.556 54.6933 2.43934 55.1666 2.43934C55.58 2.43934 55.94 2.52267 56.2466 2.68934C56.56 2.856 56.81 3.066 56.9966 3.31934V2.52934H58.4066V8.06934H56.9966V7.25934C56.8166 7.51934 56.5666 7.736 56.2466 7.90934C55.9333 8.076 55.57 8.15934 55.1566 8.15934C54.69 8.15934 54.2633 8.03934 53.8766 7.79934C53.4966 7.55934 53.1933 7.22267 52.9666 6.78934C52.7466 6.34934 52.6366 5.846 52.6366 5.27934ZM56.9966 5.29934C56.9966 4.95934 56.93 4.66934 56.7966 4.42934C56.6633 4.18267 56.4833 3.996 56.2566 3.86934C56.03 3.736 55.7866 3.66934 55.5266 3.66934C55.2666 3.66934 55.0266 3.73267 54.8066 3.85934C54.5866 3.986 54.4066 4.17267 54.2666 4.41934C54.1333 4.65934 54.0666 4.946 54.0666 5.27934C54.0666 5.61267 54.1333 5.906 54.2666 6.15934C54.4066 6.406 54.5866 6.596 54.8066 6.72934C55.0333 6.86267 55.2733 6.92934 55.5266 6.92934C55.7866 6.92934 56.03 6.866 56.2566 6.73934C56.4833 6.606 56.6633 6.41934 56.7966 6.17934C56.93 5.93267 56.9966 5.63934 56.9966 5.29934ZM59.414 5.29934C59.414 4.726 59.5307 4.226 59.764 3.79934C59.9973 3.366 60.3207 3.03267 60.734 2.79934C61.1473 2.55934 61.6207 2.43934 62.154 2.43934C62.8407 2.43934 63.4073 2.61267 63.854 2.95934C64.3073 3.29934 64.6107 3.77934 64.764 4.39934H63.254C63.174 4.15934 63.0373 3.97267 62.844 3.83934C62.6573 3.69934 62.424 3.62934 62.144 3.62934C61.744 3.62934 61.4273 3.776 61.194 4.06934C60.9607 4.356 60.844 4.766 60.844 5.29934C60.844 5.826 60.9607 6.236 61.194 6.52934C61.4273 6.816 61.744 6.95934 62.144 6.95934C62.7107 6.95934 63.0807 6.706 63.254 6.19934H64.764C64.6107 6.79934 64.3073 7.276 63.854 7.62934C63.4007 7.98267 62.834 8.15934 62.154 8.15934C61.6207 8.15934 61.1473 8.04267 60.734 7.80934C60.3207 7.56934 59.9973 7.236 59.764 6.80934C59.5307 6.376 59.414 5.87267 59.414 5.29934ZM69.0696 8.06934L67.1896 5.70934V8.06934H65.7896V0.669336H67.1896V4.87934L69.0496 2.52934H70.8696L68.4296 5.30934L70.8896 8.06934H69.0696ZM72.3395 1.86934C72.0928 1.86934 71.8861 1.79267 71.7195 1.63934C71.5595 1.47934 71.4795 1.28267 71.4795 1.04934C71.4795 0.816002 71.5595 0.622669 71.7195 0.469335C71.8861 0.309336 72.0928 0.229336 72.3395 0.229336C72.5861 0.229336 72.7895 0.309336 72.9495 0.469335C73.1161 0.622669 73.1995 0.816002 73.1995 1.04934C73.1995 1.28267 73.1161 1.47934 72.9495 1.63934C72.7895 1.79267 72.5861 1.86934 72.3395 1.86934ZM73.0295 2.52934V8.06934H71.6295V2.52934H73.0295ZM77.4827 2.44934C78.1427 2.44934 78.676 2.65934 79.0827 3.07934C79.4893 3.49267 79.6927 4.07267 79.6927 4.81934V8.06934H78.2927V5.00934C78.2927 4.56934 78.1827 4.23267 77.9627 3.99934C77.7427 3.75934 77.4427 3.63934 77.0627 3.63934C76.676 3.63934 76.3693 3.75934 76.1427 3.99934C75.9227 4.23267 75.8127 4.56934 75.8127 5.00934V8.06934H74.4127V2.52934H75.8127V3.21934C75.9993 2.97934 76.236 2.79267 76.5227 2.65934C76.816 2.51934 77.136 2.44934 77.4827 2.44934ZM83.194 2.43934C83.6073 2.43934 83.9707 2.52267 84.284 2.68934C84.5973 2.84934 84.844 3.05934 85.024 3.31934V2.52934H86.434V8.10934C86.434 8.62267 86.3307 9.07934 86.124 9.47934C85.9173 9.886 85.6073 10.206 85.194 10.4393C84.7807 10.6793 84.2807 10.7993 83.694 10.7993C82.9073 10.7993 82.2607 10.616 81.754 10.2493C81.254 9.88267 80.9707 9.38267 80.904 8.74934H82.294C82.3673 9.00267 82.524 9.20267 82.764 9.34934C83.0107 9.50267 83.3073 9.57934 83.654 9.57934C84.0607 9.57934 84.3907 9.456 84.644 9.20934C84.8973 8.96934 85.024 8.60267 85.024 8.10934V7.24934C84.844 7.50934 84.594 7.726 84.274 7.89934C83.9607 8.07267 83.6007 8.15934 83.194 8.15934C82.7273 8.15934 82.3007 8.03934 81.914 7.79934C81.5273 7.55934 81.2207 7.22267 80.994 6.78934C80.774 6.34934 80.664 5.846 80.664 5.27934C80.664 4.71934 80.774 4.22267 80.994 3.78934C81.2207 3.356 81.524 3.02267 81.904 2.78934C82.2907 2.556 82.7207 2.43934 83.194 2.43934ZM85.024 5.29934C85.024 4.95934 84.9573 4.66934 84.824 4.42934C84.6907 4.18267 84.5107 3.996 84.284 3.86934C84.0573 3.736 83.814 3.66934 83.554 3.66934C83.294 3.66934 83.054 3.73267 82.834 3.85934C82.614 3.986 82.434 4.17267 82.294 4.41934C82.1607 4.65934 82.094 4.946 82.094 5.27934C82.094 5.61267 82.1607 5.906 82.294 6.15934C82.434 6.406 82.614 6.596 82.834 6.72934C83.0607 6.86267 83.3007 6.92934 83.554 6.92934C83.814 6.92934 84.0573 6.866 84.284 6.73934C84.5107 6.606 84.6907 6.41934 84.824 6.17934C84.9573 5.93267 85.024 5.63934 85.024 5.29934ZM92.6241 1.08934C93.3575 1.08934 94.0008 1.23267 94.5541 1.51934C95.1141 1.806 95.5441 2.216 95.8441 2.74934C96.1508 3.276 96.3041 3.88934 96.3041 4.58934C96.3041 5.28934 96.1508 5.90267 95.8441 6.42934C95.5441 6.94934 95.1141 7.35267 94.5541 7.63934C94.0008 7.926 93.3575 8.06934 92.6241 8.06934H90.1841V1.08934H92.6241ZM92.5741 6.87934C93.3075 6.87934 93.8741 6.67934 94.2741 6.27934C94.6741 5.87934 94.8741 5.316 94.8741 4.58934C94.8741 3.86267 94.6741 3.296 94.2741 2.88934C93.8741 2.476 93.3075 2.26934 92.5741 2.26934H91.5841V6.87934H92.5741ZM102.502 5.17934C102.502 5.37934 102.489 5.55934 102.462 5.71934H98.4121C98.4454 6.11934 98.5854 6.43267 98.8321 6.65934C99.0788 6.886 99.3821 6.99934 99.7421 6.99934C100.262 6.99934 100.632 6.776 100.852 6.32934H102.362C102.202 6.86267 101.895 7.30267 101.442 7.64934C100.989 7.98934 100.432 8.15934 99.7721 8.15934C99.2388 8.15934 98.7588 8.04267 98.3321 7.80934C97.9121 7.56934 97.5821 7.23267 97.3421 6.79934C97.1088 6.366 96.9921 5.866 96.9921 5.29934C96.9921 4.726 97.1088 4.22267 97.3421 3.78934C97.5754 3.356 97.9021 3.02267 98.3221 2.78934C98.7421 2.556 99.2254 2.43934 99.7721 2.43934C100.299 2.43934 100.769 2.55267 101.182 2.77934C101.602 3.006 101.925 3.32934 102.152 3.74934C102.385 4.16267 102.502 4.63934 102.502 5.17934ZM101.052 4.77934C101.045 4.41934 100.915 4.13267 100.662 3.91934C100.409 3.69934 100.099 3.58934 99.7321 3.58934C99.3854 3.58934 99.0921 3.696 98.8521 3.90934C98.6188 4.116 98.4754 4.406 98.4221 4.77934H101.052ZM105.154 3.67934V6.35934C105.154 6.546 105.197 6.68267 105.284 6.76934C105.377 6.84934 105.531 6.88934 105.744 6.88934H106.394V8.06934H105.514C104.334 8.06934 103.744 7.496 103.744 6.34934V3.67934H103.084V2.52934H103.744V1.15934H105.154V2.52934H106.394V3.67934H105.154ZM107.041 5.27934C107.041 4.71934 107.151 4.22267 107.371 3.78934C107.598 3.356 107.901 3.02267 108.281 2.78934C108.668 2.556 109.098 2.43934 109.571 2.43934C109.984 2.43934 110.344 2.52267 110.651 2.68934C110.964 2.856 111.214 3.066 111.401 3.31934V2.52934H112.811V8.06934H111.401V7.25934C111.221 7.51934 110.971 7.736 110.651 7.90934C110.338 8.076 109.974 8.15934 109.561 8.15934C109.094 8.15934 108.668 8.03934 108.281 7.79934C107.901 7.55934 107.598 7.22267 107.371 6.78934C107.151 6.34934 107.041 5.846 107.041 5.27934ZM111.401 5.29934C111.401 4.95934 111.334 4.66934 111.201 4.42934C111.068 4.18267 110.888 3.996 110.661 3.86934C110.434 3.736 110.191 3.66934 109.931 3.66934C109.671 3.66934 109.431 3.73267 109.211 3.85934C108.991 3.986 108.811 4.17267 108.671 4.41934C108.538 4.65934 108.471 4.946 108.471 5.27934C108.471 5.61267 108.538 5.906 108.671 6.15934C108.811 6.406 108.991 6.596 109.211 6.72934C109.438 6.86267 109.678 6.92934 109.931 6.92934C110.191 6.92934 110.434 6.866 110.661 6.73934C110.888 6.606 111.068 6.41934 111.201 6.17934C111.334 5.93267 111.401 5.63934 111.401 5.29934ZM114.888 1.86934C114.642 1.86934 114.435 1.79267 114.268 1.63934C114.108 1.47934 114.028 1.28267 114.028 1.04934C114.028 0.816002 114.108 0.622669 114.268 0.469335C114.435 0.309336 114.642 0.229336 114.888 0.229336C115.135 0.229336 115.338 0.309336 115.498 0.469335C115.665 0.622669 115.748 0.816002 115.748 1.04934C115.748 1.28267 115.665 1.47934 115.498 1.63934C115.338 1.79267 115.135 1.86934 114.888 1.86934ZM115.578 2.52934V8.06934H114.178V2.52934H115.578ZM118.361 0.669336V8.06934H116.961V0.669336H118.361ZM121.865 8.15934C121.411 8.15934 121.005 8.07934 120.645 7.91934C120.285 7.75267 119.998 7.52934 119.785 7.24934C119.578 6.96934 119.465 6.65934 119.445 6.31934H120.855C120.881 6.53267 120.985 6.70934 121.165 6.84934C121.351 6.98934 121.581 7.05934 121.855 7.05934C122.121 7.05934 122.328 7.006 122.475 6.89934C122.628 6.79267 122.705 6.656 122.705 6.48934C122.705 6.30934 122.611 6.176 122.425 6.08934C122.245 5.996 121.955 5.896 121.555 5.78934C121.141 5.68934 120.801 5.586 120.535 5.47934C120.275 5.37267 120.048 5.20934 119.855 4.98934C119.668 4.76934 119.575 4.47267 119.575 4.09934C119.575 3.79267 119.661 3.51267 119.835 3.25934C120.015 3.006 120.268 2.806 120.595 2.65934C120.928 2.51267 121.318 2.43934 121.765 2.43934C122.425 2.43934 122.951 2.606 123.345 2.93934C123.738 3.266 123.955 3.70934 123.995 4.26934H122.655C122.635 4.04934 122.541 3.876 122.375 3.74934C122.215 3.616 121.998 3.54934 121.725 3.54934C121.471 3.54934 121.275 3.596 121.135 3.68934C121.001 3.78267 120.935 3.91267 120.935 4.07934C120.935 4.266 121.028 4.40934 121.215 4.50934C121.401 4.60267 121.691 4.69934 122.085 4.79934C122.485 4.89934 122.815 5.00267 123.075 5.10934C123.335 5.216 123.558 5.38267 123.745 5.60934C123.938 5.82934 124.038 6.12267 124.045 6.48934C124.045 6.80934 123.955 7.096 123.775 7.34934C123.601 7.60267 123.348 7.80267 123.015 7.94934C122.688 8.08934 122.305 8.15934 121.865 8.15934ZM131.837 3.90934V5.08934H127.597V3.90934H131.837ZM129.257 2.26934H131.027L133.207 4.50934L131.027 6.74934H129.257L131.447 4.50934L129.257 2.26934Z" fill="#845DC2"/>
</svg>
