<svg width="190" height="56" viewBox="0 0 190 56" fill="none" xmlns="http://www.w3.org/2000/svg">
<g clip-path="url(#clip0_5017_4068)">
<path d="M182.767 0H7.23336C3.23849 0 0 2.94264 0 6.57258V48.8349C0 52.4648 3.23849 55.4075 7.23336 55.4075H182.767C186.762 55.4075 190 52.4648 190 48.8349V6.57258C190 2.94264 186.762 0 182.767 0Z" fill="url(#paint0_linear_5017_4068)"/>
<path d="M7.2329 1.68823H182.766C185.733 1.68823 188.142 3.87681 188.142 6.57265V48.835C188.142 51.5308 185.733 53.7194 182.766 53.7194H7.2329C4.26603 53.7194 1.85742 51.5308 1.85742 48.835V6.57265C1.85742 3.87681 4.26603 1.68823 7.2329 1.68823Z" fill="url(#paint1_linear_5017_4068)"/>
<path d="M7.23314 2.3313H182.766C185.343 2.3313 187.434 4.23169 187.434 6.5726V48.8349C187.434 51.1758 185.343 53.0762 182.766 53.0762H7.23314C4.65688 53.0762 2.56543 51.1758 2.56543 48.8349V6.5726C2.56543 4.23169 4.65688 2.3313 7.23314 2.3313Z" fill="black"/>
<path d="M182.767 2.97437H7.23338C5.04637 2.97437 3.27344 4.58533 3.27344 6.57256V48.8345C3.27344 50.8217 5.04637 52.4327 7.23338 52.4327H182.767C184.954 52.4327 186.727 50.8217 186.727 48.8345V6.57256C186.727 4.58533 184.954 2.97437 182.767 2.97437Z" fill="url(#paint2_linear_5017_4068)"/>
<path opacity="0.11" d="M123.412 2.97437C101.653 9.75997 74.0287 23.7777 61.0094 52.4327H7.23338C5.04993 52.4327 3.27344 50.8185 3.27344 48.8345V6.57256C3.27344 4.58857 5.04993 2.97437 7.23338 2.97437H123.412Z" fill="url(#paint3_linear_5017_4068)"/>
</g>
<defs>
<linearGradient id="paint0_linear_5017_4068" x1="95.0002" y1="0" x2="95.0002" y2="55.4075" gradientUnits="userSpaceOnUse">
<stop stop-color="#FCEA7C"/>
<stop offset="0.2" stop-color="#FCDF6A"/>
<stop offset="0.21" stop-color="#F3D566"/>
<stop offset="0.23" stop-color="#D1B156"/>
<stop offset="0.26" stop-color="#B6944A"/>
<stop offset="0.28" stop-color="#A37F41"/>
<stop offset="0.31" stop-color="#97733C"/>
<stop offset="0.33" stop-color="#946F3B"/>
<stop offset="0.36" stop-color="#A07C40"/>
<stop offset="0.43" stop-color="#C1A04F"/>
<stop offset="0.51" stop-color="#F6D967"/>
<stop offset="0.52" stop-color="#FCDF6A"/>
<stop offset="0.56" stop-color="#FADD68"/>
<stop offset="0.58" stop-color="#F1D464"/>
<stop offset="0.61" stop-color="#F3D868"/>
<stop offset="0.65" stop-color="#F9E475"/>
<stop offset="0.66" stop-color="#FCEA7C"/>
<stop offset="0.69" stop-color="#FAE87B"/>
<stop offset="0.7" stop-color="#F4E177"/>
<stop offset="0.71" stop-color="#EAD571"/>
<stop offset="0.72" stop-color="#CAAE5C"/>
<stop offset="0.73" stop-color="#9A753E"/>
<stop offset="0.78" stop-color="#97723C"/>
<stop offset="0.81" stop-color="#8F6A36"/>
<stop offset="0.83" stop-color="#8E6A34"/>
<stop offset="0.84" stop-color="#AF8E44"/>
<stop offset="0.85" stop-color="#CBAB52"/>
<stop offset="0.86" stop-color="#E0C25C"/>
<stop offset="0.88" stop-color="#F0D264"/>
<stop offset="0.89" stop-color="#F9DC68"/>
<stop offset="0.91" stop-color="#FCDF6A"/>
<stop offset="0.93" stop-color="#EDCF63"/>
<stop offset="0.96" stop-color="#C7A652"/>
<stop offset="1" stop-color="#946F3B"/>
</linearGradient>
<linearGradient id="paint1_linear_5017_4068" x1="94.9997" y1="53.7194" x2="94.9997" y2="1.68823" gradientUnits="userSpaceOnUse">
<stop offset="0.177083" stop-color="#FCEA7C"/>
<stop offset="1" stop-color="#876331"/>
</linearGradient>
<linearGradient id="paint2_linear_5017_4068" x1="95.0002" y1="2.97437" x2="95.0002" y2="52.4327" gradientUnits="userSpaceOnUse">
<stop stop-color="#B3005F"/>
<stop offset="0.19" stop-color="#FF6DDF"/>
<stop offset="0.43" stop-color="#FF6DDF"/>
<stop offset="0.614583" stop-color="#FF6DDF"/>
<stop offset="0.69" stop-color="#FF6DDF"/>
<stop offset="1" stop-color="#B3005F"/>
</linearGradient>
<linearGradient id="paint3_linear_5017_4068" x1="63.3428" y1="2.67009" x2="63.3428" y2="52.0255" gradientUnits="userSpaceOnUse">
<stop offset="0.15" stop-color="white"/>
<stop offset="0.3" stop-color="#C4C5CA"/>
<stop offset="0.49" stop-color="#82858F"/>
<stop offset="0.66" stop-color="#4E5260"/>
<stop offset="0.81" stop-color="#292D3F"/>
<stop offset="0.93" stop-color="#12172A"/>
<stop offset="1" stop-color="#700606"/>
</linearGradient>
<clipPath id="clip0_5017_4068">
<rect width="190" height="55.4075" fill="white"/>
</clipPath>
</defs>
</svg>
